<svg width="348" height="241" viewBox="0 0 348 241" fill="none" xmlns="http://www.w3.org/2000/svg">
<path d="M292.592 233.653L287.617 233.652L285.25 215.327L292.594 215.327L292.592 233.653Z" fill="#FFB6B6"/>
<path d="M292.789 238.609L277.488 238.609V238.424C277.489 235.284 280.155 232.738 283.444 232.738L286.239 230.713L291.454 232.738L292.789 232.738L292.789 238.609Z" fill="#2F2E41"/>
<path d="M270.577 233.653L265.601 233.652L263.234 215.327L270.578 215.327L270.577 233.653Z" fill="#FFB6B6"/>
<path d="M270.773 238.609L255.473 238.609V238.424C255.473 235.284 258.139 232.738 261.428 232.738L264.223 230.713L269.438 232.738L270.774 232.738L270.773 238.609Z" fill="#2F2E41"/>
<path d="M268.173 131.382L296.879 131.959C296.879 131.959 302.04 140.038 298.1 151.435L298.541 154.609L296.728 159.514L295.822 174.518L296.728 176.826L296.124 181.154C296.124 181.154 298.541 209.719 292.498 224.146L285.246 223.857L282.526 186.217L284.037 183.462L283.735 182.308L280.109 164.996L276.483 173.941V178.911L273.159 182.597C273.159 182.597 274.368 216.644 271.044 223.569H262.924L259.863 177.403L262.885 150.569L262.281 148.838L263.187 147.973L262.583 145.087L268.173 131.382Z" fill="#2F2E41"/>
<path d="M280.436 78.7243L289.199 76.7046L291.617 82.1868C291.617 82.1868 304.124 88.5345 304.728 97.1906C304.728 97.1906 306.423 104.115 304.913 107.289C303.402 110.463 297.056 120.562 297.056 120.562C297.056 120.562 302.797 138.163 301.286 139.028C299.776 139.894 263.816 138.163 263.816 136.431C263.816 134.7 269.801 116.522 269.801 116.522L271.069 85.3606L279.227 82.4753L280.436 78.7243Z" fill="#060606"/>
<path d="M303.782 149.753C301.947 148.87 301.21 146.735 302.134 144.984C302.227 144.808 302.336 144.645 302.454 144.49L297.578 112.568L304.329 112.774L307.86 143.878C309.14 144.914 309.564 146.685 308.776 148.18C307.852 149.931 305.616 150.635 303.782 149.753Z" fill="#FFB6B6"/>
<path d="M239.73 134.686C238.992 132.856 239.947 130.801 241.863 130.096C242.056 130.025 242.252 129.974 242.447 129.936L261.284 103.155L266.141 107.636L246.884 132.948C247.103 134.537 246.172 136.121 244.537 136.723C242.621 137.428 240.469 136.516 239.73 134.686Z" fill="#FFB6B6"/>
<path d="M291.481 104.515C289.574 98.2583 292.742 91.8746 299.566 91.9054C301.539 91.9143 303.071 92.4609 303.496 93.9738C304.983 99.269 305.793 107.262 305.793 107.262L307.557 115.772L306.489 117.539L308.715 123.243L307.635 125.941L307.402 139.719L301.963 139.431L295.97 128.927L293.678 127.626C293.678 127.626 295.518 110.642 291.858 105.753L291.481 104.515Z" fill="#060606"/>
<path d="M267.09 89.1171C270.27 83.3512 278.412 81.9854 283.299 86.5349C284.711 87.8499 285.416 89.2596 284.621 90.6296C281.837 95.4244 275.386 100.587 275.386 100.587L267.441 112.783L265.387 113.346L262.839 118.925L257.38 125.054L250.148 128.696L245.918 124.656L246.816 119.464L257.703 105.613C257.703 105.613 265.536 96.2022 266.461 90.2571L267.09 89.1171Z" fill="#060606"/>
<path d="M282.066 77.0379C282.266 77.0609 282.466 77.0781 282.664 77.0868C283.282 77.1191 283.892 77.0855 284.48 76.9903C286.267 76.7169 287.89 75.9089 289.142 74.7239C290.466 73.4736 291.372 71.8048 291.617 69.9049C292.191 65.4205 288.847 61.3354 284.151 60.7875C279.522 60.2442 275.302 63.3358 274.628 67.7173C274.618 67.7851 274.607 67.8501 274.599 67.9176C274.026 72.4049 277.367 76.4874 282.066 77.0379Z" fill="#FFB6B6"/>
<path d="M272.732 67.4176C273.949 67.9921 275.936 66.1861 276.698 67.2252C276.821 67.0006 276.958 66.7834 277.093 66.5781C277.215 66.3943 277.39 66.002 277.592 65.9348C277.336 66.5241 277.392 67.3221 277.658 68.0059C278.858 68.434 280.429 67.4863 281.54 66.3652C283.284 64.6075 286.131 69.1149 285.458 71.4476C286.315 70.4484 288.175 71.0119 288.805 72.1545C289.435 73.2941 288.37 74.2073 288.143 75.4785L289.861 75.2702C290.945 74.2621 290.869 72.5635 291.761 71.3952C293.252 69.44 293.83 67.4451 292.709 65.4272C291.715 63.643 291.622 61.3339 289.798 60.3052C290.595 59.9332 287.761 60.5144 288.518 59.302C289.278 58.0921 285.226 57.9453 284.962 58.5934C283.804 57.2701 282.636 56.3975 281.211 57.4579C279.812 58.5012 279.957 59.5978 278.314 59.4995C277.543 59.4539 277.627 60.8266 277.169 61.425C276.713 62.0203 274.942 62.4024 274.856 62.3387C274.388 61.9892 272.796 64.9647 272.796 64.9647C272.796 64.9647 271.506 66.8355 272.732 67.4176Z" fill="#2F2E41"/>
<path d="M120.859 82.5562C162.713 82.5562 196.643 112.053 196.643 148.438C196.643 184.824 162.713 214.32 120.859 214.32C79.0039 214.32 21.0785 178.245 45.0739 148.438C69.0693 118.631 79.0039 82.5562 120.859 82.5562Z" fill="#A382B2"/>
<path d="M222.291 85.6904C221.611 85.6904 221.059 86.1709 221.059 86.7617V121.042C221.059 121.633 221.611 122.113 222.291 122.113C222.97 122.113 223.523 121.633 223.523 121.042V86.7617C223.523 86.1709 222.97 85.6904 222.291 85.6904Z" fill="#3F3D56"/>
<path d="M15.2674 59.9805C14.5878 59.9805 14.0352 60.4609 14.0352 61.0517V69.6217C14.0352 70.2125 14.5878 70.693 15.2674 70.693C15.947 70.693 16.4997 70.2125 16.4997 69.6217V61.0517C16.4997 60.4609 15.947 59.9805 15.2674 59.9805Z" fill="#3F3D56"/>
<path d="M15.2674 85.6904C14.5878 85.6904 14.0352 86.1709 14.0352 86.7617V103.366C14.0352 103.957 14.5878 104.437 15.2674 104.437C15.947 104.437 16.4997 103.957 16.4997 103.366V86.7617C16.4997 86.1709 15.947 85.6904 15.2674 85.6904Z" fill="#3F3D56"/>
<path d="M15.2674 109.258C14.5878 109.258 14.0352 109.738 14.0352 110.329V126.933C14.0352 127.524 14.5878 128.005 15.2674 128.005C15.947 128.005 16.4997 127.524 16.4997 126.933V110.329C16.4997 109.738 15.947 109.258 15.2674 109.258Z" fill="#3F3D56"/>
<path d="M125.787 26.2358C125.107 26.2358 124.555 26.7163 124.555 27.3071V43.9115C124.555 44.5023 125.107 44.9827 125.787 44.9827C126.467 44.9827 127.019 44.5023 127.019 43.9115V27.3071C127.019 26.7163 126.467 26.2358 125.787 26.2358Z" fill="#3F3D56"/>
<path d="M314.569 231.716C315.842 231.786 316.545 230.411 315.582 229.609L315.486 229.278C315.499 229.252 315.512 229.225 315.524 229.199C316.812 226.531 321.174 226.549 322.451 229.221C323.583 231.593 325.026 233.969 325.381 236.477C325.54 237.584 325.468 238.712 325.186 239.798C327.84 234.757 329.237 229.253 329.237 223.718C329.237 222.327 329.15 220.937 328.97 219.549C328.823 218.415 328.62 217.287 328.358 216.169C326.937 210.129 323.861 204.376 319.424 199.57C317.291 198.557 315.512 196.972 314.437 195.073C314.051 194.388 313.749 193.651 313.605 192.9C313.848 192.928 314.521 189.714 314.338 189.517C314.676 189.071 315.281 188.849 315.651 188.413C317.488 186.248 320.02 186.626 321.342 189.569C324.165 190.808 324.192 192.862 322.46 194.838C321.358 196.095 321.206 197.796 320.239 199.141C320.339 199.252 320.442 199.359 320.542 199.47C322.366 201.504 323.944 203.691 325.274 205.988C324.898 203.435 325.453 200.359 326.4 198.377C327.477 196.118 329.496 194.216 331.274 192.263C333.409 189.917 337.788 190.941 338.165 193.914C338.168 193.943 338.172 193.972 338.175 194.001C337.911 194.13 337.652 194.268 337.4 194.413C335.958 195.242 336.456 197.184 338.164 197.413L338.203 197.419C338.108 198.245 337.944 199.065 337.706 199.871C339.986 207.539 335.062 210.332 328.031 210.458C327.876 210.527 327.725 210.596 327.57 210.662C328.282 212.405 328.851 214.194 329.273 216.007C329.651 217.608 329.914 219.228 330.061 220.854C330.244 222.905 330.228 224.967 330.029 227.015L330.041 226.942C330.546 224.687 331.955 222.58 334.001 221.12C337.048 218.944 341.353 218.143 344.64 216.393C346.223 215.551 348.25 216.639 347.974 218.234L347.961 218.311C347.471 218.484 346.994 218.684 346.532 218.909C346.268 219.039 346.009 219.176 345.757 219.322C344.315 220.15 344.813 222.093 346.521 222.322L346.56 222.327C346.588 222.331 346.612 222.334 346.64 222.338C345.8 224.071 344.63 225.68 343.166 227.067C341.739 233.761 335.614 234.396 329.062 232.446H329.058C328.342 235.159 327.295 237.809 325.95 240.334H314.847C314.807 240.227 314.772 240.116 314.736 240.009C315.762 240.064 316.797 240.012 317.808 239.85C316.984 238.971 316.16 238.085 315.337 237.207C315.317 237.189 315.301 237.172 315.285 237.155C314.867 236.705 314.445 236.259 314.027 235.809L314.027 235.809C314.001 234.428 314.192 233.052 314.569 231.716Z" fill="#A382B2"/>
<path d="M0 240.363C0 240.717 0.326571 241 0.733239 241H347.18C347.587 241 347.914 240.717 347.914 240.363C347.914 240.009 347.587 239.726 347.18 239.726H0.733239C0.326571 239.726 0 240.009 0 240.363Z" fill="#C2C2C2"/>
<path d="M87.7236 143.997H45.0742V142.926H87.7236C91.4285 142.926 94.4427 140.305 94.4427 137.084V112.016H95.675V137.084C95.675 140.896 92.1082 143.997 87.7236 143.997Z" fill="black"/>
<path d="M169.104 198.339H72.1016V199.411H169.104V198.339Z" fill="black"/>
<path d="M230.644 136.834H178.833C176.036 136.834 173.762 134.857 173.762 132.426V87.9336C173.762 85.5029 176.036 83.5254 178.833 83.5254H230.644C233.441 83.5254 235.715 85.5029 235.715 87.9336V132.426C235.715 134.857 233.441 136.834 230.644 136.834Z" fill="#6D3C81"/>
<path d="M188.482 84.8389C181.187 84.8389 175.273 89.98 175.273 96.3218V131.482C175.273 133.712 177.353 135.521 179.919 135.521H211.601C224.085 135.521 234.205 126.723 234.205 115.87V88.8776C234.205 86.6471 232.125 84.8389 229.559 84.8389L188.482 84.8389Z" fill="white"/>
<path d="M218.615 97.7683H190.753C190.222 97.7683 189.789 97.3923 189.789 96.9302C189.789 96.4681 190.222 96.0923 190.753 96.0923H218.615C219.147 96.0923 219.579 96.4681 219.579 96.9302C219.579 97.3923 219.147 97.7683 218.615 97.7683Z" fill="#6D3C81"/>
<path d="M218.615 115.639H190.753C190.222 115.639 189.789 115.263 189.789 114.801C189.789 114.339 190.222 113.963 190.753 113.963H218.615C219.147 113.963 219.579 114.339 219.579 114.801C219.579 115.263 219.147 115.639 218.615 115.639Z" fill="#6D3C81"/>
<path d="M229.931 106.709H179.441C178.909 106.709 178.477 106.333 178.477 105.871C178.477 105.409 178.909 105.033 179.441 105.033H229.931C230.463 105.033 230.895 105.409 230.895 105.871C230.895 106.333 230.463 106.709 229.931 106.709Z" fill="#6D3C81"/>
<path d="M230.446 122.905H212.206C211.675 122.905 211.242 122.529 211.242 122.067C211.242 121.605 211.675 121.229 212.206 121.229H230.446C230.978 121.229 231.41 121.605 231.41 122.067C231.41 122.529 230.978 122.905 230.446 122.905Z" fill="#6D3C81"/>
<path d="M121.817 225.483H80.675C78.4547 225.483 76.6484 223.912 76.6484 221.982V186.652C76.6484 184.722 78.4547 183.152 80.675 183.152H121.817C124.037 183.152 125.844 184.722 125.844 186.652V221.982C125.844 223.912 124.037 225.483 121.817 225.483Z" fill="#6D3C81"/>
<path d="M88.3365 184.195C82.5437 184.195 77.8477 188.277 77.8477 193.313V221.233C77.8477 223.004 79.4993 224.44 81.5367 224.44H106.694C116.607 224.44 124.644 217.453 124.644 208.836V187.402C124.644 185.631 122.992 184.195 120.954 184.195L88.3365 184.195Z" fill="white"/>
<path d="M112.265 194.462H90.1405C89.7185 194.462 89.375 194.163 89.375 193.796C89.375 193.429 89.7184 193.131 90.1405 193.131H112.265C112.687 193.131 113.03 193.429 113.03 193.796C113.03 194.163 112.687 194.462 112.265 194.462Z" fill="#6D3C81"/>
<path d="M112.265 208.652H90.1405C89.7185 208.652 89.375 208.354 89.375 207.987C89.375 207.62 89.7184 207.321 90.1405 207.321H112.265C112.687 207.321 113.03 207.62 113.03 207.987C113.03 208.354 112.687 208.652 112.265 208.652Z" fill="#6D3C81"/>
<path d="M121.249 201.561H81.1562C80.7341 201.561 80.3906 201.263 80.3906 200.896C80.3906 200.529 80.7341 200.23 81.1562 200.23H121.249C121.671 200.23 122.014 200.529 122.014 200.896C122.014 201.263 121.671 201.561 121.249 201.561Z" fill="#6D3C81"/>
<path d="M121.659 214.422H107.176C106.754 214.422 106.41 214.123 106.41 213.756C106.41 213.389 106.754 213.091 107.176 213.091H121.659C122.081 213.091 122.425 213.389 122.425 213.756C122.425 214.123 122.081 214.422 121.659 214.422Z" fill="#6D3C81"/>
<path d="M93.0605 111.745H62.6341C60.9921 111.745 59.6562 110.584 59.6562 109.157V83.0286C59.6562 81.6012 60.9921 80.4399 62.6341 80.4399H93.0605C94.7025 80.4399 96.0383 81.6012 96.0383 83.0286V109.157C96.0383 110.584 94.7025 111.745 93.0605 111.745Z" fill="#6D3C81"/>
<path d="M68.2999 81.2114C64.0159 81.2114 60.543 84.2305 60.543 87.9548V108.602C60.543 109.912 61.7644 110.974 63.2712 110.974H81.8762C89.2074 110.974 95.1506 105.808 95.1506 99.4344V83.5832C95.1506 82.2733 93.9291 81.2114 92.4223 81.2114L68.2999 81.2114Z" fill="white"/>
<path d="M85.9984 88.8041H69.6365C69.3243 88.8041 69.0703 88.5833 69.0703 88.3119C69.0703 88.0405 69.3243 87.8198 69.6365 87.8198H85.9984C86.3105 87.8198 86.5644 88.0405 86.5644 88.3119C86.5644 88.5833 86.3105 88.8041 85.9984 88.8041Z" fill="#6D3C81"/>
<path d="M85.9984 99.2982H69.6365C69.3243 99.2982 69.0703 99.0774 69.0703 98.806C69.0703 98.5347 69.3243 98.314 69.6365 98.314H85.9984C86.3105 98.314 86.5644 98.5347 86.5644 98.806C86.5644 99.0774 86.3105 99.2982 85.9984 99.2982Z" fill="#6D3C81"/>
<path d="M92.6423 94.0545H62.9919C62.6798 94.0545 62.4258 93.8337 62.4258 93.5624C62.4258 93.291 62.6798 93.0703 62.9919 93.0703H92.6423C92.9545 93.0703 93.2084 93.291 93.2084 93.5624C93.2084 93.8337 92.9545 94.0545 92.6423 94.0545Z" fill="#6D3C81"/>
<path d="M92.9415 103.565H82.2302C81.9181 103.565 81.6641 103.344 81.6641 103.073C81.6641 102.802 81.9181 102.581 82.2302 102.581H92.9415C93.2537 102.581 93.5076 102.802 93.5076 103.073C93.5076 103.344 93.2537 103.565 92.9415 103.565Z" fill="#6D3C81"/>
<path d="M181.857 144.689C185.259 144.689 188.018 142.291 188.018 139.333C188.018 136.375 185.259 133.977 181.857 133.977C178.454 133.977 175.695 136.375 175.695 139.333C175.695 142.291 178.454 144.689 181.857 144.689Z" fill="black"/>
<path d="M94.9817 117.372C98.3845 117.372 101.143 114.974 101.143 112.015C101.143 109.057 98.3845 106.659 94.9817 106.659C91.5788 106.659 88.8203 109.057 88.8203 112.015C88.8203 114.974 91.5788 117.372 94.9817 117.372Z" fill="black"/>
<path d="M124.556 190.753C127.959 190.753 130.717 188.354 130.717 185.396C130.717 182.438 127.959 180.04 124.556 180.04C121.153 180.04 118.395 182.438 118.395 185.396C118.395 188.354 121.153 190.753 124.556 190.753Z" fill="black"/>
<path d="M137.863 42.2355C142.104 42.2355 145.542 39.3097 145.542 35.7005C145.542 32.0914 142.104 29.1655 137.863 29.1655C133.622 29.1655 130.184 32.0914 130.184 35.7005C130.184 39.3097 133.622 42.2355 137.863 42.2355Z" fill="#A382B2"/>
<path d="M199.421 33.465H158.087C156.669 33.465 155.516 32.462 155.516 31.2293C155.516 29.9966 156.669 28.9937 158.087 28.9937H199.421C200.839 28.9937 201.992 29.9966 201.992 31.2293C201.992 32.462 200.839 33.465 199.421 33.465Z" fill="#A382B2"/>
<path d="M231.678 41.0319H158.087C156.669 41.0319 155.516 40.0289 155.516 38.7962C155.516 37.5635 156.669 36.5605 158.087 36.5605H231.678C233.096 36.5605 234.249 37.5635 234.249 38.7962C234.249 40.0289 233.096 41.0319 231.678 41.0319Z" fill="#A382B2"/>
<path d="M26.7159 69.7014C29.4606 69.7014 31.6857 67.8078 31.6857 65.472C31.6857 63.1362 29.4606 61.2427 26.7159 61.2427C23.9711 61.2427 21.7461 63.1362 21.7461 65.472C21.7461 67.8078 23.9711 69.7014 26.7159 69.7014Z" fill="#A382B2"/>
<path d="M66.5554 64.0251H39.805C38.8873 64.0251 38.1406 63.376 38.1406 62.5782C38.1406 61.7804 38.8873 61.1313 39.805 61.1313H66.5554C67.4731 61.1313 68.2198 61.7804 68.2198 62.5782C68.2198 63.376 67.4731 64.0251 66.5554 64.0251Z" fill="#A382B2"/>
<path d="M87.4315 68.9221H39.805C38.8873 68.9221 38.1406 68.273 38.1406 67.4752C38.1406 66.6774 38.8873 66.0283 39.805 66.0283H87.4315C88.3492 66.0283 89.0959 66.6774 89.0959 67.4752C89.0959 68.273 88.3492 68.9221 87.4315 68.9221Z" fill="#A382B2"/>
<path d="M175.821 220.212C178.566 220.212 180.791 218.319 180.791 215.983C180.791 213.647 178.566 211.753 175.821 211.753C173.077 211.753 170.852 213.647 170.852 215.983C170.852 218.319 173.077 220.212 175.821 220.212Z" fill="#A382B2"/>
<path d="M215.661 214.536H188.91C187.993 214.536 187.246 213.887 187.246 213.089C187.246 212.291 187.993 211.642 188.91 211.642H215.661C216.579 211.642 217.325 212.291 217.325 213.089C217.325 213.887 216.579 214.536 215.661 214.536Z" fill="#A382B2"/>
<path d="M236.537 219.433H188.91C187.993 219.433 187.246 218.784 187.246 217.986C187.246 217.188 187.993 216.539 188.91 216.539H236.537C237.455 216.539 238.201 217.188 238.201 217.986C238.201 218.784 237.455 219.433 236.537 219.433Z" fill="#A382B2"/>
<path d="M116.084 83.542H114.852V134.426H116.084V83.542Z" fill="#6D3C81"/>
<path d="M115.466 137.64C117.508 137.64 119.163 136.201 119.163 134.426C119.163 132.651 117.508 131.212 115.466 131.212C113.425 131.212 111.77 132.651 111.77 134.426C111.77 136.201 113.425 137.64 115.466 137.64Z" fill="#6D3C81"/>
<path d="M171.537 174.598C173.578 174.598 175.233 173.16 175.233 171.385C175.233 169.61 173.578 168.171 171.537 168.171C169.495 168.171 167.84 169.61 167.84 171.385C167.84 173.16 169.495 174.598 171.537 174.598Z" fill="#6D3C81"/>
<path d="M71.7203 130.677C73.7619 130.677 75.4171 129.238 75.4171 127.463C75.4171 125.688 73.7619 124.25 71.7203 124.25C69.6786 124.25 68.0234 125.688 68.0234 127.463C68.0234 129.238 69.6786 130.677 71.7203 130.677Z" fill="#6D3C81"/>
<path d="M70.3539 127.468L50.1367 128L50.174 129.071L70.3912 128.539L70.3539 127.468Z" fill="#6D3C81"/>
<path d="M201.61 183.687H170.953V171.384H172.185V182.616H201.61V183.687Z" fill="#6D3C81"/>
<path d="M70.2046 165.768C72.2463 165.768 73.9014 164.329 73.9014 162.555C73.9014 160.78 72.2463 159.341 70.2046 159.341C68.1629 159.341 66.5078 160.78 66.5078 162.555C66.5078 164.329 68.1629 165.768 70.2046 165.768Z" fill="#6D3C81"/>
<path d="M99.9142 174.858H69.2578V162.555H70.4901V173.787H99.9142V174.858Z" fill="#6D3C81"/>
<path d="M193.714 150.326H46.4688V151.397H193.714V150.326Z" fill="#6D3C81"/>
</svg>
