<?xml version="1.0" encoding="UTF-8"?>
<svg xmlns="http://www.w3.org/2000/svg" xmlns:xlink="http://www.w3.org/1999/xlink" width="272px" height="210px" viewBox="0 0 271 210" version="1.1">
<g id="surface1">
<path style=" stroke:none;fill-rule:nonzero;fill:rgb(83.92157%,83.92157%,89.019608%);fill-opacity:1;" d="M 26.386719 209.421875 C 26.363281 209.6875 26.558594 209.929688 26.828125 209.957031 L 246.980469 209.957031 C 247.238281 209.910156 247.425781 209.683594 247.425781 209.421875 C 247.425781 209.15625 247.238281 208.933594 246.980469 208.886719 L 26.828125 208.886719 C 26.558594 208.910156 26.363281 209.148438 26.386719 209.421875 Z M 26.386719 209.421875 "/>
<path style=" stroke:none;fill-rule:nonzero;fill:rgb(83.92157%,83.92157%,89.019608%);fill-opacity:1;" d="M 144.683594 156.695312 C 144.023438 161.28125 140.109375 164.683594 135.5 164.683594 C 130.890625 164.683594 126.980469 161.28125 126.316406 156.695312 L 102.824219 156.695312 L 102.824219 208.886719 L 168.175781 208.886719 L 168.175781 156.695312 Z M 144.683594 156.695312 "/>
<path style=" stroke:none;fill-rule:nonzero;fill:rgb(3.529412%,3.137255%,7.843138%);fill-opacity:1;" d="M 266.925781 158.035156 L 4.074219 158.035156 C 2.066406 158.03125 0.4375 156.394531 0.433594 154.375 L 0.433594 3.660156 C 0.4375 1.640625 2.066406 0.00390625 4.074219 0 L 266.925781 0 C 268.9375 0.00390625 270.5625 1.640625 270.566406 3.660156 L 270.566406 154.375 C 270.5625 156.394531 268.933594 158.03125 266.925781 158.035156 Z M 266.925781 158.035156 "/>
<path style=" stroke:none;fill-rule:nonzero;fill:rgb(100%,100%,100%);fill-opacity:1;" d="M 7.21875 6.109375 L 264.433594 6.109375 L 264.433594 151.925781 L 7.21875 151.925781 Z M 7.21875 6.109375 "/>
<path style=" stroke:none;fill-rule:nonzero;fill:rgb(90.196079%,90.196079%,90.196079%);fill-opacity:1;" d="M 7.1875 6.105469 L 47.707031 6.105469 L 47.707031 151.988281 L 7.1875 151.988281 Z M 7.1875 6.105469 "/>
<path style=" stroke:none;fill-rule:nonzero;fill:rgb(44.313726%,7.450981%,26.666668%);fill-opacity:1;" d="M 20.691406 11.535156 L 34.199219 11.535156 C 35.691406 11.535156 36.902344 12.75 36.902344 14.246094 C 36.902344 15.75 35.691406 16.960938 34.199219 16.960938 L 20.691406 16.960938 C 19.199219 16.960938 17.992188 15.75 17.992188 14.246094 C 17.992188 12.75 19.199219 11.535156 20.691406 11.535156 Z M 20.691406 11.535156 "/>
<path style=" stroke:none;fill-rule:nonzero;fill:rgb(83.92157%,83.92157%,89.019608%);fill-opacity:1;" d="M 103.421875 128.578125 C 102.863281 128.578125 102.410156 129.03125 102.410156 129.597656 L 102.410156 142.148438 C 102.410156 142.710938 102.863281 143.164062 103.421875 143.164062 L 208.773438 143.164062 C 209.335938 143.164062 209.789062 142.710938 209.789062 142.148438 L 209.789062 129.597656 C 209.789062 129.03125 209.335938 128.578125 208.773438 128.578125 L 103.421875 128.578125 M 103.421875 128.238281 L 208.773438 128.238281 C 209.519531 128.238281 210.125 128.847656 210.125 129.597656 L 210.125 142.148438 C 210.125 142.898438 209.519531 143.503906 208.773438 143.503906 L 103.421875 143.503906 C 102.675781 143.503906 102.070312 142.898438 102.070312 142.148438 L 102.070312 129.597656 C 102.070312 128.847656 102.675781 128.238281 103.421875 128.238281 Z M 103.421875 128.238281 "/>
<path style=" stroke:none;fill-rule:nonzero;fill:rgb(44.313726%,7.450981%,26.666668%);fill-opacity:1;" d="M 200.667969 131.972656 C 202.910156 131.972656 204.722656 133.792969 204.722656 136.042969 C 204.722656 138.289062 202.910156 140.113281 200.667969 140.113281 C 198.429688 140.113281 196.617188 138.289062 196.617188 136.042969 C 196.617188 133.792969 198.429688 131.972656 200.667969 131.972656 Z M 200.667969 131.972656 "/>
<path style=" stroke:none;fill-rule:nonzero;fill:rgb(90.196079%,90.196079%,90.196079%);fill-opacity:1;" d="M 110.175781 133.328125 L 177.707031 133.328125 C 179.199219 133.328125 180.410156 134.542969 180.410156 136.042969 C 180.410156 137.542969 179.199219 138.753906 177.707031 138.753906 L 110.175781 138.753906 C 108.683594 138.753906 107.472656 137.542969 107.472656 136.042969 C 107.472656 134.542969 108.683594 133.328125 110.175781 133.328125 Z M 110.175781 133.328125 "/>
<path style=" stroke:none;fill-rule:nonzero;fill:rgb(90.196079%,90.196079%,90.196079%);fill-opacity:1;" d="M 172.308594 55.976562 L 233.085938 55.976562 C 235.324219 55.976562 237.136719 57.796875 237.136719 60.050781 L 237.136719 88.546875 C 237.136719 90.792969 235.324219 92.617188 233.085938 92.617188 L 172.308594 92.617188 C 170.066406 92.617188 168.253906 90.792969 168.253906 88.546875 L 168.253906 60.050781 C 168.253906 57.796875 170.066406 55.976562 172.308594 55.976562 Z M 172.308594 55.976562 "/>
<path style=" stroke:none;fill-rule:nonzero;fill:rgb(44.313726%,7.450981%,26.666668%);fill-opacity:1;" d="M 61.210938 28.835938 L 123.34375 28.835938 C 124.835938 28.835938 126.042969 30.054688 126.042969 31.550781 C 126.042969 33.050781 124.835938 34.261719 123.34375 34.261719 L 61.210938 34.261719 C 59.722656 34.261719 58.511719 33.050781 58.511719 31.550781 C 58.511719 30.054688 59.722656 28.835938 61.210938 28.835938 Z M 61.210938 28.835938 "/>
<path style=" stroke:none;fill-rule:nonzero;fill:rgb(44.313726%,7.450981%,26.666668%);fill-opacity:1;" d="M 61.210938 36.976562 L 104.433594 36.976562 C 105.925781 36.976562 107.132812 38.195312 107.132812 39.695312 C 107.132812 41.191406 105.925781 42.40625 104.433594 42.40625 L 61.210938 42.40625 C 59.722656 42.40625 58.511719 41.191406 58.511719 39.695312 C 58.511719 38.195312 59.722656 36.976562 61.210938 36.976562 Z M 61.210938 36.976562 "/>
<path style=" stroke:none;fill-rule:nonzero;fill:rgb(44.313726%,7.450981%,26.666668%);fill-opacity:1;" d="M 61.210938 45.121094 L 123.34375 45.121094 C 124.835938 45.121094 126.042969 46.335938 126.042969 47.835938 C 126.042969 49.335938 124.835938 50.546875 123.34375 50.546875 L 61.210938 50.546875 C 59.722656 50.546875 58.511719 49.335938 58.511719 47.835938 C 58.511719 46.335938 59.722656 45.121094 61.210938 45.121094 Z M 61.210938 45.121094 "/>
<path style=" stroke:none;fill-rule:nonzero;fill:rgb(3.529412%,3.137255%,7.843138%);fill-opacity:1;" d="M 61.210938 98.042969 L 123.34375 98.042969 C 124.835938 98.042969 126.042969 99.261719 126.042969 100.757812 C 126.042969 102.257812 124.835938 103.476562 123.34375 103.476562 L 61.210938 103.476562 C 59.722656 103.476562 58.511719 102.257812 58.511719 100.757812 C 58.511719 99.261719 59.722656 98.042969 61.210938 98.042969 Z M 61.210938 98.042969 "/>
<path style=" stroke:none;fill-rule:nonzero;fill:rgb(3.529412%,3.137255%,7.843138%);fill-opacity:1;" d="M 61.210938 106.1875 L 104.433594 106.1875 C 105.925781 106.1875 107.132812 107.402344 107.132812 108.902344 C 107.132812 110.398438 105.925781 111.617188 104.433594 111.617188 L 61.210938 111.617188 C 59.722656 111.617188 58.511719 110.398438 58.511719 108.902344 C 58.511719 107.402344 59.722656 106.1875 61.210938 106.1875 Z M 61.210938 106.1875 "/>
<path style=" stroke:none;fill-rule:nonzero;fill:rgb(3.529412%,3.137255%,7.843138%);fill-opacity:1;" d="M 61.210938 114.328125 L 123.34375 114.328125 C 124.835938 114.328125 126.042969 115.546875 126.042969 117.042969 C 126.042969 118.542969 124.835938 119.757812 123.34375 119.757812 L 61.210938 119.757812 C 59.722656 119.757812 58.511719 118.542969 58.511719 117.042969 C 58.511719 115.546875 59.722656 114.328125 61.210938 114.328125 Z M 61.210938 114.328125 "/>
<path style=" stroke:none;fill-rule:nonzero;fill:rgb(90.196079%,90.196079%,90.196079%);fill-opacity:1;" d="M 168.253906 6.105469 L 237.136719 6.105469 L 237.136719 19.339844 C 237.136719 21.585938 235.324219 23.410156 233.085938 23.410156 L 172.308594 23.410156 C 170.066406 23.410156 168.253906 21.585938 168.253906 19.339844 Z M 168.253906 6.105469 "/>
</g>
</svg>
