<svg width="313" height="239" viewBox="0 0 313 239" fill="none" xmlns="http://www.w3.org/2000/svg">
<g clip-path="url(#clip0_734_7727)">
<path d="M240.364 221.717H98.6267C97.7481 221.717 96.9057 221.401 96.2843 220.839C95.663 220.278 95.3135 219.517 95.3125 218.723V131.281C95.3135 130.488 95.663 129.726 96.2843 129.165C96.9057 128.604 97.7481 128.288 98.6267 128.287H240.364C241.242 128.288 242.085 128.604 242.706 129.165C243.327 129.726 243.677 130.488 243.678 131.281V218.723C243.677 219.517 243.327 220.278 242.706 220.839C242.085 221.401 241.242 221.717 240.364 221.717Z" fill="white"/>
<path d="M240.364 221.717H98.6267C97.7481 221.717 96.9057 221.401 96.2843 220.839C95.663 220.278 95.3135 219.517 95.3125 218.723V131.281C95.3135 130.488 95.663 129.726 96.2843 129.165C96.9057 128.604 97.7481 128.288 98.6267 128.287H240.364C241.242 128.288 242.085 128.604 242.706 129.165C243.327 129.726 243.677 130.488 243.678 131.281V218.723C243.677 219.517 243.327 220.278 242.706 220.839C242.085 221.401 241.242 221.717 240.364 221.717ZM98.6267 128.953C97.9433 128.953 97.2881 129.199 96.8049 129.635C96.3216 130.072 96.0498 130.664 96.049 131.281V218.723C96.0498 219.341 96.3216 219.933 96.8049 220.369C97.2881 220.806 97.9433 221.051 98.6267 221.052H240.364C241.047 221.051 241.702 220.806 242.186 220.369C242.669 219.933 242.941 219.341 242.941 218.723V131.281C242.941 130.664 242.669 130.072 242.186 129.635C241.702 129.199 241.047 128.953 240.364 128.953H98.6267Z" fill="#3F3D56"/>
<path d="M185.9 221.192H153.086V172.111C153.087 170.947 153.6 169.831 154.511 169.008C155.422 168.185 156.657 167.722 157.946 167.721H181.04C182.329 167.722 183.564 168.185 184.475 169.008C185.386 169.831 185.899 170.947 185.9 172.111V221.192Z" fill="#738F98"/>
<path d="M232.634 109.648H213.895V81.3537C213.896 80.5598 214.245 79.7988 214.866 79.2374C215.488 78.6761 216.33 78.3603 217.209 78.3594H229.32C230.198 78.3603 231.041 78.6761 231.662 79.2374C232.283 79.7988 232.633 80.5598 232.634 81.3537V109.648Z" fill="white"/>
<path d="M232.634 109.648H213.895V81.3537C213.896 80.5598 214.245 79.7988 214.866 79.2374C215.488 78.6761 216.33 78.3603 217.209 78.3594H229.32C230.198 78.3603 231.041 78.6761 231.662 79.2374C232.283 79.7988 232.633 80.5598 232.634 81.3537V109.648ZM214.631 108.983H231.897V81.3537C231.897 80.7362 231.625 80.1443 231.142 79.7077C230.658 79.2711 230.003 79.0255 229.32 79.0248H217.209C216.525 79.0255 215.87 79.2711 215.387 79.7077C214.904 80.1443 214.632 80.7362 214.631 81.3537V108.983Z" fill="#3F3D56"/>
<path d="M126.98 121.563C146.909 121.563 163.065 106.966 163.065 88.9605C163.065 70.9549 146.909 56.3584 126.98 56.3584C107.05 56.3584 90.8945 70.9549 90.8945 88.9605C90.8945 106.966 107.05 121.563 126.98 121.563Z" fill="#435455" fill-opacity="0.5"/>
<path d="M223.825 73.399C220.575 73.3067 217.682 70.6288 217.659 67.6912C217.636 64.7537 220.486 62.0387 223.734 61.9045C230.967 61.6056 236.888 54.5935 235.296 48.2125C233.705 41.8315 225.027 37.7916 218.352 40.3241C213.231 42.2669 208.057 36.1457 209.355 31.267C210.652 26.3883 215.564 23.1122 220.108 20.2273C224.652 17.3424 229.512 13.9552 230.609 9.03635C231.706 4.11752 226.091 -1.77468 221.144 0.505403" fill="#435455" fill-opacity="0.5"/>
<path d="M139.228 181.977H111.51C110.404 181.976 109.344 181.579 108.563 180.873C107.781 180.166 107.341 179.209 107.34 178.21V157.564C107.341 156.565 107.781 155.607 108.563 154.901C109.344 154.195 110.404 153.798 111.51 153.796H139.228C140.334 153.798 141.394 154.195 142.176 154.901C142.958 155.607 143.397 156.565 143.399 157.564V178.21C143.397 179.209 142.958 180.166 142.176 180.873C141.394 181.579 140.334 181.976 139.228 181.977Z" fill="#435455" fill-opacity="0.5"/>
<path d="M228.123 181.977H200.405C199.299 181.976 198.239 181.579 197.457 180.873C196.675 180.166 196.236 179.209 196.234 178.21V157.564C196.236 156.565 196.675 155.607 197.457 154.901C198.239 154.195 199.299 153.798 200.405 153.796H228.123C229.229 153.798 230.289 154.195 231.07 154.901C231.852 155.607 232.292 156.565 232.293 157.564V178.21C232.292 179.209 231.852 180.166 231.07 180.873C230.289 181.579 229.229 181.976 228.123 181.977Z" fill="#435455" fill-opacity="0.5"/>
<path d="M84.7305 130.085V116.632C84.7305 115.598 85.0328 114.583 85.6069 113.689C86.181 112.796 87.0065 112.055 87.9996 111.542L170.736 68.8181C171.763 68.2878 172.931 68.0212 174.114 68.0471C175.296 68.0731 176.449 68.3905 177.446 68.9653L251.261 111.501C252.18 112.031 252.937 112.762 253.461 113.626C253.985 114.49 254.26 115.459 254.26 116.444V130.085C254.26 131.64 253.577 133.132 252.36 134.231C251.143 135.331 249.492 135.948 247.771 135.948H91.2196C89.4986 135.948 87.8481 135.331 86.6311 134.231C85.4141 133.132 84.7305 131.64 84.7305 130.085Z" fill="#435455"/>
<path opacity="0.2" d="M247.771 129.959H91.2196C89.4986 129.958 87.848 129.341 86.6311 128.241C85.4142 127.142 84.7305 125.651 84.7305 124.096V129.419C84.7305 130.974 85.4142 132.465 86.6311 133.565C87.848 134.664 89.4986 135.282 91.2196 135.282H247.771C249.492 135.282 251.143 134.664 252.36 133.565C253.577 132.465 254.26 130.974 254.26 129.419V124.096C254.26 125.651 253.577 127.142 252.36 128.241C251.143 129.341 249.492 129.958 247.771 129.959Z" fill="black"/>
<path d="M260.48 175.997C260.48 165.68 269.738 141.198 281.157 141.198C292.576 141.198 301.833 165.68 301.833 175.997C301.833 180.951 299.655 185.703 295.777 189.206C291.9 192.709 286.64 194.677 281.157 194.677C275.673 194.677 270.414 192.709 266.536 189.206C262.659 185.703 260.48 180.951 260.48 175.997Z" fill="#435455" fill-opacity="0.5"/>
<path d="M281.157 221.321C281.06 221.321 280.966 221.286 280.897 221.223C280.828 221.161 280.789 221.076 280.789 220.988V153.911C280.789 153.823 280.828 153.738 280.897 153.676C280.966 153.614 281.06 153.579 281.157 153.579C281.255 153.579 281.349 153.614 281.418 153.676C281.487 153.738 281.526 153.823 281.526 153.911V220.988C281.526 221.076 281.487 221.161 281.418 221.223C281.349 221.286 281.255 221.321 281.157 221.321Z" fill="#3F3D56"/>
<path d="M281.157 183.657C281.085 183.657 281.015 183.638 280.955 183.602C280.894 183.566 280.847 183.515 280.819 183.455C280.79 183.395 280.782 183.329 280.795 183.265C280.808 183.201 280.841 183.142 280.891 183.095L291.401 173.13C291.435 173.098 291.475 173.073 291.519 173.055C291.563 173.037 291.611 173.028 291.659 173.026C291.708 173.025 291.756 173.033 291.801 173.049C291.846 173.064 291.887 173.088 291.922 173.118C291.957 173.148 291.985 173.184 292.005 173.224C292.024 173.264 292.035 173.307 292.036 173.351C292.037 173.395 292.029 173.438 292.012 173.479C291.994 173.52 291.968 173.557 291.935 173.589L281.424 183.554C281.39 183.586 281.348 183.612 281.302 183.63C281.257 183.648 281.207 183.657 281.157 183.657Z" fill="#3F3D56"/>
<path d="M281.159 166.856C281.067 166.856 280.979 166.825 280.911 166.769L271.828 159.266C271.792 159.236 271.763 159.201 271.742 159.161C271.721 159.122 271.71 159.079 271.707 159.035C271.705 158.991 271.713 158.948 271.729 158.906C271.746 158.865 271.771 158.827 271.804 158.795C271.836 158.763 271.876 158.737 271.92 158.718C271.963 158.7 272.011 158.689 272.059 158.687C272.108 158.685 272.156 158.692 272.202 158.707C272.247 158.722 272.289 158.745 272.325 158.775L281.408 166.278C281.463 166.323 281.501 166.382 281.518 166.448C281.535 166.513 281.529 166.581 281.503 166.644C281.476 166.706 281.428 166.76 281.367 166.798C281.306 166.836 281.233 166.856 281.159 166.856Z" fill="#3F3D56"/>
<path d="M8.11328 155.469C8.11328 140.293 21.7309 104.279 38.529 104.279C55.3271 104.279 68.9447 140.293 68.9447 155.469C68.9447 162.757 65.7402 169.747 60.0362 174.901C54.3321 180.054 46.5957 182.949 38.529 182.949C30.4622 182.949 22.7259 180.054 17.0218 174.901C11.3178 169.747 8.11328 162.757 8.11328 155.469Z" fill="#738F98"/>
<path d="M38.5284 221.986C38.4307 221.986 38.3371 221.951 38.268 221.888C38.199 221.826 38.1602 221.741 38.1602 221.653V122.981C38.1602 122.892 38.1989 122.808 38.268 122.745C38.3371 122.683 38.4307 122.648 38.5284 122.648C38.6261 122.648 38.7197 122.683 38.7888 122.745C38.8579 122.808 38.8967 122.892 38.8967 122.981V221.653C38.8967 221.741 38.8579 221.826 38.7888 221.888C38.7197 221.951 38.6261 221.986 38.5284 221.986Z" fill="#3F3D56"/>
<path d="M38.5284 166.581C38.4563 166.581 38.3858 166.562 38.3256 166.526C38.2655 166.49 38.2183 166.439 38.1899 166.379C38.1615 166.319 38.1532 166.253 38.166 166.189C38.1788 166.125 38.2121 166.066 38.2619 166.018L53.7234 151.36C53.7908 151.296 53.8835 151.259 53.9812 151.256C54.0788 151.254 54.1734 151.287 54.2441 151.348C54.3148 151.409 54.3559 151.493 54.3582 151.581C54.3606 151.669 54.324 151.755 54.2566 151.819L38.795 166.478C38.7606 166.51 38.7193 166.536 38.6734 166.554C38.6276 166.572 38.5783 166.581 38.5284 166.581Z" fill="#3F3D56"/>
<path d="M38.5269 141.866C38.435 141.867 38.3464 141.835 38.2785 141.779L24.9166 130.742C24.8446 130.682 24.8016 130.599 24.7972 130.511C24.7929 130.423 24.8274 130.337 24.8934 130.272C24.9593 130.207 25.0511 130.168 25.1487 130.164C25.2462 130.16 25.3415 130.191 25.4136 130.251L38.7755 141.288C38.8303 141.334 38.8687 141.393 38.8856 141.458C38.9025 141.523 38.8972 141.592 38.8703 141.654C38.8434 141.717 38.7962 141.77 38.735 141.808C38.6737 141.846 38.6012 141.866 38.5269 141.866Z" fill="#3F3D56"/>
<path d="M266.714 221.288C266.749 221.312 266.786 221.334 266.821 221.358H296.763C297.35 219.21 297.557 217.06 296.681 215.193C295.432 212.532 291.737 210.872 288.799 212.014C288.103 212.292 287.496 212.726 287.037 213.274C285.889 211.417 283.829 210.017 281.452 210.019C278.474 210.02 275.997 212.221 275.189 214.763C273.888 212.778 271.318 211.391 268.805 211.988C264.603 212.986 263.276 218.887 266.714 221.288Z" fill="#435455" fill-opacity="0.5"/>
<path d="M9.48013 221.882C9.55044 221.931 9.6247 221.975 9.69591 222.023H70.1413C71.3258 217.688 71.744 213.348 69.9748 209.578C67.4541 204.208 59.9942 200.855 54.0633 203.162C52.6581 203.723 51.4341 204.598 50.5063 205.704C48.1886 201.956 44.031 199.13 39.2321 199.133C33.2198 199.137 28.2209 203.579 26.5895 208.71C23.9627 204.704 18.7739 201.904 13.7022 203.109C5.21973 205.123 2.54039 217.036 9.48013 221.882Z" fill="#435455" fill-opacity="0.5"/>
<path d="M312.998 220.972L0 221.589L0.00120946 222.254L313 221.638L312.998 220.972Z" fill="#3F3D56"/>
<path d="M105.621 207.513C105.696 207.25 105.706 206.976 105.65 206.709C105.595 206.442 105.475 206.189 105.3 205.969C105.125 205.748 104.898 205.565 104.636 205.432C104.374 205.299 104.083 205.22 103.783 205.199L92.0889 191.99L89.1953 194.426L101.549 207.045C101.545 207.502 101.726 207.945 102.059 208.289C102.392 208.633 102.853 208.855 103.355 208.913C103.857 208.971 104.365 208.86 104.782 208.602C105.2 208.344 105.498 207.957 105.621 207.513Z" fill="#FFB8B8"/>
<path d="M94.332 194.088L90.6362 196.645C90.531 196.718 90.4097 196.769 90.2806 196.796C90.1514 196.822 90.0175 196.824 89.8878 196.799C89.7581 196.775 89.6358 196.725 89.5292 196.654C89.4225 196.583 89.334 196.493 89.2698 196.388L87.0184 192.721C86.6096 192.233 86.4317 191.618 86.5237 191.012C86.6158 190.405 86.9702 189.856 87.5094 189.486C88.0485 189.115 88.7284 188.952 89.4 189.034C90.0716 189.115 90.6801 189.434 91.0921 189.92L94.4134 192.829C94.5084 192.912 94.5825 193.013 94.6305 193.125C94.6786 193.236 94.6994 193.356 94.6917 193.475C94.684 193.595 94.6479 193.711 94.5858 193.817C94.5237 193.923 94.4372 194.015 94.332 194.088Z" fill="#3F3D56"/>
<path d="M88.1255 186.113C90.7211 186.113 92.8253 184.212 92.8253 181.867C92.8253 179.522 90.7211 177.621 88.1255 177.621C85.5299 177.621 83.4258 179.522 83.4258 181.867C83.4258 184.212 85.5299 186.113 88.1255 186.113Z" fill="#FFB8B8"/>
<path d="M98.1561 236.945H100.502L100.279 232.979H96.8164L98.1561 236.945Z" fill="#FFB8B8"/>
<path d="M97.5586 236.254L102.179 236.253C102.565 236.253 102.948 236.322 103.305 236.456C103.663 236.59 103.987 236.785 104.261 237.032C104.534 237.279 104.751 237.573 104.899 237.895C105.047 238.218 105.123 238.564 105.123 238.913V239L97.5587 239L97.5586 236.254Z" fill="#2F2E41"/>
<path d="M73.1445 233.945L75.1404 235.059L77.2579 231.577L74.8429 230.212L73.1445 233.945Z" fill="#FFB8B8"/>
<path d="M73.039 233.072L76.9695 235.265C77.2984 235.449 77.5843 235.689 77.8104 235.973C78.0365 236.256 78.1987 236.577 78.2876 236.917C78.3765 237.257 78.3904 237.609 78.3286 237.954C78.2667 238.299 78.1303 238.629 77.9271 238.926L77.8768 239L71.4414 235.408L73.039 233.072Z" fill="#2F2E41"/>
<path d="M97.9869 235.782C97.8125 235.782 97.6423 235.734 97.4988 235.645C97.3553 235.555 97.2454 235.428 97.1837 235.281L88.698 216.951C88.6798 216.906 88.6482 216.867 88.6068 216.837C88.5653 216.808 88.5157 216.789 88.4633 216.783C88.4108 216.777 88.3577 216.785 88.3096 216.805C88.2615 216.824 88.2205 216.856 88.1909 216.895L76.5332 233.487C76.4192 233.641 76.2475 233.754 76.0495 233.803C75.8515 233.853 75.6403 233.837 75.4543 233.758L73.8592 233.085C73.6548 232.998 73.4963 232.843 73.4176 232.651C73.3388 232.46 73.346 232.249 73.4376 232.062L82.9884 212.828C82.7799 212.369 80.7458 207.663 83.8711 205.337L83.8929 205.325L92.3677 201.91L92.5814 207.783L101.028 234.262C101.06 234.362 101.07 234.466 101.056 234.569C101.043 234.672 101.007 234.772 100.95 234.862C100.893 234.952 100.817 235.031 100.726 235.094C100.635 235.158 100.531 235.204 100.42 235.23L98.2076 235.756C98.1356 235.774 98.0614 235.782 97.9869 235.782Z" fill="#060606"/>
<path d="M92.4944 193.318C92.1717 192.148 91.7143 190.969 91.1013 190.424C90.8759 190.226 90.664 190.015 90.467 189.793C90.0547 189.324 89.5359 188.94 88.9456 188.667C89.1616 188.558 89.2882 188.429 89.2882 188.289C89.2882 187.907 88.3458 187.598 87.1833 187.598C86.0208 187.598 85.0785 187.907 85.0785 188.289C85.0813 188.334 85.0939 188.377 85.1153 188.417C85.1368 188.457 85.1668 188.493 85.2036 188.522C84.4445 188.802 83.7849 189.264 83.2966 189.859C82.8083 190.454 82.5101 191.158 82.4344 191.896C82.1625 194.526 82.0832 197.889 83.0359 200.016C83.835 201.775 83.8986 203.736 83.2147 205.534C83.1683 205.659 83.1627 205.794 83.1984 205.922C83.2341 206.05 83.3096 206.166 83.4161 206.256C83.5226 206.347 83.6556 206.408 83.7992 206.432C83.9429 206.456 84.0912 206.443 84.2267 206.393L92.6359 203.331C92.7775 203.28 92.8988 203.191 92.9842 203.077C93.0696 202.963 93.1152 202.828 93.1152 202.69V198.04C93.1219 196.449 92.9135 194.863 92.4944 193.318Z" fill="#3F3D56"/>
<path d="M76.4067 212.47C76.6994 212.408 76.9737 212.29 77.2101 212.122C77.4466 211.955 77.6395 211.742 77.7754 211.5C77.9112 211.258 77.9866 210.992 77.9962 210.72C78.0058 210.449 77.9495 210.179 77.8312 209.929L84.4107 194.253L81.0741 193.475L74.9884 208.99C74.5375 209.197 74.1865 209.547 74.0019 209.972C73.8173 210.398 73.8118 210.87 73.9867 211.299C74.1615 211.728 74.5044 212.084 74.9504 212.3C75.3964 212.516 75.9146 212.576 76.4067 212.47Z" fill="#FFB8B8"/>
<path d="M84.3837 197.228L80.1677 195.445C80.0477 195.394 79.9413 195.321 79.8556 195.23C79.7699 195.138 79.707 195.032 79.6711 194.916C79.6353 194.801 79.6273 194.68 79.6478 194.562C79.6683 194.444 79.7168 194.331 79.7899 194.231L82.3522 190.735C82.6435 190.183 83.1651 189.757 83.8028 189.552C84.4406 189.346 85.1425 189.378 85.7549 189.638C86.3673 189.899 86.8403 190.369 87.0703 190.944C87.3004 191.52 87.2688 192.154 86.9824 192.708L85.6575 196.713C85.6195 196.827 85.5547 196.933 85.4673 197.023C85.3799 197.113 85.2721 197.185 85.1513 197.234C85.0304 197.283 84.8993 197.308 84.7668 197.307C84.6344 197.306 84.5037 197.279 84.3837 197.228Z" fill="#3F3D56"/>
<path d="M92.4392 180.822C92.6513 180.845 92.866 180.81 93.0558 180.722C93.4025 180.517 93.3683 180.051 93.251 179.692C92.9587 178.831 92.4311 178.051 91.7171 177.423C91.003 176.795 90.1254 176.34 89.1652 176.1C88.4961 175.939 87.6496 175.945 87.2668 176.466C86.3049 175.887 85.1453 175.639 83.9981 175.766C82.851 175.894 81.7923 176.388 81.0141 177.16C80.2536 177.966 79.7466 178.942 79.5461 179.986C79.1445 181.764 77.4247 185.43 78.3773 187.027C79.0113 188.09 81.9289 187.262 83.163 187.725C83.7777 187.967 84.4488 188.068 85.1169 188.019C85.7851 187.97 86.4296 187.773 86.9934 187.446C87.5452 187.102 87.9599 186.606 88.1764 186.033C88.3928 185.46 88.3995 184.839 88.1955 184.262C87.9795 183.838 87.7303 183.428 87.45 183.036C87.1686 182.639 87.0538 182.164 87.1264 181.698C87.2992 180.988 91.0086 180.796 92.4392 180.822Z" fill="#2F2E41"/>
</g>
<defs>
<clipPath id="clip0_734_7727">
<rect width="313" height="239" fill="white"/>
</clipPath>
</defs>
</svg>
