<svg width="327" height="248" viewBox="0 0 327 248" fill="none" xmlns="http://www.w3.org/2000/svg">
<path opacity="0.1" d="M288 40.6025C286.528 36.4265 284.539 32.5524 282.104 29.1161L200.296 28.1308L267.651 16.5649C263.3 14.4464 258.668 13.3227 253.985 13.2497C247.541 6.95325 239.608 3.36785 231.364 3.0268C223.12 2.68575 215.006 5.60729 208.23 11.3568C202.814 7.95315 196.811 6.18434 190.721 6.19834C172.544 6.19834 157.397 21.5889 154 42L288 40.6025Z" fill="black"/>
<path opacity="0.1" d="M286.669 49.2379C286.784 46.6824 286.109 44.1162 284.684 41.6786L155.921 44.5173C154.533 45.9527 153.451 47.5009 152.702 49.1244L192.303 54.5422L151.517 55.4759C152.279 66.1975 166.586 75.258 184.51 76.0344C193.531 76.4253 201.823 74.6453 208.047 71.4271C213.988 75.2386 222.17 77.7781 231.289 78.1731C244.82 78.7593 256.706 74.463 262.445 67.7547C273.45 66.0694 282.16 61.0161 285.355 54.3612L235.289 47.3181L286.656 49.5434C286.658 49.4412 286.665 49.34 286.669 49.2379Z" fill="#141414"/>
<path d="M91.249 248C131.153 248 163.502 242.829 163.502 236.449C163.502 230.07 131.153 224.898 91.249 224.898C51.3448 224.898 18.9961 230.07 18.9961 236.449C18.9961 242.829 51.3448 248 91.249 248Z" fill="#596753"/>
<path d="M165.973 162.039C162.724 162.834 159.388 161.288 159.388 161.288C159.388 161.288 156.542 158.075 154.142 157.64C151.742 157.205 150.813 161.008 149.387 161.986C148.4 162.672 141.283 162.182 136.973 161.815L136.232 161.75C136.159 161.697 136.085 161.641 136.006 161.592C136.006 161.592 131.868 160.35 131.005 159.251C130.143 158.152 124.379 156.119 122.59 156.237C120.801 156.355 115.514 156.634 115.514 156.634C115.514 156.634 113.442 154.334 112.506 154.573C111.57 154.812 108.317 154.554 108.317 154.554C108.317 154.554 107.423 152.313 106.529 149.1C106.112 147.601 104.724 146.548 103.365 145.856C104.587 141.82 102.41 130.31 95.6493 128.059C94.1755 127.569 93.4212 125.939 92.1671 125.045C91.0435 124.247 89.2038 122.366 90.1046 118.967C91.3777 114.208 94.5352 106.714 94.5352 106.714L96.8874 102.132C96.668 102.457 96.4187 102.761 96.1426 103.041C96.4609 102.644 96.7792 102.253 97.0529 101.924C99.4003 103.08 101.96 103.768 104.584 103.948C107.238 104.994 109.89 105.916 110.921 105.882C113.28 105.801 119.295 108.738 119.295 108.738C119.295 108.738 133.768 112.773 136.776 113.099C139.784 113.425 141.248 109.61 141.248 109.61C141.248 109.61 142.811 102.088 140.035 100.095C137.26 98.1025 135.646 107.235 135.646 107.235L116.711 100.58L115.543 99.9806C116.45 99.0447 117.17 97.9519 117.666 96.7584C117.959 96.0475 118.226 95.2342 118.923 94.8803C119.111 94.7894 119.313 94.7316 119.521 94.7095C119.694 94.6987 119.867 94.6987 120.04 94.7095C123.325 94.9051 126.148 97.4258 129.439 97.4382C129.56 97.4382 129.681 97.4382 129.802 97.4382C130.43 97.4364 131.042 97.2527 131.562 96.9105C131.856 96.6774 132.097 96.3879 132.272 96.06C132.446 95.7321 132.549 95.3728 132.575 95.0044C132.527 95.1043 132.474 95.2016 132.415 95.2962C132.501 94.8396 132.501 94.3715 132.415 93.9148C132.212 92.8252 131.629 91.8474 131.107 90.8633C130.96 90.6337 130.876 90.3704 130.865 90.0996C130.88 89.9583 130.924 89.8213 130.995 89.697C131.065 89.5727 131.161 89.4636 131.276 89.3763C131.281 89.4056 131.287 89.4346 131.295 89.4632C131.543 89.2356 131.819 89.0386 132.116 88.8765C132.921 88.362 133.608 87.6917 134.136 86.9072C134.664 86.1227 135.021 85.2409 135.185 84.3163C135.105 84.546 135.01 84.7726 134.908 84.9961C135.397 83.4203 135.278 81.7241 134.574 80.2279C134.391 79.8021 134.099 79.4291 133.727 79.1445C132.54 78.3312 130.945 79.1973 129.497 79.2904C128.224 79.3711 126.989 78.8155 125.84 78.2536C123.879 77.2944 121.928 76.2575 120.295 74.8389C118.439 73.2153 117.061 71.1447 115.387 69.3473C113.712 67.5499 111.564 65.9481 109.072 65.7681C104.542 65.4266 100.271 69.8037 95.9644 68.3757C93.8636 67.6834 92.4822 65.7898 91.0213 64.1631C89.5603 62.5365 87.5518 60.975 85.362 61.3258C83.8405 61.5741 82.5228 62.7258 80.9822 62.6824C80.177 62.6575 79.429 62.3068 78.6651 62.0615C76.8158 61.4562 74.2821 61.7511 73.6233 63.5454C73.4938 63.9108 73.4481 64.2995 73.4894 64.6841C73.5306 65.0687 73.6578 65.4397 73.862 65.7712C73.7646 65.9044 73.6774 66.0445 73.601 66.1902C73.4428 66.4746 73.3878 66.8028 73.445 67.1215C72.136 68.2675 71.166 69.7349 70.6362 71.3708C70.1064 73.0066 70.0361 74.7512 70.4327 76.4226C70.8293 78.0939 71.6782 79.631 72.891 80.8736C74.1038 82.1162 75.6361 83.0188 77.3282 83.4874C77.3887 83.7141 77.4492 83.9407 77.5065 84.1704C78.1239 86.7066 78.4454 89.5626 77.5319 91.4872C77.4746 91.6052 77.4142 91.7201 77.3473 91.8318L77.2677 91.866L77.1532 91.7511L76.4593 91.0433C76.4211 90.3045 75.9946 88.324 73.0281 84.6485C69.1226 79.8088 68.3905 71.7997 68.3905 71.7997C68.3905 71.7997 67.4165 67.6772 68.3905 66.4883C69.3645 65.2993 70.9942 52.2085 70.9942 52.2085L73.6869 44.8388C73.6869 44.8388 86.7784 31.8318 81.326 30.2486C77.6242 29.1714 73.2095 34.7219 70.7586 38.3912C69.5548 40.1929 68.7764 42.2329 68.4796 44.3639L61.0793 64.1104C61.0793 64.1104 60.3472 66.4914 61.0793 70.6139C61.8114 74.7364 63.4378 82.0346 63.4378 82.0346L67.5757 92.2633C67.5757 92.2633 69.1003 96.6808 68.9666 98.5992C68.7852 98.7141 68.1486 99.9434 67.598 101.061L67.1937 101.682L67.1651 101.933C66.8945 102.495 66.7067 102.899 66.7067 102.899C66.7067 102.899 64.4023 109.533 66.328 113.602C68.2536 117.672 68.33 119.56 68.33 119.56L69.7655 125.588L70.3639 130.865L75.5267 143.317L80.282 149.938C80.282 149.938 79.8364 154.815 78.8592 155.489C77.882 156.162 78.3308 159.652 78.3308 159.652L77.7197 168.809C77.7197 168.809 75.8099 171.547 75.689 175.986C75.568 180.426 74.8742 181.698 74.8742 181.698C74.8742 181.698 74.5559 185.424 75.4439 187.131C76.332 188.838 74.0211 190.62 74.0211 190.62L76.0041 197.26L75.2307 205.667C75.2307 205.667 75.5903 205.763 76.1855 205.909L76.0646 206.511L72.8307 222.436C72.8307 222.436 71.0833 226.801 71.0037 227.828L65.3508 237.784C65.3508 237.784 60.6337 242.344 62.8713 242.779C65.1089 243.213 71.6148 239.29 71.6148 239.29C71.6148 239.29 76.9813 233.658 79.0948 233.146C81.2082 232.634 83.5509 231.159 82.8761 229.02C82.2013 226.882 80.648 223.628 82.144 220.176C83.0989 218.003 85.1296 212.105 86.5238 207.989C86.6001 207.762 86.6733 207.545 86.7466 207.334C87.1153 207.301 87.4799 207.234 87.8351 207.132C91.2504 206.101 93.0392 206.822 93.0392 206.822L99.1378 182.754L100.478 170.678L109.018 177.626C110.707 179 112.805 179.809 115.002 179.932C118.366 180.125 123.615 180.6 127.415 181.745L129.007 175.282C129.007 175.282 133.558 175.443 134.535 173.935C134.933 173.314 135.325 172.786 135.646 172.382L136.385 172.271L156.529 169.232C160.269 169.232 165.394 166.77 165.394 166.77L168.526 166.177C168.526 166.177 173.199 165.264 173.619 164.51C174.039 163.756 169.229 161.25 165.973 162.039Z" fill="url(#paint0_linear_734_7631)"/>
<path d="M74.5649 65.1005C75.2015 63.3496 77.6905 63.0547 79.5016 63.6476C80.2464 63.8898 80.9817 64.2344 81.7679 64.2685C83.2766 64.312 84.5657 63.182 86.0553 62.943C88.1974 62.5953 90.1613 64.1226 91.5905 65.7151C93.0196 67.3076 94.3755 69.1609 96.4317 69.8407C100.643 71.2253 104.825 66.9537 109.256 67.2859C111.688 67.469 113.788 69.0305 115.428 70.7907C117.067 72.5508 118.416 74.5748 120.231 76.1642C121.822 77.5611 123.732 78.5763 125.658 79.5169C126.781 80.0663 127.981 80.6096 129.235 80.5289C130.655 80.4388 132.214 79.5976 133.373 80.3861C133.738 80.6649 134.023 81.0305 134.201 81.4477C135.627 84.341 134.477 88.1934 131.686 89.8946C131.199 90.1895 130.607 90.5154 130.578 91.0835C130.587 91.3489 130.669 91.6071 130.814 91.8316C131.323 92.794 131.896 93.7532 132.087 94.818C132.278 95.8828 132.02 97.109 131.132 97.7547C130.552 98.1308 129.864 98.3148 129.168 98.2793C125.947 98.2638 123.184 95.7958 119.97 95.6065C119.558 95.5606 119.142 95.6228 118.763 95.7865C118.082 96.1311 117.808 96.9289 117.531 97.6243C116.042 101.253 112.343 103.777 108.396 104.469C104.45 105.162 100.328 104.187 96.7946 102.337C96.5363 102.216 96.2989 102.057 96.0911 101.865C95.7962 101.515 95.5881 101.104 95.4832 100.663C94.401 97.3263 92.9368 93.8339 89.9385 91.9061C87.9937 90.6644 85.3551 89.966 84.4734 87.8706C83.9196 86.545 84.2665 85.0394 84.1264 83.6114C83.9886 82.3871 83.4994 81.2256 82.7151 80.2602C81.9308 79.2949 80.8832 78.5649 79.6926 78.1541C79.1706 77.9833 78.5977 77.8623 78.2157 77.4742C77.9056 77.0933 77.7076 76.6372 77.6428 76.1549C77.1685 74.0533 76.8534 71.8337 76.1914 69.7818C75.6853 68.1737 73.8869 66.9413 74.5649 65.1005Z" fill="#663D5B"/>
<g opacity="0.1">
<path d="M131.504 96.789C130.923 97.16 130.234 97.3395 129.54 97.3012C126.322 97.3012 123.56 94.8177 120.345 94.6315C119.934 94.5845 119.517 94.6456 119.139 94.8084C118.454 95.153 118.184 95.9508 117.907 96.6462C116.417 100.278 112.715 102.802 108.769 103.494C104.822 104.187 100.7 103.212 97.1699 101.362C96.9118 101.241 96.6745 101.082 96.4665 100.89C96.1721 100.54 95.9641 100.129 95.8585 99.6884C94.7763 96.3482 93.3122 92.8589 90.3138 90.9281C88.3659 89.6708 85.7272 88.991 84.8487 86.8925C84.2917 85.5638 84.6386 84.0582 84.5018 82.6333C84.3644 81.4084 83.875 80.2463 83.09 79.2808C82.305 78.3153 81.2563 77.5856 80.0647 77.176C79.5427 77.0052 78.9698 76.8811 78.5878 76.4961C78.2774 76.1145 78.0803 75.6571 78.0181 75.1737C77.5407 73.0752 77.2287 70.8525 76.5667 68.8037C76.1211 67.4316 74.7174 66.3202 74.7874 64.855C74.7462 64.9323 74.71 65.0122 74.6792 65.094C73.998 66.9349 75.7996 68.1673 76.312 69.7505C76.9741 71.7993 77.286 74.022 77.7635 76.1205C77.8256 76.6039 78.0227 77.0613 78.3332 77.4429C78.7152 77.8279 79.2881 77.9521 79.8101 78.1228C81.0021 78.5327 82.0511 79.2628 82.8361 80.2289C83.6212 81.195 84.1103 82.3578 84.2471 83.5833C84.384 85.0081 84.037 86.5137 84.5941 87.8424C85.4726 89.9502 88.1112 90.6362 90.0592 91.878C93.0512 93.812 94.5153 97.2981 95.6039 100.638C95.7094 101.079 95.9174 101.49 96.2118 101.84C96.4198 102.032 96.6571 102.191 96.9152 102.312C100.445 104.174 104.554 105.133 108.514 104.444C112.473 103.755 116.153 101.228 117.652 97.5961C117.939 96.9007 118.203 96.1029 118.884 95.7584C119.263 95.5955 119.679 95.5344 120.09 95.5814C123.305 95.7708 126.068 98.2387 129.286 98.2511C129.981 98.2866 130.669 98.1038 131.25 97.7296C131.537 97.5022 131.774 97.2195 131.945 96.899C132.116 96.5786 132.217 96.2273 132.243 95.867C132.082 96.2311 131.828 96.5487 131.504 96.789Z" fill="black"/>
<path d="M132.056 88.9197C131.569 89.2301 130.974 89.5405 130.946 90.1086C130.943 90.2226 130.961 90.3362 131 90.4439C131.242 90.2207 131.511 90.0278 131.802 89.8696C132.589 89.3666 133.262 88.7111 133.778 87.9436C134.295 87.1762 134.644 86.3133 134.803 85.4087C134.333 86.8542 133.362 88.0953 132.056 88.9197Z" fill="black"/>
</g>
<path d="M82.8939 218.369C81.4202 221.747 82.9352 224.926 83.61 227.024C84.2848 229.123 81.9804 230.554 79.9115 231.06C77.8425 231.566 72.5907 237.073 72.5907 237.073C72.5907 237.073 66.2248 240.913 64.0349 240.488C61.845 240.062 66.4603 235.598 66.4603 235.598L71.9923 225.857C72.0719 224.851 73.7811 220.58 73.7811 220.58L76.9449 204.996L77.3651 202.925L88.5818 202.264C88.5818 202.264 87.993 204.04 87.1813 206.439C85.8158 210.475 83.8169 216.261 82.8939 218.369Z" fill="#E3B8B8" fill-opacity="0.94"/>
<path d="M172.414 163.898C172.017 164.637 167.443 165.528 167.443 165.528L164.377 166.109C164.377 166.109 159.364 168.517 155.704 168.517L135.989 171.495L133.344 171.895V160.986C133.344 160.986 134.674 161.123 136.559 161.297C140.77 161.657 147.737 162.135 148.701 161.465C150.096 160.496 151.009 156.771 153.355 157.199C155.701 157.628 158.489 160.769 158.489 160.769C158.489 160.769 161.752 162.281 164.934 161.505C168.117 160.729 172.812 163.159 172.414 163.898Z" fill="#E3B8B8" fill-opacity="0.94"/>
<path opacity="0.1" d="M136.686 170.65C136.686 170.65 136.403 170.96 135.989 171.491L133.344 171.892V160.986C133.344 160.986 134.674 161.123 136.559 161.297C139.722 163.734 136.686 170.65 136.686 170.65Z" fill="black"/>
<path d="M98.6094 168.129L109.199 176.747C110.853 178.092 112.906 178.883 115.056 179.004C118.347 179.193 123.484 179.656 127.215 180.779L128.768 174.453C128.768 174.453 133.224 174.608 134.179 173.133C134.74 172.263 135.364 171.433 136.047 170.65C136.047 170.65 139.272 163.318 135.611 161.067C135.611 161.067 131.553 159.863 130.716 158.776C129.879 157.69 124.232 155.712 122.481 155.827C120.731 155.942 115.559 156.215 115.559 156.215C115.559 156.215 113.528 153.964 112.614 154.197C111.701 154.43 108.515 154.197 108.515 154.197C108.515 154.197 107.639 152.002 106.764 148.858C105.889 145.713 100.678 144.589 100.678 144.589L98.6094 168.129Z" fill="#060606"/>
<path opacity="0.1" d="M98.6094 168.129L109.199 176.747C110.853 178.092 112.906 178.883 115.056 179.004C118.347 179.193 123.484 179.656 127.215 180.779L128.768 174.453C128.768 174.453 133.224 174.608 134.179 173.133C134.74 172.263 135.364 171.433 136.047 170.65C136.047 170.65 139.272 163.318 135.611 161.067C135.611 161.067 131.553 159.863 130.716 158.776C129.879 157.69 124.232 155.712 122.481 155.827C120.731 155.942 115.559 156.215 115.559 156.215C115.559 156.215 113.528 153.964 112.614 154.197C111.701 154.43 108.515 154.197 108.515 154.197C108.515 154.197 107.639 152.002 106.764 148.858C105.889 145.713 100.678 144.589 100.678 144.589L98.6094 168.129Z" fill="#060606"/>
<path d="M93.8736 90.8694L92.7023 91.0836H92.6291L92.4572 91.1146L90.4519 91.4778L89.8344 92.1918L89.809 92.2167L87.826 94.5076L86.155 96.1063L86.139 96.125L84.7258 97.466L82.3354 99.785L81.9344 100.75L81.0622 102.889L80.8363 103.433L78.449 105.916L76.9244 109.098L73.3595 111.116L69.5241 109.175L67.7734 106.692L68.1713 103.135L68.2509 102.424L69.419 100.595L70.4789 98.9313L72.5479 96.0598L76.5265 93.4211L77.2395 93.238L78.0384 93.0331C78.0995 92.9482 78.1558 92.8601 78.2071 92.7692C78.2745 92.6601 78.3351 92.5471 78.3886 92.4308C79.283 90.5496 78.9679 87.7527 78.3631 85.2723C77.8996 83.4168 77.2855 81.6003 76.5265 79.8398L87.0303 78.3652C87.0303 78.3652 86.9284 80.352 86.9284 83.4501C86.9284 84.2262 86.9284 85.0674 86.9507 85.9677C87.0016 88.7616 89.6626 89.9722 91.671 90.4875C92.1882 90.622 92.7133 90.7256 93.2434 90.798C93.6317 90.857 93.8736 90.8694 93.8736 90.8694Z" fill="#E3B8B8" fill-opacity="0.94"/>
<path d="M77.3226 92.3343C77.3226 92.3343 77.8 90.4718 73.9805 85.7377C70.1609 81.0036 69.4448 73.1652 69.4448 73.1652C69.4448 73.1652 68.4899 69.1296 69.4448 67.9655C70.3997 66.8014 71.9911 53.9962 71.9911 53.9962L74.6171 46.7786C74.6171 46.7786 87.4284 34.051 82.097 32.4988C78.4748 31.4434 74.1396 36.879 71.7556 40.4676C70.578 42.231 69.817 44.2276 69.5275 46.313L62.2831 65.6373C62.2831 65.6373 61.567 67.9655 62.2831 72.0011C62.9993 76.0367 64.5908 83.1766 64.5908 83.1766L68.649 93.1973C68.649 93.1973 70.7848 99.437 69.6771 100.198L72.1503 96.6307L77.3226 92.3343Z" fill="#E3B8B8" fill-opacity="0.94"/>
<path d="M140.742 110.193C140.742 110.193 139.31 113.919 136.366 113.608C133.421 113.298 119.257 109.34 119.257 109.34C119.257 109.34 113.369 106.468 111.061 106.546C108.754 106.624 98.1703 101.812 98.1703 101.812C98.1703 101.812 97.4254 102.768 96.5947 103.774C95.6907 104.876 94.6849 106.04 94.4303 106.08C93.9529 106.158 86.5525 107.167 86.5525 107.167L81.5394 104.916L81.0619 102.889L80.8359 101.958L81.9468 100.75L83.4078 99.1639L86.1483 96.1155L86.1642 96.0968L89.8214 92.2195L89.8469 92.1947L92.1895 91.2634L92.6415 91.0834H92.7147C92.9948 91.0368 94.0706 90.9406 95.5125 91.7353C96.5166 92.2898 97.6316 92.6266 98.7814 92.7224C101.07 92.8817 103.237 93.787 104.934 95.2928L116.711 101.337L135.252 107.856C135.252 107.856 136.843 98.9311 139.549 100.871C142.254 102.811 140.742 110.193 140.742 110.193Z" fill="#E3B8B8" fill-opacity="0.94"/>
<path opacity="0.1" d="M96.595 103.774C95.6911 104.876 94.6852 106.04 94.4306 106.081C93.9532 106.158 86.5528 107.167 86.5528 107.167L81.5397 104.916L81.0622 102.889L80.8363 103.433L78.449 105.916L76.9244 109.098L73.3595 111.116L69.5241 109.176L67.7734 106.692L68.1713 103.135C68.3718 102.712 68.9193 101.564 69.419 100.595C69.6551 100.062 69.9519 99.5555 70.3039 99.0866C70.6222 98.8817 70.9564 96.6807 70.9564 96.6807C72.4014 92.6172 77.2427 91.9932 77.2427 91.9932L78.0162 92.701L78.3535 93.0425C78.2167 93.0207 78.379 92.732 78.2039 92.7786C77.9239 92.8562 77.7997 93.2691 77.44 93.4957C75.4825 94.7374 72.4237 97.6337 71.2142 99.0089C70.9214 99.3411 70.619 99.6671 70.3102 99.9837C68.5628 101.787 68.8843 104.178 68.8843 104.178C68.4482 106.04 72.306 107.437 72.306 107.437C73.3818 105.693 80.6612 100.881 80.6612 100.881L85.5629 95.5259C87.0653 92.9742 90.0191 91.2885 91.6678 90.5C92.3967 90.1524 92.8741 89.9785 92.8741 89.9785L94.7075 90.7422C94.2235 90.6157 93.7112 90.6374 93.2402 90.8043C92.9696 90.8859 92.7066 90.9897 92.454 91.1147C92.3585 91.1613 92.263 91.2109 92.1739 91.2637C91.6725 91.5476 91.2013 91.8793 90.767 92.254L86.6483 96.6404C83.5004 99.9899 85.8717 105.407 90.5283 105.485H90.5697C93.4153 106.124 95.4555 104.839 96.595 103.774Z" fill="black"/>
<path opacity="0.1" d="M88.5822 202.273C88.5822 202.273 87.9933 204.049 87.1817 206.449C84.0687 206.675 78.9283 205.502 76.9453 205.005L77.3655 202.935L88.5822 202.273Z" fill="black"/>
<path d="M78.3574 93.0424L77.3388 92.0242C77.3388 92.0242 73.6625 92.5146 71.3804 96.3454C71.3804 96.3454 70.3141 99.2168 69.9862 99.4217C69.6584 99.6266 67.7741 103.64 67.7741 103.64C67.7741 103.64 65.5206 110.132 67.4017 114.118C69.2828 118.103 69.3656 119.938 69.3656 119.938L70.7724 125.836L71.3549 131.008L76.4094 143.192L81.0629 149.659C81.0629 149.659 80.6268 154.43 79.6719 155.091C78.7171 155.752 79.1531 159.164 79.1531 159.164L78.5579 168.129C78.5579 168.129 76.6863 170.805 76.5686 175.151C76.4508 179.497 75.7728 180.739 75.7728 180.739C75.7728 180.739 75.4545 184.387 76.3299 186.057C77.2052 187.727 74.9357 189.471 74.9357 189.471L76.8869 195.95L76.1293 204.177C76.1293 204.177 85.1212 206.623 88.4632 205.614C91.8053 204.605 93.556 205.303 93.556 205.303L99.524 181.739L101.593 163.231C101.593 163.231 101.714 150.115 103.503 146.117C105.037 142.702 103.025 130.536 96.115 128.239C94.6732 127.761 93.9411 126.165 92.7093 125.29C91.608 124.511 89.8096 122.67 90.6913 119.342C91.9263 114.686 95.0297 107.353 95.0297 107.353L97.3277 102.889C97.3277 102.889 94.8291 106.832 90.2552 105.823H90.2139C85.5572 105.742 83.1859 100.325 86.3339 96.9786L90.4526 92.5891C90.4526 92.5891 92.722 90.5496 94.3931 91.0649L92.5629 90.3013C92.5629 90.3013 87.4097 92.1639 85.2421 95.8487L80.3404 101.204C80.3404 101.204 73.0673 105.994 71.9915 107.751C71.9915 107.751 68.1338 106.354 68.5698 104.491C68.5698 104.491 68.2515 102.098 69.9958 100.294C70.3141 99.9836 70.6069 99.6545 70.8997 99.3224C72.4689 97.5343 76.8073 92.7909 78.3574 93.0424Z" fill="#060606"/>
<path opacity="0.1" d="M78.9554 125.017C78.9554 125.017 77.8 133.206 78.6753 134.873L78.9554 125.017Z" fill="black"/>
<path opacity="0.1" d="M79.7109 128.199L80.9459 132.896C80.9459 132.896 81.382 130.024 79.7109 128.199Z" fill="black"/>
<path opacity="0.1" d="M72.3906 127.103C72.3906 127.103 74.8574 139.054 77.5629 142.664L72.3906 127.103Z" fill="black"/>
<path opacity="0.1" d="M89.7799 141.51C89.7799 141.51 85.5625 145.39 83.9297 145.108C83.9297 145.108 90.4165 145.381 92.4441 142.044C92.4441 142.053 91.1327 141.122 89.7799 141.51Z" fill="black"/>
<path opacity="0.1" d="M95.6243 141.199C95.6243 141.199 90.2133 145.039 89.1406 145.39C89.1406 145.39 94.9877 143.76 95.6243 141.199Z" fill="black"/>
<path opacity="0.1" d="M77.3239 112.677C77.3239 112.677 74.6184 116.055 73.2656 115.667C73.2656 115.667 76.5695 115.782 77.3239 112.677Z" fill="black"/>
<path opacity="0.1" d="M80.3867 117.023C80.3867 117.023 86.2752 109.225 89.0602 109.535C89.0602 109.535 82.3761 115.201 80.3867 117.023Z" fill="black"/>
<path opacity="0.1" d="M88.5436 114.186C88.5436 114.186 84.8036 116.014 85.2015 116.548C85.5994 117.082 88.5436 114.186 88.5436 114.186Z" fill="black"/>
<path opacity="0.1" d="M91.2469 174.065C91.2469 174.065 78.7538 181.168 77.6016 181.515C77.6016 181.515 79.75 183.108 81.7776 182.332C83.8051 181.556 91.2469 174.065 91.2469 174.065Z" fill="black"/>
<path opacity="0.1" d="M80.7863 188.85C80.7863 188.85 75.7732 188.344 75.9705 189.937C76.1679 191.529 80.7863 188.85 80.7863 188.85Z" fill="black"/>
<path opacity="0.1" d="M87.0311 78.3652C87.0311 78.3652 86.9292 80.352 86.9292 83.4501C85.7506 84.3921 84.3598 85.0481 82.8709 85.3643C81.382 85.6806 79.8374 85.648 78.3639 85.2692C77.9004 83.4137 77.2863 81.5972 76.5273 79.8367L87.0311 78.3652Z" fill="black"/>
<path d="M80.8237 84.9744C86.1414 84.9744 90.4521 80.7701 90.4521 75.5839C90.4521 70.3976 86.1414 66.1934 80.8237 66.1934C75.5061 66.1934 71.1953 70.3976 71.1953 75.5839C71.1953 80.7701 75.5061 84.9744 80.8237 84.9744Z" fill="#E3B8B8" fill-opacity="0.94"/>
<path opacity="0.1" d="M83.3498 81.3144C83.6203 85.1544 84.4479 89.547 87.8664 91.4779C90.3364 92.8717 93.4493 92.5054 96.1834 91.7107C98.9176 90.916 101.594 89.7301 104.44 89.5967C106.627 89.4942 108.788 90.0188 110.968 90.1523C113.149 90.2858 115.536 89.9537 117.092 88.4574C119.32 86.3278 118.913 82.4568 116.803 80.2185C114.692 77.9803 111.392 77.167 108.266 77.2508C104.446 77.3533 100.181 78.4926 97.1606 76.2326C95.1331 74.7115 94.366 72.0728 92.6599 70.2134C89.8112 67.1091 77.2131 62.6264 74.5458 67.6865C73.2949 70.055 78.9796 71.7469 80.2973 73.4605C82.379 76.1643 83.1015 77.7693 83.3498 81.3144Z" fill="black"/>
<path d="M83.6427 80.982C83.9165 84.8251 84.7409 89.2177 88.1593 91.1455C90.6293 92.5393 93.7422 92.173 96.4764 91.3814C99.2105 90.5898 101.887 89.4008 104.736 89.2674C106.92 89.1649 109.081 89.6864 111.264 89.823C113.448 89.9596 115.829 89.6244 117.385 88.1281C119.613 85.9954 119.206 82.1275 117.096 79.8892C114.985 77.651 111.685 76.8377 108.562 76.9215C104.743 77.0209 100.474 78.1632 97.4536 75.9002C95.426 74.3791 94.6589 71.7435 92.9529 69.881C90.1041 66.7767 77.506 62.2971 74.8387 67.3572C73.5878 69.7226 79.2726 71.4145 80.5935 73.1312C82.672 75.8319 83.3945 77.4337 83.6427 80.982Z" fill="#663D5B"/>
<path opacity="0.1" d="M72.0664 107.434C72.2141 106.209 72.6281 105.029 73.2807 103.972C73.9333 102.915 74.8096 102.006 75.8509 101.306" fill="black"/>
<path opacity="0.1" d="M108.166 156.06C108.136 156.364 108.06 156.662 107.94 156.945C107.523 158.163 107.021 159.353 106.438 160.505C107.287 160.434 107.988 159.782 108.347 159.031C108.662 158.258 108.835 157.437 108.86 156.606C108.891 156.347 108.898 156.085 108.882 155.824C108.86 155.582 108.701 154.657 108.29 154.821C107.959 154.958 108.172 155.815 108.166 156.06Z" fill="black"/>
<path opacity="0.1" d="M117.958 87.1567C116.398 88.653 114.018 88.9882 111.834 88.8517C109.651 88.7151 107.48 88.1935 105.306 88.2991C102.441 88.4326 99.7867 89.6184 97.0493 90.4131C94.312 91.2078 91.2022 91.5741 88.7291 90.1803C85.3138 88.2494 84.4862 83.8568 84.2157 80.0168C83.9674 76.4717 83.2417 74.8668 81.1632 72.1629C79.906 70.5269 74.6859 68.9127 75.2843 66.7148C75.1114 66.913 74.9619 67.1296 74.8387 67.3605C73.5878 69.726 79.2726 71.4179 80.5935 73.1345C82.672 75.8353 83.3945 77.4433 83.6427 80.9853C83.9165 84.8285 84.7409 89.2211 88.1593 91.1488C90.6293 92.5427 93.7422 92.1764 96.4764 91.3848C99.2105 90.5932 101.887 89.4042 104.736 89.2707C106.92 89.1683 109.081 89.6898 111.264 89.8264C113.448 89.963 115.829 89.6277 117.385 88.1315C117.827 87.7037 118.179 87.1953 118.42 86.6352C118.28 86.8203 118.125 86.9947 117.958 87.1567Z" fill="black"/>
<path d="M71.3752 115.384L70.207 117.867L73.9215 117.144L71.3752 115.384Z" fill="#E3B8B8" fill-opacity="0.94"/>
<path opacity="0.1" d="M71.3752 115.384L70.4139 117.867H70.207L71.3752 115.384Z" fill="black"/>
<path opacity="0.1" d="M163.292 228.104C170.5 228.104 176.342 227.322 176.342 226.357C176.342 225.391 170.5 224.609 163.292 224.609C156.085 224.609 150.242 225.391 150.242 226.357C150.242 227.322 156.085 228.104 163.292 228.104Z" fill="#596753"/>
<path opacity="0.1" d="M213.281 233.047C220.488 233.047 226.331 232.264 226.331 231.299C226.331 230.334 220.488 229.551 213.281 229.551C206.073 229.551 200.23 230.334 200.23 231.299C200.23 232.264 206.073 233.047 213.281 233.047Z" fill="#596753"/>
<path opacity="0.1" d="M272.159 226.357C279.367 226.357 285.21 225.574 285.21 224.609C285.21 223.644 279.367 222.861 272.159 222.861C264.952 222.861 259.109 223.644 259.109 224.609C259.109 225.574 264.952 226.357 272.159 226.357Z" fill="#596753"/>
<path opacity="0.1" d="M193.271 246.615C198.394 246.615 202.546 246.059 202.546 245.374C202.546 244.688 198.394 244.132 193.271 244.132C188.149 244.132 183.996 244.688 183.996 245.374C183.996 246.059 188.149 246.615 193.271 246.615Z" fill="#596753"/>
<path opacity="0.1" d="M245.154 245.374C250.277 245.374 254.429 244.818 254.429 244.132C254.429 243.446 250.277 242.89 245.154 242.89C240.032 242.89 235.879 243.446 235.879 244.132C235.879 244.818 240.032 245.374 245.154 245.374Z" fill="#596753"/>
<path d="M213.562 230.908C213.562 230.908 195.26 172.392 216.427 148.954C232.259 131.421 250.233 133.52 258.283 135.686C260.366 136.227 262.303 137.204 263.961 138.547C265.618 139.891 266.956 141.571 267.883 143.469C270.696 149.392 270.19 158.99 250.325 170.219C217.064 189 214.995 214.766 214.995 214.766L213.562 230.908Z" fill="#596753"/>
<path d="M255.42 143.987C255.42 143.987 201.469 160.44 213.564 230.908" stroke="#060606" stroke-miterlimit="10"/>
<path d="M223.906 149.885C223.906 149.885 231.332 154.768 228.973 162.104" stroke="#060606" stroke-miterlimit="10"/>
<path d="M250.008 154.231C250.008 154.231 245.466 149.724 239.938 152.21" stroke="#060606" stroke-miterlimit="10"/>
<path d="M228.684 176.893C228.684 176.893 220.707 172.944 218.645 177.889" stroke="#060606" stroke-miterlimit="10"/>
<path d="M208.949 185.119C208.949 185.119 214.936 184.653 215.045 187.447" stroke="#060606" stroke-miterlimit="10"/>
<path d="M212.836 231.374C212.836 231.374 234.27 188.845 240.158 189.776C242.956 190.217 244.245 192.902 244.828 195.596C245.547 199.084 245.133 202.704 243.644 205.952C240.604 212.754 232.433 225.677 212.836 231.374Z" fill="#596753"/>
<path d="M239.986 197.847C239.986 197.847 217.489 229.666 213.141 231.063" stroke="#060606" stroke-miterlimit="10"/>
<path d="M242.053 202.813H236.801" stroke="#060606" stroke-miterlimit="10"/>
<path d="M235.762 214.455L227.531 214.8" stroke="#060606" stroke-miterlimit="10"/>
<path d="M230.754 205.142L231.648 209.324" stroke="#060606" stroke-miterlimit="10"/>
<path d="M222 217.87L222.159 221.669" stroke="#060606" stroke-miterlimit="10"/>
<path d="M213.475 231.374C213.475 231.374 192.041 188.845 186.153 189.776C183.355 190.217 182.066 192.902 181.483 195.596C180.754 199.081 181.157 202.701 182.635 205.952C185.675 212.754 193.846 225.677 213.475 231.374Z" fill="#596753"/>
<path d="M186.293 197.847C186.293 197.847 208.79 229.666 213.138 231.063" stroke="#060606" stroke-miterlimit="10"/>
<path d="M184.223 202.813H189.475" stroke="#060606" stroke-miterlimit="10"/>
<path d="M190.516 214.455L198.747 214.8" stroke="#060606" stroke-miterlimit="10"/>
<path d="M195.52 205.142L194.629 209.324" stroke="#060606" stroke-miterlimit="10"/>
<path d="M204.276 217.87L204.117 221.669" stroke="#060606" stroke-miterlimit="10"/>
<path d="M250.261 241.304C250.846 240.841 251.272 240.215 251.483 239.51C251.639 238.796 251.327 237.942 250.63 237.681C249.847 237.39 249.01 237.917 248.376 238.451C247.743 238.985 247.014 239.597 246.183 239.482C246.61 239.104 246.929 238.625 247.109 238.091C247.289 237.558 247.325 236.987 247.211 236.437C247.177 236.208 247.078 235.993 246.925 235.816C246.492 235.362 245.703 235.558 245.181 235.915C243.525 237.051 243.064 239.243 243.058 241.217C242.889 240.503 243.029 239.761 243.026 239.044C243.023 238.327 242.816 237.492 242.185 237.113C241.796 236.903 241.357 236.796 240.912 236.803C240.167 236.778 239.34 236.849 238.831 237.38C238.194 238.038 238.363 239.147 238.913 239.864C239.464 240.581 240.298 241.043 241.065 241.546C241.684 241.903 242.211 242.392 242.606 242.977C242.653 243.058 242.691 243.143 242.72 243.232H247.383C248.427 242.719 249.395 242.07 250.261 241.304Z" fill="#596753"/>
<path d="M168.595 224.177C169.18 223.713 169.605 223.086 169.814 222.38C169.974 221.666 169.662 220.828 168.961 220.552C168.178 220.26 167.344 220.787 166.708 221.324C166.071 221.862 165.346 222.467 164.518 222.355C164.944 221.975 165.263 221.494 165.442 220.959C165.621 220.424 165.654 219.852 165.54 219.3C165.504 219.072 165.405 218.857 165.253 218.68C164.817 218.226 164.031 218.419 163.509 218.776C161.854 219.912 161.392 222.104 161.383 224.078C161.217 223.367 161.357 222.625 161.354 221.905C161.351 221.185 161.144 220.353 160.511 219.971C160.12 219.766 159.681 219.665 159.238 219.679C158.496 219.651 157.665 219.723 157.159 220.253C156.522 220.915 156.691 222.02 157.239 222.737C157.786 223.454 158.623 223.917 159.393 224.419C160.01 224.778 160.535 225.267 160.931 225.851C160.979 225.932 161.017 226.019 161.045 226.108H165.712C166.757 225.593 167.727 224.944 168.595 224.177Z" fill="#596753"/>
<path d="M195.804 241.304C196.389 240.841 196.816 240.215 197.027 239.51C197.183 238.796 196.871 237.942 196.174 237.681C195.391 237.39 194.553 237.917 193.92 238.451C193.287 238.985 192.558 239.597 191.727 239.482C192.154 239.105 192.474 238.626 192.655 238.092C192.835 237.558 192.871 236.988 192.758 236.437C192.724 236.208 192.625 235.993 192.472 235.816C192.039 235.362 191.249 235.558 190.727 235.915C189.072 237.051 188.611 239.243 188.604 241.217C188.436 240.503 188.576 239.761 188.573 239.044C188.569 238.327 188.363 237.492 187.732 237.113C187.343 236.903 186.904 236.796 186.459 236.803C185.714 236.778 184.887 236.849 184.378 237.38C183.741 238.038 183.91 239.147 184.46 239.864C185.011 240.581 185.845 241.043 186.612 241.546C187.23 241.903 187.757 242.392 188.152 242.977C188.199 243.058 188.238 243.143 188.267 243.232H192.93C193.973 242.718 194.94 242.07 195.804 241.304Z" fill="#596753"/>
<path d="M272.993 206.682C272.993 206.682 274.744 208.911 272.188 212.269C269.632 215.628 267.525 218.478 268.369 220.577C268.369 220.577 272.226 214.324 275.371 214.238C278.516 214.151 276.46 210.441 272.993 206.682Z" fill="#596753"/>
<path opacity="0.1" d="M272.996 206.682C273.149 206.896 273.269 207.132 273.352 207.38C276.418 210.888 278.047 214.163 275.103 214.247C272.363 214.321 269.075 219.105 268.285 220.313C268.311 220.405 268.342 220.496 268.377 220.586C268.377 220.586 272.235 214.334 275.38 214.247C278.525 214.16 276.462 210.441 272.996 206.682Z" fill="black"/>
<path d="M276.257 209.522C276.257 210.308 276.168 210.944 276.057 210.944C275.945 210.944 275.859 210.298 275.859 209.522C275.859 208.746 275.971 209.109 276.082 209.109C276.194 209.109 276.257 208.746 276.257 209.522Z" fill="#FFD037"/>
<path d="M277.375 210.46C276.668 210.835 276.05 211.062 276 210.969C275.949 210.876 276.474 210.491 277.18 210.115C277.887 209.739 277.61 210.013 277.661 210.115C277.712 210.217 278.088 210.084 277.375 210.46Z" fill="#FFD037"/>
<path d="M263.763 206.682C263.763 206.682 262.013 208.911 264.568 212.269C267.124 215.628 269.231 218.478 268.388 220.577C268.388 220.577 264.533 214.324 261.386 214.238C258.238 214.151 260.319 210.441 263.763 206.682Z" fill="#596753"/>
<path opacity="0.1" d="M263.766 206.682C263.613 206.896 263.492 207.132 263.407 207.38C260.345 210.888 258.715 214.163 261.656 214.247C264.4 214.321 267.703 219.105 268.477 220.313C268.451 220.406 268.419 220.497 268.381 220.586C268.381 220.586 264.527 214.334 261.379 214.247C258.231 214.16 260.322 210.441 263.766 206.682Z" fill="black"/>
<path d="M260.52 209.522C260.52 210.308 260.612 210.944 260.723 210.944C260.835 210.944 260.924 210.308 260.924 209.522C260.924 208.737 260.812 209.109 260.701 209.109C260.59 209.109 260.52 208.746 260.52 209.522Z" fill="#FFD037"/>
<path d="M259.407 210.46C260.114 210.835 260.728 211.062 260.782 210.969C260.836 210.876 260.308 210.491 259.601 210.115C258.895 209.739 259.172 210.013 259.118 210.115C259.064 210.217 258.701 210.084 259.407 210.46Z" fill="#FFD037"/>
<path d="M261.078 220.294C261.078 220.294 265.967 220.148 267.444 219.124C268.921 218.099 274.965 216.879 275.331 218.521C275.697 220.164 282.678 226.683 277.158 226.726C271.639 226.77 264.334 225.888 262.864 225.013C261.393 224.137 261.078 220.294 261.078 220.294Z" fill="#A8A8A8"/>
<path opacity="0.2" d="M277.254 226.155C271.735 226.199 264.427 225.317 262.956 224.442C261.839 223.777 261.39 221.39 261.244 220.288H261.078C261.078 220.288 261.396 224.134 262.861 225.007C264.325 225.879 271.636 226.764 277.155 226.72C278.747 226.72 279.297 226.155 279.269 225.336C279.043 225.835 278.438 226.146 277.254 226.155Z" fill="black"/>
<defs>
<linearGradient id="paint0_linear_734_7631" x1="117.201" y1="242.804" x2="117.201" y2="30.1027" gradientUnits="userSpaceOnUse">
<stop stop-color="#808080" stop-opacity="0.25"/>
<stop offset="0.54" stop-color="#808080" stop-opacity="0.12"/>
<stop offset="1" stop-color="#808080" stop-opacity="0.1"/>
</linearGradient>
</defs>
</svg>
