<svg width="344" height="216" viewBox="0 0 344 216" fill="none" xmlns="http://www.w3.org/2000/svg">
<g clip-path="url(#clip0_734_7573)">
<path d="M21.6393 45.2751C17.3594 45.2751 13.1757 43.9475 9.61715 41.46C6.05859 38.9726 3.28503 35.4371 1.6472 31.3006C0.009376 27.1641 -0.419154 22.6124 0.415802 18.2212C1.25076 13.8299 3.31171 9.79631 6.33801 6.6304C9.36432 3.46448 13.2201 1.30846 17.4177 0.434984C21.6153 -0.438491 25.9662 0.00980854 29.9203 1.72319C33.8743 3.43657 37.2539 6.33809 39.6317 10.0608C42.0094 13.7835 43.2786 18.1603 43.2786 22.6376C43.2721 28.6393 40.9901 34.3933 36.9334 38.6372C32.8767 42.8811 27.3764 45.2683 21.6393 45.2751ZM21.6393 0.943244C17.5378 0.943244 13.5284 2.21559 10.1181 4.5994C6.70779 6.9832 4.04979 10.3714 2.48021 14.3355C0.910624 18.2996 0.499951 22.6616 1.30012 26.8699C2.10028 31.0782 4.07535 34.9438 6.97556 37.9778C9.87577 41.0118 13.5709 43.078 17.5936 43.915C21.6163 44.7521 25.7859 44.3225 29.5752 42.6805C33.3646 41.0385 36.6033 38.2579 38.882 34.6903C41.1607 31.1227 42.3769 26.9283 42.3769 22.6376C42.3707 16.8859 40.1838 11.3716 36.2961 7.30457C32.4084 3.2375 27.1373 0.949763 21.6393 0.943244Z" fill="#F2F2F2"/>
<path d="M168.605 32.0697C166.465 32.0697 164.373 31.4058 162.594 30.1621C160.814 28.9184 159.428 27.1507 158.609 25.0824C157.79 23.0142 157.576 20.7384 157.993 18.5427C158.411 16.3471 159.441 14.3303 160.954 12.7473C162.467 11.1644 164.395 10.0864 166.494 9.64962C168.593 9.21288 170.768 9.43703 172.745 10.2937C174.722 11.1504 176.412 12.6012 177.601 14.4625C178.79 16.3239 179.424 18.5123 179.424 20.7509C179.421 23.7518 178.28 26.6288 176.252 28.7507C174.223 30.8727 171.473 32.0663 168.605 32.0697ZM168.605 10.3754C166.643 10.3754 164.726 10.9839 163.095 12.124C161.464 13.264 160.192 14.8845 159.442 16.7804C158.691 18.6762 158.495 20.7624 158.877 22.7751C159.26 24.7877 160.205 26.6365 161.592 28.0875C162.979 29.5386 164.746 30.5267 166.67 30.9271C168.594 31.3274 170.588 31.122 172.4 30.3367C174.213 29.5514 175.762 28.2215 176.851 26.5153C177.941 24.809 178.523 22.803 178.523 20.7509C178.52 18.0001 177.474 15.3628 175.615 13.4177C173.755 11.4726 171.234 10.3785 168.605 10.3754Z" fill="#F2F2F2"/>
<path d="M244.793 87.249C242.386 87.249 240.032 86.5022 238.031 85.103C236.029 83.7038 234.469 81.7151 233.548 79.3883C232.626 77.0616 232.385 74.5012 232.855 72.0312C233.325 69.5611 234.484 67.2922 236.186 65.5113C237.889 63.7305 240.057 62.5177 242.419 62.0264C244.78 61.5351 247.227 61.7873 249.451 62.751C251.675 63.7148 253.576 65.3469 254.914 67.4409C256.251 69.535 256.965 71.9969 256.965 74.5154C256.962 77.8914 255.678 81.128 253.396 83.5152C251.114 85.9024 248.02 87.2452 244.793 87.249ZM244.793 62.725C242.564 62.725 240.385 63.4165 238.532 64.712C236.678 66.0076 235.234 67.849 234.381 70.0034C233.528 72.1578 233.304 74.5284 233.739 76.8156C234.174 79.1027 235.248 81.2035 236.824 82.8524C238.4 84.5014 240.408 85.6243 242.594 86.0792C244.781 86.5341 247.047 86.3007 249.106 85.4083C251.166 84.5159 252.926 83.0047 254.164 81.0658C255.403 79.1268 256.064 76.8473 256.064 74.5154C256.06 71.3894 254.872 68.3926 252.759 66.1822C250.646 63.9718 247.781 62.7285 244.793 62.725Z" fill="#F2F2F2"/>
<path d="M343.549 216H242.115C241.995 216 241.881 215.95 241.796 215.862C241.712 215.773 241.664 215.653 241.664 215.528C241.664 215.403 241.712 215.283 241.796 215.195C241.881 215.106 241.995 215.057 242.115 215.057H343.549C343.669 215.057 343.783 215.106 343.868 215.195C343.952 215.283 344 215.403 344 215.528C344 215.653 343.952 215.773 343.868 215.862C343.783 215.95 343.669 216 343.549 216Z" fill="#1D1C1C"/>
<path d="M288.936 72.2737C295.051 72.2737 300.008 67.0876 300.008 60.6903C300.008 54.293 295.051 49.1069 288.936 49.1069C282.821 49.1069 277.863 54.293 277.863 60.6903C277.863 67.0876 282.821 72.2737 288.936 72.2737Z" fill="#FFB8B8"/>
<path d="M290.088 198.241L284.855 200.1L275.508 179.868L283.232 177.124L290.088 198.241Z" fill="#FFB8B8"/>
<path d="M280.609 199.864L290.701 196.277L292.86 202.925L276.412 208.769C276.129 207.896 276.013 206.974 276.07 206.054C276.128 205.134 276.358 204.234 276.747 203.407C277.137 202.58 277.679 201.842 278.341 201.234C279.004 200.626 279.774 200.16 280.609 199.864Z" fill="#2F2E41"/>
<path d="M301.908 209.668L296.389 209.959L292.691 187.823L300.839 187.395L301.908 209.668Z" fill="#FFB8B8"/>
<path d="M292.367 208.516L303.013 207.957L303.349 214.969L286.001 215.881C285.957 214.96 286.086 214.039 286.382 213.17C286.678 212.302 287.135 211.503 287.726 210.819C288.317 210.135 289.031 209.58 289.827 209.185C290.624 208.79 291.487 208.563 292.367 208.516Z" fill="#2F2E41"/>
<path d="M269.06 136.122C269.555 135.661 269.947 135.092 270.209 134.456C270.471 133.819 270.597 133.13 270.577 132.437C270.557 131.744 270.391 131.064 270.093 130.445C269.794 129.826 269.37 129.283 268.849 128.854L274.112 112.925L266.001 115.094L262.247 129.887C261.616 130.85 261.345 132.022 261.485 133.18C261.625 134.338 262.166 135.402 263.006 136.171C263.846 136.939 264.926 137.359 266.042 137.35C267.158 137.341 268.231 136.904 269.06 136.122Z" fill="#FFB8B8"/>
<path d="M301.393 202.995C301.322 202.995 301.251 202.991 301.18 202.983L293.687 202.153C293.226 202.104 292.796 201.891 292.468 201.55C292.14 201.209 291.934 200.76 291.884 200.279L286.094 146.274L281.904 161.052L289.716 190.096C289.795 190.392 289.812 190.702 289.766 191.005C289.72 191.309 289.611 191.598 289.447 191.853C289.284 192.108 289.069 192.323 288.818 192.483C288.567 192.643 288.286 192.744 287.995 192.779L280.399 193.692C279.916 193.748 279.429 193.621 279.027 193.335C278.625 193.048 278.334 192.62 278.207 192.129L269.908 159.444C269.84 159.176 269.822 158.896 269.858 158.62L273.588 129.286L301.409 131.62L303.421 200.808C303.429 201.092 303.383 201.374 303.285 201.639C303.187 201.904 303.039 202.146 302.85 202.35C302.661 202.554 302.434 202.716 302.184 202.827C301.934 202.938 301.665 202.995 301.393 202.995Z" fill="#2F2E41"/>
<path d="M291.776 136.636C282.455 136.636 271.902 132.868 271.263 132.637L271.078 132.57L281.593 76.125L281.787 76.1333C285.954 76.3101 297.326 76.4009 297.441 76.4018L297.645 76.4034L302.028 126.215L302.811 133.501L302.715 133.582C300.034 135.85 296.034 136.636 291.776 136.636Z" fill="#060606"/>
<path d="M274.937 131.758L268.359 128.986L271.712 86.5673C271.792 85.5215 272.096 84.508 272.602 83.6017C273.107 82.6953 273.8 81.9192 274.63 81.3307L278.091 78.8667C277.993 78.5183 277.976 78.1506 278.04 77.7937C278.104 77.4369 278.249 77.1011 278.461 76.8139C278.673 76.5266 278.948 76.2962 279.262 76.1415C279.576 75.9868 279.921 75.9123 280.268 75.9239L281.259 75.9573C281.447 75.8244 281.67 75.7542 281.897 75.7559C282.124 75.7576 282.345 75.8311 282.532 75.9668C282.719 76.1025 282.862 76.294 282.942 76.5163C283.023 76.7385 283.038 76.9811 282.984 77.2121L282.766 81.7063L274.937 131.758Z" fill="#2F2E41"/>
<path d="M271.619 124.153L263.031 123.775L265.813 105.055L268.118 87.4411C268.164 86.8085 268.345 86.1949 268.649 85.6461C268.953 85.0972 269.371 84.6273 269.873 84.2715C270.375 83.9157 270.947 83.6832 271.547 83.5913C272.147 83.4994 272.759 83.5505 273.338 83.7409C274.238 84.0366 275.011 84.6545 275.52 85.4864C276.029 86.3183 276.242 87.311 276.121 88.2906L273.786 107.376L271.619 124.153Z" fill="#2F2E41"/>
<path d="M285.218 132.406L285.16 132.217C285.12 132.088 281.25 119.101 287.726 103.604L290.973 86.7076L293.748 76.0987C293.8 75.9091 293.894 75.7348 294.021 75.5896C294.149 75.4445 294.307 75.3325 294.484 75.2625C294.691 75.1875 294.914 75.1779 295.127 75.235C295.339 75.2921 295.531 75.4132 295.678 75.5834C297.612 74.9895 299.691 75.207 301.475 76.1899L305.372 78.3376C306.239 78.8151 306.929 79.5799 307.336 80.5122C307.742 81.4444 307.841 82.4914 307.618 83.489L302.291 107.269L304.881 129.481L285.218 132.406Z" fill="#2F2E41"/>
<path d="M290.888 123.251C291.547 123.326 292.214 123.249 292.841 123.025C293.468 122.801 294.041 122.436 294.519 121.956C294.997 121.475 295.368 120.891 295.607 120.245C295.845 119.598 295.946 118.904 295.9 118.212L307.962 108.865L303.746 106.773L290.739 113.783C289.634 113.939 288.621 114.515 287.894 115.4C287.167 116.285 286.775 117.419 286.794 118.586C286.812 119.753 287.239 120.873 287.994 121.733C288.748 122.592 289.778 123.133 290.888 123.251Z" fill="#FFB8B8"/>
<path d="M298.449 119.066L294.375 111.111L304.422 104.193L299.519 85.7954C299.323 85.0588 299.274 84.2878 299.375 83.5304C299.476 82.7731 299.726 82.0457 300.108 81.3938C300.49 80.7418 300.996 80.1792 301.595 79.7412C302.195 79.3031 302.874 78.999 303.59 78.8478C304.856 78.5838 306.171 78.8095 307.291 79.4829C308.41 80.1563 309.258 81.2318 309.676 82.5095L316.292 102.853C316.428 103.272 316.436 103.725 316.314 104.149C316.191 104.573 315.946 104.946 315.61 105.217L298.449 119.066Z" fill="#2F2E41"/>
<path d="M289.721 63.1473C288.393 63.328 287.392 61.9073 286.928 60.594C286.463 59.2807 286.109 57.7518 284.955 57.0424C283.379 56.0732 281.361 57.2389 279.559 56.9191C277.522 56.558 276.199 54.3006 276.095 52.1429C275.991 49.9852 276.812 47.9099 277.617 45.9206L277.898 48.3929C277.861 47.5549 278.029 46.7209 278.388 45.9706C278.746 45.2203 279.283 44.5788 279.946 44.1074L279.584 47.7352C279.661 47.2347 279.832 46.755 280.087 46.3238C280.342 45.8925 280.675 45.5181 281.069 45.2221C281.462 44.9261 281.907 44.7142 282.379 44.5988C282.851 44.4833 283.34 44.4664 283.818 44.5492L283.761 46.7107C286.113 46.4182 288.485 46.1252 290.844 46.3481C293.202 46.571 295.578 47.3517 297.365 48.9767C300.039 51.4075 301.016 55.41 300.688 59.1001C300.36 62.7902 298.904 66.2567 297.387 69.6054C297.005 70.448 296.477 71.3987 295.591 71.506C294.796 71.6025 294.068 70.9068 293.82 70.1099C293.63 69.2923 293.637 68.4379 293.842 67.624C294.066 66.3803 294.348 65.1089 294.137 63.8626C293.927 62.6163 293.07 61.3846 291.869 61.2319C290.668 61.0792 289.439 62.5153 290.017 63.6274L289.721 63.1473Z" fill="#2F2E41"/>
<path d="M144.853 190.333L140.543 188.435L137.586 165.831H98.2117L95.0068 188.342L91.1507 190.359C90.9662 190.456 90.8182 190.615 90.7308 190.81C90.6434 191.006 90.6216 191.226 90.669 191.436C90.7164 191.646 90.8302 191.833 90.992 191.967C91.1537 192.101 91.354 192.174 91.5602 192.174H144.498C144.709 192.174 144.914 192.098 145.078 191.958C145.241 191.817 145.354 191.623 145.395 191.406C145.437 191.189 145.406 190.964 145.307 190.768C145.208 190.573 145.048 190.419 144.853 190.333Z" fill="#1D1C1C"/>
<path d="M214.824 168.838H21.4054C20.3906 168.836 19.4181 168.413 18.7014 167.661C17.9846 166.91 17.582 165.891 17.582 164.83V136.297H218.647V164.83C218.647 165.891 218.244 166.91 217.528 167.661C216.811 168.413 215.838 168.836 214.824 168.838Z" fill="#1D1C1C"/>
<path d="M218.85 149.782H17.4062V27.6967C17.4077 26.4155 17.8948 25.1872 18.7609 24.2812C19.6269 23.3753 20.8011 22.8657 22.0258 22.8643H214.23C215.455 22.8657 216.629 23.3753 217.495 24.2812C218.361 25.1872 218.848 26.4155 218.85 27.6967V149.782Z" fill="#3F3D56"/>
<path d="M206.817 140.921H29.4363C28.4921 140.92 27.5869 140.527 26.9193 139.829C26.2516 139.131 25.8761 138.184 25.875 137.196V35.4508C25.8761 34.4631 26.2516 33.5161 26.9192 32.8176C27.5869 32.1191 28.4921 31.7262 29.4363 31.7251H206.817C207.761 31.7262 208.667 32.1191 209.334 32.8176C210.002 33.5161 210.377 34.4631 210.378 35.4508V137.196C210.377 138.184 210.002 139.131 209.334 139.829C208.667 140.527 207.761 140.92 206.817 140.921Z" fill="white"/>
<path d="M205.146 192.41H33.3844C33.2648 192.41 33.1502 192.36 33.0656 192.272C32.9811 192.183 32.9336 192.063 32.9336 191.938C32.9336 191.813 32.9811 191.693 33.0656 191.605C33.1502 191.516 33.2648 191.467 33.3844 191.467H205.146C205.266 191.467 205.38 191.516 205.465 191.605C205.549 191.693 205.597 191.813 205.597 191.938C205.597 192.063 205.549 192.183 205.465 192.272C205.38 192.36 205.266 192.41 205.146 192.41Z" fill="#1D1C1C"/>
<path d="M190.152 128.28H46.0993C45.9797 128.28 45.865 128.23 45.7805 128.142C45.6959 128.053 45.6484 127.933 45.6484 127.808V55.5785C45.6484 55.4535 45.6959 55.3335 45.7805 55.2451C45.865 55.1566 45.9797 55.1069 46.0993 55.1069C46.2188 55.1069 46.3335 55.1566 46.418 55.2451C46.5026 55.3335 46.5501 55.4535 46.5501 55.5785V127.336H190.152C190.271 127.336 190.386 127.386 190.47 127.475C190.555 127.563 190.602 127.683 190.602 127.808C190.602 127.933 190.555 128.053 190.47 128.142C190.386 128.23 190.271 128.28 190.152 128.28Z" fill="#3F3D56"/>
<path d="M76.8779 123.092H63.7758C63.421 123.091 63.0808 122.944 62.8299 122.681C62.5791 122.419 62.4379 122.063 62.4375 121.692V102.797C62.4379 102.426 62.5791 102.07 62.8299 101.808C63.0808 101.545 63.421 101.398 63.7758 101.397H76.8779C77.2327 101.398 77.5728 101.545 77.8237 101.808C78.0746 102.07 78.2157 102.426 78.2161 102.797V121.692C78.2157 122.063 78.0746 122.419 77.8237 122.681C77.5728 122.944 77.2327 123.091 76.8779 123.092Z" fill="#060606"/>
<path d="M100.772 123.092H87.6703C87.3155 123.091 86.9754 122.944 86.7245 122.681C86.4736 122.419 86.3325 122.063 86.332 121.692V84.876C86.3325 84.5048 86.4736 84.149 86.7245 83.8865C86.9754 83.6241 87.3155 83.4765 87.6703 83.4761H100.772C101.127 83.4765 101.467 83.6241 101.718 83.8865C101.969 84.149 102.11 84.5048 102.111 84.876V121.692C102.11 122.063 101.969 122.419 101.718 122.681C101.467 122.944 101.127 123.091 100.772 123.092Z" fill="#060606"/>
<path d="M124.667 123.092H111.565C111.21 123.091 110.87 122.944 110.619 122.681C110.368 122.419 110.227 122.063 110.227 121.692V102.797C110.227 102.426 110.368 102.07 110.619 101.808C110.87 101.545 111.21 101.398 111.565 101.397H124.667C125.022 101.398 125.362 101.545 125.613 101.808C125.864 102.07 126.005 102.426 126.005 102.797V121.692C126.005 122.063 125.864 122.419 125.613 122.681C125.362 122.944 125.022 123.091 124.667 123.092Z" fill="#060606"/>
<path d="M148.558 123.092H135.455C135.109 123.099 134.773 122.963 134.522 122.713C134.272 122.462 134.126 122.118 134.117 121.755V77.7382C134.126 77.3755 134.272 77.0312 134.522 76.7807C134.773 76.5302 135.109 76.3939 135.455 76.4017H148.558C148.904 76.3939 149.24 76.5302 149.491 76.7807C149.741 77.0312 149.887 77.3755 149.896 77.7382V121.755C149.887 122.118 149.741 122.462 149.491 122.713C149.24 122.963 148.904 123.099 148.558 123.092Z" fill="#060606"/>
<path d="M172.452 123.092H159.35C158.995 123.091 158.655 122.944 158.404 122.681C158.153 122.419 158.012 122.063 158.012 121.692V65.0678C158.012 64.6967 158.153 64.3409 158.404 64.0784C158.655 63.816 158.995 63.6684 159.35 63.668H172.452C172.807 63.6684 173.147 63.816 173.398 64.0784C173.649 64.3409 173.79 64.6967 173.79 65.0678V121.692C173.79 122.063 173.649 122.419 173.398 122.681C173.147 122.944 172.807 123.091 172.452 123.092Z" fill="#060606"/>
<path d="M70.326 95.738C71.8199 95.738 73.0309 94.4711 73.0309 92.9083C73.0309 91.3455 71.8199 90.0786 70.326 90.0786C68.8321 90.0786 67.6211 91.3455 67.6211 92.9083C67.6211 94.4711 68.8321 95.738 70.326 95.738Z" fill="#3F3D56"/>
<path d="M94.2205 77.3449C95.7144 77.3449 96.9254 76.078 96.9254 74.5152C96.9254 72.9524 95.7144 71.6855 94.2205 71.6855C92.7267 71.6855 91.5156 72.9524 91.5156 74.5152C91.5156 76.078 92.7267 77.3449 94.2205 77.3449Z" fill="#3F3D56"/>
<path d="M118.115 95.738C119.609 95.738 120.82 94.4711 120.82 92.9083C120.82 91.3455 119.609 90.0786 118.115 90.0786C116.621 90.0786 115.41 91.3455 115.41 92.9083C115.41 94.4711 116.621 95.738 118.115 95.738Z" fill="#3F3D56"/>
<path d="M142.01 68.3845C143.503 68.3845 144.715 67.1176 144.715 65.5548C144.715 63.992 143.503 62.7251 142.01 62.7251C140.516 62.7251 139.305 63.992 139.305 65.5548C139.305 67.1176 140.516 68.3845 142.01 68.3845Z" fill="#3F3D56"/>
<path d="M165.9 58.0085C167.394 58.0085 168.605 56.7416 168.605 55.1788C168.605 53.616 167.394 52.3491 165.9 52.3491C164.406 52.3491 163.195 53.616 163.195 55.1788C163.195 56.7416 164.406 58.0085 165.9 58.0085Z" fill="#3F3D56"/>
<path d="M118.173 93.542L94.2225 74.7755L70.5996 93.2854L70.0586 92.5309L94.2225 73.5969L118.059 92.2743L141.745 65.1573L141.841 65.1168L165.734 55.0459L166.071 55.9207L142.273 65.9515L118.173 93.542Z" fill="#3F3D56"/>
<path d="M21.6393 45.2751C17.3594 45.2751 13.1757 43.9475 9.61715 41.46C6.05859 38.9726 3.28503 35.4371 1.6472 31.3006C0.009376 27.1641 -0.419154 22.6124 0.415802 18.2212C1.25076 13.8299 3.31171 9.79631 6.33801 6.6304C9.36432 3.46448 13.2201 1.30846 17.4177 0.434984C21.6153 -0.438491 25.9662 0.00980854 29.9203 1.72319C33.8743 3.43657 37.2539 6.33809 39.6317 10.0608C42.0094 13.7835 43.2786 18.1603 43.2786 22.6376C43.2721 28.6393 40.9901 34.3933 36.9334 38.6372C32.8767 42.8811 27.3764 45.2683 21.6393 45.2751ZM21.6393 0.943244C17.5378 0.943244 13.5284 2.21559 10.1181 4.5994C6.70779 6.9832 4.04979 10.3714 2.48021 14.3355C0.910624 18.2996 0.499951 22.6616 1.30012 26.8699C2.10028 31.0782 4.07535 34.9438 6.97556 37.9778C9.87577 41.0118 13.5709 43.078 17.5936 43.915C21.6163 44.7521 25.7859 44.3225 29.5752 42.6805C33.3646 41.0385 36.6033 38.2579 38.882 34.6903C41.1607 31.1227 42.3769 26.9283 42.3769 22.6376C42.3707 16.8859 40.1838 11.3716 36.2961 7.30457C32.4084 3.2375 27.1373 0.949763 21.6393 0.943244Z" fill="#F2F2F2"/>
</g>
<defs>
<clipPath id="clip0_734_7573">
<rect width="344" height="216" fill="white"/>
</clipPath>
</defs>
</svg>
