<?xml version="1.0" encoding="UTF-8"?>
<svg xmlns="http://www.w3.org/2000/svg" xmlns:xlink="http://www.w3.org/1999/xlink" width="16px" height="16px" viewBox="0 0 16 16" version="1.1">
<g id="surface1">
<path style=" stroke:none;fill-rule:nonzero;fill:rgb(99.607843%,91.764706%,5.490196%);fill-opacity:1;" d="M 0 0 C 5.28125 0 10.558594 0 16 0 C 16 5.28125 16 10.558594 16 16 C 10.71875 16 5.441406 16 0 16 C 0 10.71875 0 5.441406 0 0 Z M 0 0 "/>
<path style=" stroke:none;fill-rule:nonzero;fill:rgb(5.882353%,6.666667%,7.843138%);fill-opacity:1;" d="M 6.785156 5.527344 C 7.601562 5.527344 8.417969 5.527344 9.257812 5.527344 C 9.160156 5.726562 9.160156 5.726562 9.109375 5.808594 C 9.035156 5.941406 8.960938 6.078125 8.886719 6.214844 C 8.8125 6.351562 8.738281 6.488281 8.660156 6.625 C 8.632812 6.675781 8.601562 6.730469 8.574219 6.78125 C 8.53125 6.859375 8.488281 6.9375 8.445312 7.015625 C 8.371094 7.152344 8.296875 7.289062 8.222656 7.429688 C 8.148438 7.566406 8.074219 7.703125 7.996094 7.839844 C 7.964844 7.890625 7.9375 7.945312 7.90625 7.996094 C 7.871094 8.0625 7.835938 8.128906 7.800781 8.191406 C 7.777344 8.230469 7.757812 8.269531 7.738281 8.308594 C 7.722656 8.335938 7.707031 8.359375 7.691406 8.386719 C 7.65625 8.453125 7.621094 8.523438 7.582031 8.589844 C 7.519531 8.714844 7.453125 8.835938 7.382812 8.957031 C 7.359375 9.003906 7.332031 9.054688 7.304688 9.101562 C 7.261719 9.183594 7.214844 9.265625 7.167969 9.34375 C 7.082031 9.5 6.996094 9.65625 6.910156 9.8125 C 6.847656 9.929688 6.78125 10.046875 6.71875 10.164062 C 6.710938 10.175781 6.703125 10.1875 6.695312 10.203125 C 6.683594 10.226562 6.671875 10.25 6.65625 10.273438 C 6.644531 10.300781 6.628906 10.324219 6.617188 10.347656 C 6.609375 10.363281 6.601562 10.375 6.597656 10.386719 C 6.589844 10.398438 6.582031 10.40625 6.578125 10.417969 C 6.5625 10.445312 6.5625 10.445312 6.546875 10.460938 C 6.515625 10.460938 6.484375 10.460938 6.453125 10.460938 C 6.4375 10.460938 6.4375 10.460938 6.421875 10.460938 C 6.386719 10.460938 6.355469 10.460938 6.320312 10.460938 C 6.296875 10.460938 6.273438 10.460938 6.246094 10.460938 C 6.183594 10.460938 6.117188 10.460938 6.050781 10.460938 C 5.980469 10.460938 5.914062 10.460938 5.84375 10.460938 C 5.710938 10.460938 5.582031 10.460938 5.453125 10.460938 C 5.304688 10.460938 5.15625 10.460938 5.007812 10.460938 C 4.699219 10.460938 4.394531 10.460938 4.089844 10.460938 C 4.109375 10.410156 4.128906 10.363281 4.15625 10.316406 C 4.164062 10.304688 4.171875 10.289062 4.179688 10.273438 C 4.183594 10.265625 4.1875 10.257812 4.191406 10.25 C 4.222656 10.191406 4.257812 10.132812 4.289062 10.074219 C 4.304688 10.046875 4.316406 10.023438 4.332031 9.996094 C 4.339844 9.984375 4.34375 9.972656 4.351562 9.960938 C 4.367188 9.933594 4.382812 9.90625 4.394531 9.878906 C 4.433594 9.8125 4.46875 9.742188 4.503906 9.675781 C 4.570312 9.554688 4.636719 9.429688 4.703125 9.308594 C 4.730469 9.261719 4.757812 9.214844 4.785156 9.164062 C 4.828125 9.082031 4.875 9.003906 4.921875 8.921875 C 5.007812 8.765625 5.09375 8.609375 5.179688 8.453125 C 5.25 8.324219 5.320312 8.195312 5.390625 8.066406 C 5.464844 7.929688 5.542969 7.789062 5.617188 7.652344 C 5.691406 7.515625 5.765625 7.378906 5.84375 7.242188 C 5.871094 7.191406 5.902344 7.136719 5.929688 7.085938 C 5.964844 7.019531 6 6.953125 6.035156 6.890625 C 6.058594 6.851562 6.078125 6.8125 6.101562 6.773438 C 6.113281 6.746094 6.128906 6.722656 6.144531 6.695312 C 6.179688 6.625 6.21875 6.558594 6.253906 6.492188 C 6.316406 6.367188 6.382812 6.246094 6.453125 6.125 C 6.480469 6.078125 6.503906 6.027344 6.53125 5.980469 C 6.578125 5.894531 6.628906 5.804688 6.679688 5.71875 C 6.695312 5.6875 6.710938 5.65625 6.730469 5.628906 C 6.738281 5.613281 6.746094 5.601562 6.753906 5.585938 C 6.765625 5.566406 6.773438 5.546875 6.785156 5.527344 Z M 6.785156 5.527344 "/>
<path style=" stroke:none;fill-rule:nonzero;fill:rgb(5.882353%,6.666667%,7.843138%);fill-opacity:1;" d="M 5.042969 5.523438 C 5.058594 5.523438 5.070312 5.523438 5.085938 5.523438 C 5.132812 5.523438 5.175781 5.523438 5.222656 5.523438 C 5.253906 5.523438 5.285156 5.523438 5.316406 5.523438 C 5.398438 5.523438 5.480469 5.523438 5.5625 5.523438 C 5.648438 5.523438 5.730469 5.523438 5.816406 5.523438 C 5.980469 5.523438 6.144531 5.527344 6.3125 5.527344 C 6.300781 5.585938 6.28125 5.628906 6.253906 5.683594 C 6.242188 5.699219 6.234375 5.714844 6.226562 5.730469 C 6.214844 5.746094 6.207031 5.761719 6.195312 5.78125 C 6.179688 5.8125 6.160156 5.84375 6.140625 5.875 C 6.132812 5.890625 6.125 5.90625 6.113281 5.925781 C 6.050781 6.039062 5.988281 6.15625 5.925781 6.273438 C 5.851562 6.410156 5.777344 6.546875 5.699219 6.683594 C 5.667969 6.734375 5.640625 6.789062 5.609375 6.839844 C 5.570312 6.917969 5.527344 6.996094 5.484375 7.074219 C 5.40625 7.210938 5.332031 7.351562 5.257812 7.488281 C 5.183594 7.625 5.109375 7.761719 5.03125 7.898438 C 5 7.949219 4.972656 8.003906 4.945312 8.054688 C 4.910156 8.121094 4.871094 8.1875 4.835938 8.25 C 4.816406 8.289062 4.792969 8.328125 4.773438 8.367188 C 4.757812 8.394531 4.746094 8.421875 4.730469 8.445312 C 4.691406 8.515625 4.65625 8.582031 4.621094 8.648438 C 4.554688 8.773438 4.488281 8.894531 4.421875 9.015625 C 4.394531 9.0625 4.367188 9.113281 4.34375 9.160156 C 4.296875 9.242188 4.25 9.324219 4.207031 9.40625 C 4.117188 9.558594 4.03125 9.714844 3.945312 9.875 C 3.875 10.003906 3.804688 10.136719 3.730469 10.265625 C 3.726562 10.277344 3.71875 10.289062 3.710938 10.300781 C 3.703125 10.3125 3.699219 10.324219 3.691406 10.335938 C 3.671875 10.375 3.648438 10.417969 3.628906 10.460938 C 2.8125 10.460938 1.996094 10.460938 1.15625 10.460938 C 1.183594 10.394531 1.207031 10.339844 1.238281 10.28125 C 1.246094 10.269531 1.253906 10.253906 1.261719 10.242188 C 1.269531 10.226562 1.28125 10.214844 1.289062 10.199219 C 1.378906 10.042969 1.464844 9.886719 1.550781 9.726562 C 1.621094 9.597656 1.691406 9.46875 1.761719 9.339844 C 1.835938 9.203125 1.914062 9.066406 1.988281 8.925781 C 2.058594 8.789062 2.132812 8.652344 2.210938 8.515625 C 2.242188 8.464844 2.269531 8.410156 2.300781 8.359375 C 2.34375 8.28125 2.386719 8.203125 2.425781 8.125 C 2.503906 7.988281 2.578125 7.851562 2.652344 7.710938 C 2.726562 7.574219 2.800781 7.4375 2.878906 7.300781 C 2.910156 7.25 2.9375 7.195312 2.964844 7.144531 C 3.007812 7.066406 3.050781 6.988281 3.097656 6.910156 C 3.132812 6.84375 3.167969 6.777344 3.203125 6.710938 C 3.382812 6.386719 3.613281 6.117188 3.925781 5.910156 C 3.9375 5.902344 3.949219 5.894531 3.960938 5.890625 C 4.28125 5.679688 4.65625 5.523438 5.042969 5.523438 Z M 5.042969 5.523438 "/>
<path style=" stroke:none;fill-rule:nonzero;fill:rgb(5.882353%,6.666667%,7.843138%);fill-opacity:1;" d="M 9.871094 5.523438 C 9.894531 5.523438 9.917969 5.523438 9.941406 5.523438 C 9.964844 5.523438 9.988281 5.523438 10.011719 5.523438 C 10.078125 5.523438 10.144531 5.523438 10.210938 5.527344 C 10.277344 5.527344 10.347656 5.527344 10.414062 5.527344 C 10.546875 5.527344 10.675781 5.527344 10.804688 5.53125 C 10.953125 5.53125 11.101562 5.53125 11.25 5.535156 C 11.554688 5.535156 11.859375 5.539062 12.164062 5.539062 C 12.144531 5.601562 12.125 5.652344 12.09375 5.707031 C 12.085938 5.722656 12.078125 5.734375 12.070312 5.75 C 12.0625 5.765625 12.050781 5.777344 12.042969 5.792969 C 12.035156 5.804688 12.03125 5.820312 12.023438 5.832031 C 12 5.871094 11.976562 5.914062 11.953125 5.953125 C 11.867188 6.109375 11.78125 6.265625 11.695312 6.421875 C 11.625 6.550781 11.554688 6.679688 11.484375 6.808594 C 11.40625 6.945312 11.332031 7.082031 11.257812 7.222656 C 11.183594 7.359375 11.109375 7.496094 11.03125 7.632812 C 11 7.683594 10.972656 7.734375 10.945312 7.789062 C 10.910156 7.855469 10.871094 7.917969 10.835938 7.984375 C 10.816406 8.023438 10.792969 8.0625 10.773438 8.101562 C 10.757812 8.125 10.746094 8.152344 10.730469 8.179688 C 10.691406 8.246094 10.65625 8.316406 10.621094 8.382812 C 10.554688 8.507812 10.488281 8.628906 10.421875 8.75 C 10.394531 8.796875 10.367188 8.84375 10.34375 8.894531 C 10.289062 8.992188 10.230469 9.09375 10.175781 9.191406 C 10.136719 9.261719 10.097656 9.332031 10.058594 9.40625 C 9.785156 9.902344 9.242188 10.253906 8.710938 10.414062 C 8.503906 10.472656 8.304688 10.480469 8.089844 10.480469 C 8.058594 10.480469 8.027344 10.480469 7.996094 10.480469 C 7.914062 10.480469 7.832031 10.480469 7.75 10.476562 C 7.667969 10.476562 7.582031 10.476562 7.5 10.476562 C 7.335938 10.476562 7.171875 10.476562 7.007812 10.472656 C 7.027344 10.40625 7.054688 10.347656 7.09375 10.285156 C 7.101562 10.269531 7.113281 10.25 7.125 10.230469 C 7.128906 10.222656 7.136719 10.210938 7.140625 10.203125 C 7.167969 10.15625 7.191406 10.109375 7.21875 10.0625 C 7.253906 9.996094 7.289062 9.933594 7.324219 9.867188 C 7.347656 9.828125 7.367188 9.789062 7.390625 9.75 C 7.402344 9.726562 7.417969 9.699219 7.433594 9.671875 C 7.46875 9.605469 7.507812 9.535156 7.542969 9.46875 C 7.605469 9.34375 7.671875 9.222656 7.742188 9.101562 C 7.769531 9.054688 7.792969 9.007812 7.820312 8.957031 C 7.867188 8.875 7.910156 8.792969 7.957031 8.714844 C 8.046875 8.558594 8.132812 8.402344 8.214844 8.246094 C 8.285156 8.117188 8.355469 7.988281 8.425781 7.859375 C 8.503906 7.722656 8.578125 7.582031 8.652344 7.445312 C 8.726562 7.308594 8.800781 7.171875 8.878906 7.035156 C 8.910156 6.984375 8.9375 6.929688 8.964844 6.878906 C 9.003906 6.8125 9.039062 6.746094 9.074219 6.679688 C 9.09375 6.644531 9.117188 6.605469 9.136719 6.566406 C 9.152344 6.539062 9.167969 6.511719 9.179688 6.488281 C 9.21875 6.417969 9.253906 6.351562 9.289062 6.28125 C 9.355469 6.160156 9.421875 6.035156 9.492188 5.914062 C 9.519531 5.863281 9.546875 5.8125 9.574219 5.761719 C 9.582031 5.75 9.585938 5.738281 9.59375 5.726562 C 9.617188 5.691406 9.617188 5.691406 9.628906 5.648438 C 9.683594 5.53125 9.75 5.523438 9.871094 5.523438 Z M 9.871094 5.523438 "/>
<path style=" stroke:none;fill-rule:nonzero;fill:rgb(5.882353%,6.666667%,7.843138%);fill-opacity:1;" d="M 14.402344 5.804688 C 14.632812 5.992188 14.808594 6.28125 14.84375 6.578125 C 14.875 6.957031 14.800781 7.273438 14.546875 7.570312 C 14.351562 7.792969 14.070312 7.960938 13.773438 7.988281 C 13.722656 7.992188 13.667969 7.992188 13.617188 7.992188 C 13.597656 7.992188 13.582031 7.992188 13.5625 7.992188 C 13.273438 7.984375 13.011719 7.886719 12.800781 7.6875 C 12.785156 7.675781 12.773438 7.664062 12.757812 7.652344 C 12.535156 7.441406 12.390625 7.160156 12.382812 6.851562 C 12.378906 6.671875 12.382812 6.511719 12.445312 6.339844 C 12.449219 6.324219 12.453125 6.3125 12.460938 6.296875 C 12.574219 5.980469 12.839844 5.75 13.136719 5.613281 C 13.570312 5.421875 14.042969 5.523438 14.402344 5.804688 Z M 14.402344 5.804688 "/>
</g>
</svg>
