<svg width="24" height="17" viewBox="0 0 24 17" fill="none" xmlns="http://www.w3.org/2000/svg">
<g clip-path="url(#clip0_554_41)">
<mask id="mask0_554_41" style="mask-type:luminance" maskUnits="userSpaceOnUse" x="0" y="0" width="24" height="17">
<path d="M23.9305 0.666626H0.21875V16.6666H23.9305V0.666626Z" fill="white"/>
</mask>
<g mask="url(#mask0_554_41)">
<mask id="mask1_554_41" style="mask-type:luminance" maskUnits="userSpaceOnUse" x="0" y="0" width="24" height="17">
<path d="M0.21875 0.666626H23.9305V16.3757H0.21875V0.666626Z" fill="white"/>
</mask>
<g mask="url(#mask1_554_41)">
<path fill-rule="evenodd" clip-rule="evenodd" d="M12.0747 0.666626C8.91309 0.666626 6.93709 2.41208 6.1467 5.903C7.3323 4.15753 8.71549 3.503 10.2963 3.93935C11.1982 4.18808 11.8428 4.911 12.5564 5.7105C13.7187 7.0133 15.0641 8.52118 18.0026 8.52118C21.1642 8.52118 23.1401 6.77573 23.9305 3.2848C22.745 5.03025 21.3618 5.6848 19.781 5.24845C18.8791 4.99973 18.2345 4.2768 17.5209 3.4773C16.3586 2.1745 15.0132 0.666626 12.0747 0.666626ZM6.1467 8.52118C2.98513 8.52118 1.00914 10.2666 0.21875 13.7575C1.40434 12.0121 2.78754 11.3575 4.36833 11.7939C5.27025 12.0431 5.91485 12.7655 6.6284 13.5651C7.79072 14.8678 9.13615 16.3757 12.0747 16.3757C15.2362 16.3757 17.2122 14.6303 18.0026 11.1394C16.817 12.8848 15.4338 13.5394 13.8531 13.103C12.9511 12.8543 12.3065 12.1314 11.593 11.3318C10.4306 10.0291 9.08521 8.52118 6.1467 8.52118Z" fill="#38BDF8"/>
</g>
</g>
</g>
<defs>
<clipPath id="clip0_554_41">
<rect width="24" height="16" fill="white" transform="translate(0 0.666626)"/>
</clipPath>
</defs>
</svg>
