<svg width="16" height="17" viewBox="0 0 16 17" fill="none" xmlns="http://www.w3.org/2000/svg">
<g clip-path="url(#clip0_554_104)">
<path d="M7.47606 0.670932C7.44164 0.674059 7.33216 0.685006 7.23363 0.692825C4.96109 0.897682 2.83245 2.1237 1.48426 4.00807C0.733529 5.05581 0.253373 6.2443 0.0719453 7.50315C0.00782015 7.94258 0 8.07237 0 8.66818C0 9.26397 0.00782015 9.39378 0.0719453 9.83321C0.506745 12.8372 2.64477 15.3613 5.54448 16.2964C6.06374 16.4637 6.61114 16.5779 7.23363 16.6467C7.47604 16.6733 8.52396 16.6733 8.76637 16.6467C9.84086 16.5278 10.7511 16.2619 11.6489 15.8038C11.7865 15.7334 11.8131 15.7146 11.7943 15.699C11.7818 15.6896 11.1953 14.903 10.4915 13.9522L9.21212 12.2242L7.60899 9.85197C6.72688 8.54776 6.00118 7.48126 5.99492 7.48126C5.98865 7.47969 5.9824 8.53369 5.97927 9.82068C5.97459 12.0741 5.97302 12.1648 5.94487 12.218C5.9042 12.2946 5.87292 12.3259 5.80723 12.3603C5.75718 12.3853 5.7134 12.39 5.47722 12.39H5.20665L5.13471 12.3446C5.08778 12.3149 5.05337 12.2758 5.02991 12.2305L4.99706 12.1601L5.00019 9.02471L5.00489 5.88775L5.05337 5.82676C5.0784 5.79391 5.13158 5.7517 5.16911 5.73137C5.23324 5.7001 5.25825 5.69697 5.52884 5.69697C5.8479 5.69697 5.90108 5.70948 5.98397 5.80017C6.00743 5.8252 6.87546 7.13253 7.91398 8.70728C8.95249 10.282 10.3726 12.4322 11.0702 13.4878L12.337 15.4065L12.4012 15.3643C12.9689 14.9953 13.5695 14.4699 14.045 13.9225C15.0569 12.7606 15.7091 11.3438 15.928 9.83321C15.9921 9.39378 16 9.26397 16 8.66818C16 8.07237 15.9921 7.94258 15.928 7.50315C15.4932 4.4991 13.3552 1.97514 10.4555 1.03999C9.94409 0.874225 9.39981 0.760067 8.78983 0.69126C8.63968 0.675623 7.60586 0.658421 7.47606 0.670932ZM10.7511 5.5093C10.8262 5.54685 10.8872 5.61877 10.9091 5.69384C10.9216 5.7345 10.9247 6.60396 10.9216 8.56341L10.9169 11.3751L10.4211 10.6151L9.92375 9.8551V7.81122C9.92375 6.48981 9.93001 5.747 9.93939 5.71103C9.96442 5.62347 10.0192 5.55466 10.0942 5.514C10.1584 5.48116 10.1818 5.47803 10.4274 5.47803C10.6589 5.47803 10.6995 5.48116 10.7511 5.5093Z" fill="#27272A"/>
</g>
<defs>
<clipPath id="clip0_554_104">
<rect width="16" height="16" fill="white" transform="translate(0 0.666626)"/>
</clipPath>
</defs>
</svg>
