<svg width="16" height="17" viewBox="0 0 16 17" fill="none" xmlns="http://www.w3.org/2000/svg">
<path fill-rule="evenodd" clip-rule="evenodd" d="M2.81449 14.5676L2.38717 3.01061C2.37371 2.62895 2.66254 2.30595 3.03768 2.28261L10.6218 1.80095L11.2011 1.99995L11.9544 1.71628L12.7145 1.66795C13.0962 1.64328 13.4254 1.93761 13.45 2.32528C13.451 2.34028 13.4513 2.35561 13.4513 2.37095V14.9633C13.451 15.3523 13.1402 15.6673 12.7571 15.667C12.747 15.667 12.7368 15.6666 12.7269 15.6663L3.47615 15.2443C3.11578 15.228 2.82828 14.934 2.81449 14.5676Z" fill="#FF4081"/>
<path fill-rule="evenodd" clip-rule="evenodd" d="M11.9554 1.71631L10.6239 1.80031L10.5593 3.38731C10.5569 3.44531 10.6012 3.49398 10.6584 3.49663C10.6823 3.49763 10.7056 3.49031 10.7247 3.47563L11.3312 3.00798L11.8438 3.41831C11.8885 3.45431 11.9538 3.44663 11.9889 3.40131C12.004 3.38163 12.0119 3.35731 12.0112 3.33231L11.9561 1.71664L11.9554 1.71631ZM10.919 7.02931C10.6758 7.22163 8.85882 7.35263 8.85882 7.07898C8.89754 6.03398 8.43706 5.98831 8.18074 5.98831C7.93821 5.98831 7.52861 6.06263 7.52861 6.62263C7.52861 7.19298 8.12691 7.51498 8.82928 7.89298C9.8267 8.42998 11.0348 9.08031 11.0348 10.7153C11.0348 12.2833 9.78042 13.1486 8.18141 13.1486C6.53085 13.1486 5.08807 12.4703 5.25085 10.119C5.31485 9.84331 7.41373 9.90898 7.41373 10.119C7.38746 11.0893 7.60541 11.3746 8.15546 11.3746C8.57786 11.3746 8.76954 11.138 8.76954 10.7403C8.76954 10.1376 8.1466 9.78198 7.42916 9.37331C6.45799 8.81963 5.31519 8.16798 5.31519 6.67198C5.31519 5.17963 6.32573 4.18431 8.12986 4.18431C9.93402 4.18431 10.919 5.16463 10.919 7.02931Z" fill="white"/>
</svg>
