<svg width="12" height="17" viewBox="0 0 12 17" fill="none" xmlns="http://www.w3.org/2000/svg">
<g clip-path="url(#clip0_554_21)">
<mask id="mask0_554_21" style="mask-type:luminance" maskUnits="userSpaceOnUse" x="0" y="0" width="12" height="17">
<path d="M11.6947 0.666626H0.171875V16.6666H11.6947V0.666626Z" fill="white"/>
</mask>
<g mask="url(#mask0_554_21)">
<path d="M8.14272 2.44994C7.09833 1.65321 6.19903 0.844023 6.01531 0.675963C5.99596 0.663514 5.96697 0.663514 5.94761 0.675963C5.76389 0.844023 4.86455 1.65321 3.82019 2.44994C-5.14395 9.80103 5.23202 14.762 5.23202 14.762L5.31904 14.7993C5.39642 15.5649 5.58982 16.6666 5.58982 16.6666H5.9766H6.36343C6.36343 16.6666 6.55682 15.5711 6.6342 14.7993L6.72122 14.7558C6.7309 14.7558 17.1069 9.80103 8.14272 2.44994ZM5.9766 14.6499C5.9766 14.6499 5.51248 14.3947 5.38675 14.264V14.2516L5.94761 6.24685C5.94761 6.22195 6.00564 6.22195 6.00564 6.24685L6.5665 14.2516V14.264C6.44077 14.3947 5.9766 14.6499 5.9766 14.6499Z" fill="#00684A"/>
</g>
</g>
<defs>
<clipPath id="clip0_554_21">
<rect width="12" height="16" fill="white" transform="translate(0 0.666626)"/>
</clipPath>
</defs>
</svg>
