<svg width="18" height="17" viewBox="0 0 18 17" fill="none" xmlns="http://www.w3.org/2000/svg">
<g clip-path="url(#clip0_554_209)">
<mask id="mask0_554_209" style="mask-type:luminance" maskUnits="userSpaceOnUse" x="0" y="0" width="18" height="17">
<path d="M17.8918 0.666626H0.191406V16.6666H17.8918V0.666626Z" fill="white"/>
</mask>
<g mask="url(#mask0_554_209)">
<path d="M9.04121 10.3597C9.97224 10.3597 10.727 9.60167 10.727 8.66657C10.727 7.7315 9.97224 6.97345 9.04121 6.97345C8.1102 6.97345 7.35547 7.7315 7.35547 8.66657C7.35547 9.60167 8.1102 10.3597 9.04121 10.3597Z" fill="#087EA4"/>
<path d="M9.04203 12.4761C13.6971 12.4761 17.4708 10.7705 17.4708 8.66658C17.4708 6.56266 13.6971 4.85706 9.04203 4.85706C4.38695 4.85706 0.613281 6.56266 0.613281 8.66658C0.613281 10.7705 4.38695 12.4761 9.04203 12.4761Z" stroke="#087EA4"/>
<path d="M5.75797 10.5714C8.08549 14.6204 11.443 17.05 13.2571 15.9981C15.0713 14.9461 14.6551 10.8109 12.3275 6.76187C10 2.71284 6.6425 0.283233 4.82838 1.3352C3.01423 2.38718 3.43044 6.52235 5.75797 10.5714Z" stroke="#087EA4"/>
<path d="M5.75798 6.7618C3.43043 10.8109 3.01425 14.946 4.82837 15.998C6.64251 17.05 10 14.6204 12.3275 10.5713C14.6551 6.5223 15.0713 2.38711 13.2571 1.33514C11.443 0.283172 8.08551 2.71277 5.75798 6.7618Z" stroke="#087EA4"/>
</g>
</g>
<defs>
<clipPath id="clip0_554_209">
<rect width="18" height="16" fill="white" transform="translate(0 0.666626)"/>
</clipPath>
</defs>
</svg>
