<svg width="12" height="17" viewBox="0 0 12 17" fill="none" xmlns="http://www.w3.org/2000/svg">
<g clip-path="url(#clip0_554_512)">
<mask id="mask0_554_512" style="mask-type:luminance" maskUnits="userSpaceOnUse" x="0" y="0" width="12" height="17">
<path d="M11.8239 0.666626H0.1875V16.6666H11.8239V0.666626Z" fill="white"/>
</mask>
<g mask="url(#mask0_554_512)">
<path d="M6.00391 8.66665C6.00391 7.95942 6.3104 7.28115 6.85596 6.78105C7.40152 6.28095 8.14146 6 8.91298 6C9.68453 6 10.4245 6.28095 10.97 6.78105C11.5156 7.28115 11.8221 7.95942 11.8221 8.66665C11.8221 9.3739 11.5156 10.0522 10.97 10.5523C10.4245 11.0524 9.68453 11.3333 8.91298 11.3333C8.14146 11.3333 7.40152 11.0524 6.85596 10.5523C6.3104 10.0522 6.00391 9.3739 6.00391 8.66665Z" fill="#1ABCFE"/>
<path d="M0.1875 13.9999C0.1875 13.2927 0.493992 12.6144 1.03955 12.1143C1.58511 11.6142 2.32505 11.3333 3.0966 11.3333H6.00567V13.9999C6.00567 14.7072 5.69918 15.3855 5.15362 15.8856C4.60808 16.3857 3.86812 16.6666 3.0966 16.6666C2.32505 16.6666 1.58511 16.3857 1.03955 15.8856C0.493992 15.3855 0.1875 14.7072 0.1875 13.9999Z" fill="#0ACF83"/>
<path d="M6.00391 0.666626V5.99995H8.91298C9.68453 5.99995 10.4245 5.719 10.97 5.2189C11.5156 4.7188 11.8221 4.04053 11.8221 3.3333C11.8221 2.62605 11.5156 1.94777 10.97 1.44767C10.4245 0.947578 9.68453 0.666626 8.91298 0.666626H6.00391Z" fill="#FF7262"/>
<path d="M0.1875 3.3333C0.1875 4.04053 0.493992 4.7188 1.03955 5.2189C1.58511 5.719 2.32505 5.99995 3.0966 5.99995H6.00567V0.666626H3.0966C2.32505 0.666626 1.58511 0.947578 1.03955 1.44767C0.493992 1.94777 0.1875 2.62605 0.1875 3.3333Z" fill="#F24E1E"/>
<path d="M0.1875 8.66665C0.1875 9.3739 0.493992 10.0522 1.03955 10.5523C1.58511 11.0524 2.32505 11.3333 3.0966 11.3333H6.00567V6H3.0966C2.32505 6 1.58511 6.28095 1.03955 6.78105C0.493992 7.28115 0.1875 7.95942 0.1875 8.66665Z" fill="#A259FF"/>
</g>
</g>
<defs>
<clipPath id="clip0_554_512">
<rect width="12" height="16" fill="white" transform="translate(0 0.666626)"/>
</clipPath>
</defs>
</svg>
