<svg width="16" height="17" viewBox="0 0 16 17" fill="none" xmlns="http://www.w3.org/2000/svg">
<g clip-path="url(#clip0_554_394)">
<mask id="mask0_554_394" style="mask-type:luminance" maskUnits="userSpaceOnUse" x="0" y="0" width="16" height="17">
<path d="M15.8007 0.666626H0.046875V16.6666H15.8007V0.666626Z" fill="white"/>
</mask>
<g mask="url(#mask0_554_394)">
<path d="M15.8007 13.0641C15.2277 13.2121 14.8732 13.0706 14.5552 12.5856L12.2935 9.40763L11.9666 8.96763L9.32539 12.5961C9.0236 13.0326 8.70705 13.2226 8.14385 13.0681L11.526 8.45713L8.3772 4.29213C8.91874 4.18513 9.2929 4.23963 9.6252 4.73213L11.971 7.94963L14.3341 4.74963C14.6369 4.31313 14.9623 4.14713 15.5058 4.30813L14.2849 5.95213L12.6307 8.13963C12.4338 8.38963 12.4609 8.56063 12.6421 8.80213L15.8007 13.0641ZM0.0508135 8.38013L0.327489 6.99813C1.08072 4.26313 4.16748 3.12663 6.29622 4.81663C7.54028 5.81063 7.84945 7.21663 7.78791 8.79163H0.775489C0.670136 11.6266 2.67923 13.3376 5.24071 12.4646C6.13917 12.1581 6.6684 11.4436 6.93326 10.5496C7.06766 10.1016 7.29019 10.0316 7.70471 10.1596C7.49302 11.2776 7.01548 12.2116 6.00625 12.7961C4.49831 13.6711 2.34595 13.3881 1.21364 12.1721C0.539182 11.4666 0.260536 10.5726 0.13549 9.61663C0.115798 9.45863 0.0764135 9.30813 0.046875 9.15663C0.0495007 8.89798 0.0508135 8.6393 0.0508135 8.38063V8.38013ZM0.788289 8.19013H7.12526C7.08391 6.14013 5.82705 4.68413 4.10939 4.67163C2.22386 4.65663 0.870012 6.07813 0.788289 8.19013Z" fill="#27272A"/>
</g>
</g>
<defs>
<clipPath id="clip0_554_394">
<rect width="16" height="16" fill="white" transform="translate(0 0.666626)"/>
</clipPath>
</defs>
</svg>
