<svg width="16" height="17" viewBox="0 0 16 17" fill="none" xmlns="http://www.w3.org/2000/svg">
<g clip-path="url(#clip0_554_278)">
<mask id="mask0_554_278" style="mask-type:luminance" maskUnits="userSpaceOnUse" x="0" y="0" width="16" height="17">
<path d="M15.9927 0.666626H0.183594V16.6666H15.9927V0.666626Z" fill="white"/>
</mask>
<g mask="url(#mask0_554_278)">
<path d="M8.1142 16.6666C7.87336 16.6666 7.6486 16.6083 7.43988 16.5063L5.30449 15.3546C4.98337 15.1942 5.14393 15.1359 5.24027 15.1067C5.67376 14.9755 5.75404 14.9464 6.20361 14.7131C6.25175 14.6839 6.31597 14.6985 6.36414 14.7277L8.00181 15.617C8.06604 15.6461 8.14632 15.6461 8.19449 15.617L14.6006 12.2493C14.6649 12.2201 14.697 12.1618 14.697 12.0889V5.36813C14.697 5.29525 14.6649 5.23693 14.6006 5.20778L8.19449 1.85468C8.13026 1.82553 8.04998 1.82553 8.00181 1.85468L1.59565 5.20778C1.53143 5.23693 1.49932 5.30983 1.49932 5.36813V12.0889C1.49932 12.1472 1.53143 12.2201 1.59565 12.2493L3.3457 13.1678C4.29298 13.6051 4.88703 13.0949 4.88703 12.5846V5.95128C4.88703 5.86383 4.96731 5.77635 5.07971 5.77635H5.89854C5.99488 5.77635 6.09119 5.84925 6.09119 5.95128V12.5846C6.09119 13.7363 5.4008 14.407 4.19665 14.407C3.82738 14.407 3.53837 14.407 2.71953 14.0425L1.03371 13.1678C0.616265 12.9491 0.359375 12.5409 0.359375 12.1035V5.38273C0.359375 4.94538 0.616265 4.53718 1.03371 4.31848L7.43988 0.950806C7.84128 0.746704 8.38716 0.746704 8.78854 0.950806L15.1947 4.31848C15.6121 4.53718 15.869 4.94538 15.869 5.38273V12.1035C15.869 12.5409 15.6121 12.9491 15.1947 13.1678L8.78854 16.5354C8.59586 16.6083 8.35505 16.6666 8.1142 16.6666Z" fill="#5FA04E"/>
<path d="M10.1065 12.0452C7.29674 12.0452 6.71875 10.8789 6.71875 9.8875C6.71875 9.80003 6.79903 9.71258 6.9114 9.71258H7.74629C7.84262 9.71258 7.9229 9.77088 7.9229 9.85835C8.05135 10.631 8.42065 11.0101 10.1225 11.0101C11.4712 11.0101 12.0492 10.7331 12.0492 10.077C12.0492 9.69798 11.8886 9.42098 9.78533 9.23145C8.0353 9.07108 6.94354 8.7212 6.94354 7.45285C6.94354 6.27198 8.0353 5.5722 9.86564 5.5722C11.9207 5.5722 12.9322 6.21368 13.0607 7.61323C13.0607 7.65698 13.0446 7.7007 13.0125 7.74445C12.9804 7.77358 12.9322 7.80275 12.8841 7.80275H12.0331C11.9528 7.80275 11.8726 7.74445 11.8565 7.67153C11.6638 6.8697 11.1661 6.60728 9.84959 6.60728C8.37245 6.60728 8.19586 7.07383 8.19586 7.4237C8.19586 7.84648 8.40459 7.9777 10.3955 8.21095C12.3703 8.4442 13.3015 8.77953 13.3015 10.0333C13.3015 11.3162 12.1294 12.0452 10.1065 12.0452Z" fill="#5FA04E"/>
</g>
</g>
<defs>
<clipPath id="clip0_554_278">
<rect width="16" height="16" fill="white" transform="translate(0 0.666626)"/>
</clipPath>
</defs>
</svg>
