<svg width="16" height="17" viewBox="0 0 16 17" fill="none" xmlns="http://www.w3.org/2000/svg">
<path d="M13.2446 9.3186C12.7398 9.32127 12.3027 9.44427 11.9364 9.62795C11.8025 9.35627 11.6666 9.11727 11.6439 8.9396C11.6174 8.73227 11.5865 8.60827 11.6187 8.36127C11.6508 8.11427 11.7916 7.76427 11.7897 7.73795C11.7877 7.7116 11.7582 7.58595 11.467 7.5836C11.1759 7.5816 10.9268 7.6406 10.8976 7.7186C10.8684 7.7966 10.8123 7.97227 10.7775 8.1556C10.7266 8.4236 10.1962 9.37995 9.89527 9.87995C9.79681 9.6846 9.71312 9.5126 9.69571 9.3766C9.66913 9.16927 9.63828 9.04527 9.67043 8.79827C9.70261 8.55127 9.8434 8.20127 9.84144 8.17495C9.83947 8.1486 9.80993 8.02295 9.5188 8.0206C9.2277 8.0186 8.97859 8.0776 8.94937 8.1556C8.92016 8.2336 8.88865 8.41595 8.82925 8.5926C8.76951 8.76895 8.06487 10.3639 7.88008 10.7776C7.78588 10.9883 7.70415 11.1576 7.64641 11.2729L7.64606 11.2723C7.64606 11.2723 7.64247 11.2799 7.63656 11.2929C7.58699 11.3913 7.55779 11.4456 7.55779 11.4456C7.55779 11.4456 7.55811 11.4463 7.55878 11.4476C7.51939 11.5199 7.47737 11.5869 7.4567 11.5869C7.44225 11.5869 7.41305 11.3946 7.46292 11.1306C7.56796 10.5773 7.8197 9.7146 7.81739 9.6846C7.81608 9.66927 7.86433 9.51895 7.65296 9.44027C7.44752 9.36395 7.37431 9.49127 7.3556 9.4916C7.33756 9.49195 7.32409 9.5366 7.32409 9.5366C7.32409 9.5366 7.55287 8.56627 6.88759 8.56627C6.47142 8.56627 5.8951 9.0286 5.61121 9.4476C5.43201 9.54695 5.04833 9.7596 4.64168 9.9866C4.48545 10.0739 4.32594 10.1629 4.17465 10.2476C4.16446 10.2359 4.15398 10.2246 4.14347 10.2129C3.3364 9.3386 1.84504 8.72027 1.90806 7.5446C1.93103 7.11727 2.07741 5.99195 4.77428 4.62727C6.98342 3.50927 8.75213 3.81695 9.05768 4.4986C9.49419 5.47295 8.11245 7.28327 5.8183 7.5446C4.94428 7.64427 4.48382 7.29995 4.36926 7.17195C4.24882 7.03695 4.23078 7.03095 4.1858 7.05627C4.11262 7.0976 4.1589 7.2166 4.1858 7.2876C4.25441 7.4686 4.53534 7.7896 5.01453 7.9496C5.43627 8.09027 6.46256 8.16727 7.70352 7.6796C9.09379 7.1336 10.1792 5.61427 9.86014 4.3446C9.53588 3.05327 7.42748 2.62861 5.43201 3.3486C4.24291 3.77727 2.95732 4.44995 2.03278 5.32795C0.933617 6.37195 0.758356 7.28095 0.830563 7.6606C1.08722 9.00995 2.91828 9.8886 3.65148 10.5396C3.61539 10.5599 3.58125 10.5789 3.55041 10.5963C3.1828 10.7809 1.78695 11.5229 1.43774 12.3066C1.0416 13.1956 1.50076 13.8336 1.80467 13.9196C2.7463 14.1856 3.71252 13.7069 4.23208 12.9203C4.75129 12.1339 4.68796 11.1096 4.44968 10.6423C4.44673 10.6366 4.44345 10.6309 4.4405 10.6249C4.53534 10.5679 4.63216 10.5099 4.72801 10.4526C4.91508 10.3409 5.09886 10.2369 5.25805 10.1489C5.16877 10.3969 5.10347 10.6946 5.06967 11.1243C5.02962 11.6289 5.23344 12.2813 5.49995 12.5379C5.61744 12.6509 5.75855 12.6536 5.84784 12.6536C6.15799 12.6536 6.29945 12.3916 6.45534 12.0816C6.64636 11.7016 6.81603 11.2589 6.81603 11.2589C6.81603 11.2589 6.60335 12.4543 7.18297 12.4543C7.39435 12.4543 7.60668 12.1759 7.70155 12.0343C7.70187 12.0359 7.70187 12.0366 7.70187 12.0366C7.70187 12.0366 7.70745 12.0273 7.71828 12.0089C7.74027 11.9749 7.75275 11.9533 7.75275 11.9533C7.75275 11.9533 7.75307 11.9509 7.75373 11.9469C7.83873 11.7973 8.02711 11.4559 8.30937 10.8929C8.67435 10.1656 9.0242 9.25427 9.0242 9.25427C9.0242 9.25427 9.0567 9.47695 9.16336 9.8456C9.22605 10.0623 9.35929 10.3019 9.46465 10.5319C9.37997 10.6513 9.32813 10.7196 9.32813 10.7196C9.32813 10.7196 9.32845 10.7209 9.32944 10.7233C9.26182 10.8146 9.186 10.9129 9.10659 11.0089C8.81842 11.3573 8.47545 11.7553 8.4295 11.8699C8.37534 12.0053 8.38814 12.1046 8.49283 12.1849C8.56931 12.2433 8.70519 12.2526 8.84729 12.2429C9.10625 12.2253 9.28808 12.1599 9.378 12.1203C9.51816 12.0699 9.68126 11.9909 9.83422 11.8766C10.1168 11.6656 10.2871 11.3639 10.2707 10.9639C10.2615 10.7436 10.1926 10.5253 10.105 10.3193C10.1306 10.2819 10.1562 10.2439 10.1821 10.2059C10.6275 9.5446 10.9731 8.81795 10.9731 8.81795C10.9731 8.81795 11.0056 9.0406 11.1123 9.40927C11.1661 9.5956 11.2727 9.79927 11.3686 9.9986C10.9498 10.3443 10.6902 10.7459 10.5999 11.0093C10.4332 11.4966 10.5638 11.7173 10.8086 11.7676C10.9196 11.7903 11.0765 11.7386 11.1943 11.6879C11.341 11.6386 11.5173 11.5563 11.682 11.4333C11.9646 11.2223 12.2363 10.9269 12.2199 10.5273C12.2124 10.3453 12.1638 10.1646 12.0979 9.99127C12.453 9.84095 12.9125 9.7576 13.498 9.82695C14.754 9.97595 15.0002 10.7723 14.9532 11.1056C14.906 11.4389 14.6427 11.6223 14.5545 11.6776C14.4665 11.7329 14.4396 11.7523 14.4468 11.7933C14.4576 11.8529 14.4983 11.8509 14.5735 11.8379C14.6769 11.8203 15.2329 11.5669 15.2568 10.9516C15.2867 10.1696 14.5499 9.3116 13.2446 9.3186ZM3.56353 12.6333C3.14736 13.0943 2.56643 13.2683 2.317 13.1216C2.04787 12.9633 2.15454 12.2846 2.66489 11.7953C2.97603 11.4973 3.37776 11.2226 3.64427 11.0536C3.70499 11.0166 3.79393 10.9623 3.90224 10.8963C3.92028 10.8859 3.93047 10.8803 3.93047 10.8803L3.93012 10.8796C3.95115 10.8669 3.97246 10.8539 3.99447 10.8403C4.18056 11.5366 4.00038 12.1496 3.56353 12.6333ZM6.59449 10.5409C6.44976 10.8996 6.14649 11.8176 5.96173 11.7683C5.80321 11.7259 5.70672 11.0283 5.93022 10.3416C6.04247 9.99595 6.28272 9.58295 6.42384 9.4226C6.65096 9.1646 6.90105 9.08027 6.96176 9.18495C7.0389 9.31827 6.68542 10.3159 6.59449 10.5409ZM9.09837 11.7543C9.037 11.7869 8.98056 11.8073 8.95462 11.7916C8.93527 11.7799 8.9799 11.7369 8.9799 11.7369C8.9799 11.7369 9.293 11.3946 9.4164 11.2389C9.48828 11.1483 9.57133 11.0406 9.66192 10.9206C9.66256 10.9326 9.6629 10.9446 9.6629 10.9563C9.66224 11.3663 9.27233 11.6429 9.09837 11.7543ZM11.0272 11.3076C10.9813 11.2746 10.9892 11.1676 11.1398 10.8339C11.1989 10.7029 11.3341 10.4826 11.5685 10.2719C11.5957 10.3586 11.6121 10.4416 11.6118 10.5189C11.6088 11.0349 11.2465 11.2276 11.0272 11.3076Z" fill="#F06292"/>
</svg>
