<svg width="16" height="17" viewBox="0 0 16 17" fill="none" xmlns="http://www.w3.org/2000/svg">
<g clip-path="url(#clip0_816_235)">
<path d="M11.0859 11.161C9.96091 13.461 7.99091 15.0085 5.38466 15.5172C4.98505 15.6151 4.57482 15.663 4.16341 15.6597C2.66341 15.6597 1.28841 15.0347 0.620906 14.011C-0.275344 12.6472 -0.580343 9.756 2.37466 7.61725C2.43466 7.9435 2.55716 8.391 2.63841 8.656C2.05832 9.08696 1.5835 9.64383 1.24966 10.2847C0.699656 11.3647 0.760906 12.4435 1.41216 13.441C1.86216 14.1135 2.57466 14.5222 3.49091 14.6472C4.63533 14.7921 5.79632 14.5735 6.80966 14.0222C8.39841 13.1872 9.45716 12.1897 10.1497 10.826C9.95384 10.6236 9.83794 10.3572 9.82341 10.076C9.81294 9.77423 9.92262 9.48064 10.1284 9.25965C10.3341 9.03866 10.6192 8.90832 10.9209 8.89725H10.9634C11.2569 8.89578 11.5397 9.00719 11.7534 9.20843C11.967 9.40967 12.0951 9.68535 12.1112 9.9784C12.1272 10.2715 12.03 10.5595 11.8396 10.7829C11.6493 11.0062 11.3803 11.1479 11.0884 11.1785L11.0859 11.161ZM14.6697 8.636C16.1959 10.366 16.2372 12.4022 15.6472 13.5835C15.0972 14.6622 13.6472 15.7422 11.6972 15.7422C10.7869 15.7237 9.89137 15.5083 9.07216 15.111C9.35841 14.9072 9.76466 14.581 9.98841 14.3772C10.6201 14.6509 11.3 14.7962 11.9884 14.8047C13.2509 14.8047 14.2072 14.2147 14.7772 13.136C15.1434 12.4235 15.1647 11.5885 14.8184 10.7335C14.3935 9.65773 13.6375 8.74498 12.6597 8.12725C11.3767 7.26243 9.86434 6.80139 8.31716 6.8035H7.95091C7.8655 7.00078 7.72657 7.17021 7.54983 7.2926C7.3731 7.41499 7.16562 7.48545 6.95091 7.496H6.91216C6.61518 7.49235 6.33132 7.37306 6.12087 7.16349C5.91043 6.95391 5.78997 6.67055 5.78509 6.37359C5.78021 6.07663 5.89128 5.78946 6.09473 5.57308C6.29817 5.3567 6.57796 5.22816 6.87466 5.21475H6.91591C7.12266 5.2149 7.32538 5.27203 7.50179 5.37986C7.6782 5.48769 7.82149 5.64206 7.91591 5.826H8.24216C10.8422 5.826 13.1247 6.8235 14.6697 8.636ZM4.32591 11.511C4.3045 11.3034 4.35479 11.0948 4.46841 10.9197C3.32841 8.94475 2.71841 6.441 3.65466 3.83475C4.32591 1.876 6.01591 0.552246 7.84841 0.552246C9.80341 0.552246 11.8397 2.2635 12.0834 5.561C11.7784 5.45975 11.3334 5.311 11.0659 5.256C10.9997 4.17725 10.0884 1.48975 7.92966 1.52975C7.15591 1.551 6.01591 1.91725 5.42966 2.66975C4.70448 3.56802 4.28263 4.67299 4.22466 5.826C4.08724 7.40697 4.45817 8.99051 5.28341 10.346C5.32896 10.3294 5.37753 10.3225 5.42591 10.326H5.46591C5.76825 10.3205 6.06039 10.4354 6.27805 10.6453C6.49571 10.8552 6.62106 11.143 6.62653 11.4454C6.632 11.7477 6.51714 12.0399 6.30722 12.2575C6.09729 12.4752 5.8095 12.6005 5.50716 12.606H5.46591C5.17094 12.6049 4.88776 12.4901 4.67539 12.2854C4.46301 12.0807 4.33782 11.802 4.32591 11.5072V11.511Z" fill="#764ABC"/>
</g>
<defs>
<clipPath id="clip0_816_235">
<rect width="16" height="16" fill="white" transform="translate(0 0.147461)"/>
</clipPath>
</defs>
</svg>
