<svg width="16" height="16" viewBox="0 0 16 16" fill="none" xmlns="http://www.w3.org/2000/svg">
<g clip-path="url(#clip0_483_280)">
<mask id="mask0_483_280" style="mask-type:luminance" maskUnits="userSpaceOnUse" x="0" y="0" width="16" height="16">
<path d="M15.9687 0H0.214844V16H15.9687V0Z" fill="white"/>
</mask>
<g mask="url(#mask0_483_280)">
<path d="M15.2302 0H0.953305C0.545465 0 0.214844 0.335788 0.214844 0.75V15.25C0.214844 15.6642 0.545465 16 0.953305 16H15.2302C15.6381 16 15.9687 15.6642 15.9687 15.25V0.75C15.9687 0.335788 15.6381 0 15.2302 0Z" fill="#3178C6"/>
<path fill-rule="evenodd" clip-rule="evenodd" d="M9.35427 12.4335V14.1868C9.63395 14.3328 9.9647 14.4424 10.3466 14.5154C10.7284 14.5885 11.1309 14.625 11.554 14.625C11.9664 14.625 12.3581 14.5849 12.7291 14.5045C13.1003 14.4241 13.4256 14.2918 13.7054 14.1073C13.985 13.9227 14.2064 13.6817 14.3696 13.384C14.5327 13.0864 14.6143 12.7184 14.6143 12.2801C14.6143 11.9623 14.5677 11.6838 14.4745 11.4446C14.3812 11.2054 14.2468 10.9926 14.071 10.8063C13.8954 10.62 13.6847 10.4529 13.4392 10.305C13.1935 10.1571 12.9166 10.0173 12.6081 9.88587C12.3823 9.7909 12.1797 9.69867 12.0004 9.6092C11.8211 9.5197 11.6688 9.4284 11.5433 9.33525C11.4178 9.2421 11.321 9.1435 11.2528 9.0394C11.1847 8.93533 11.1506 8.8175 11.1506 8.68602C11.1506 8.56547 11.1811 8.45683 11.2421 8.36005C11.303 8.26325 11.3891 8.18015 11.5002 8.11075C11.6114 8.04138 11.7476 7.9875 11.909 7.94915C12.0704 7.91078 12.2496 7.8916 12.4468 7.8916C12.5903 7.8916 12.7417 7.90258 12.9013 7.92448C13.0608 7.9464 13.2213 7.98018 13.3827 8.02585C13.544 8.0715 13.7008 8.12903 13.8533 8.19843C14.0057 8.26783 14.1464 8.34818 14.2755 8.43948V6.80135C14.0137 6.69908 13.7278 6.62328 13.4176 6.57398C13.1075 6.52465 12.7517 6.5 12.35 6.5C11.9413 6.5 11.554 6.54472 11.1883 6.63422C10.8226 6.7237 10.5008 6.86342 10.2229 7.05335C9.94499 7.24327 9.72537 7.48525 9.56404 7.77927C9.40268 8.0733 9.322 8.42488 9.322 8.83395C9.322 9.35628 9.46991 9.80185 9.76571 10.1707C10.0615 10.5397 10.5106 10.852 11.113 11.1076C11.3496 11.2063 11.5702 11.303 11.7745 11.398C11.9789 11.493 12.1555 11.5916 12.3043 11.6939C12.4531 11.7962 12.5705 11.9076 12.6565 12.0281C12.7427 12.1486 12.7856 12.2856 12.7856 12.439C12.7856 12.5523 12.7588 12.6572 12.705 12.754C12.6512 12.8507 12.5696 12.9347 12.4603 13.006C12.3509 13.0772 12.2147 13.133 12.0515 13.1731C11.8884 13.2133 11.6975 13.2334 11.4787 13.2334C11.1058 13.2334 10.7365 13.1667 10.3708 13.0334C10.005 12.9001 9.66622 12.7001 9.35427 12.4335ZM6.45462 8.0693H8.70661V6.625H2.42969V8.0693H4.67067V14.5H6.45462V8.0693Z" fill="white"/>
</g>
</g>
<defs>
<clipPath id="clip0_483_280">
<rect width="16" height="16" fill="white"/>
</clipPath>
</defs>
</svg>
