<svg width="16" height="17" viewBox="0 0 16 17" fill="none" xmlns="http://www.w3.org/2000/svg">
<g clip-path="url(#clip0_816_110)">
<path d="M15.5144 8.025C15.5144 7.0635 14.7859 6.25437 13.8079 6.0235L15.9983 0.161621H5.14327L7.33864 6.042C6.39139 6.2915 5.69314 7.0865 5.69314 8.02987C5.69314 8.72312 6.07539 9.33787 6.65602 9.71687C6.42702 10.0127 6.16189 10.2856 5.86152 10.5444C5.29614 11.0254 4.66914 11.395 3.99189 11.6401C3.38064 11.2656 3.11589 10.6045 3.35514 10.0126C4.28727 9.75387 4.96514 8.96337 4.96514 8.03425C4.96514 6.89262 3.94114 5.96775 2.68764 5.96775C1.42939 5.96775 0.406016 6.897 0.406016 8.039C0.406016 8.60312 0.660391 9.12062 1.06814 9.49025C1.03239 9.55525 0.996891 9.61962 0.961141 9.689C0.619891 10.3272 0.232641 11.0484 0.0846412 11.8575C-0.210734 13.4751 0.273141 14.7745 1.43964 15.5094C2.09689 15.921 2.82052 16.129 3.59989 16.129C4.93914 16.129 6.29952 15.5186 7.61352 14.9267C8.55102 14.5064 9.51877 14.0669 10.4714 13.8545C10.823 13.7759 11.1896 13.7295 11.5769 13.6787C12.361 13.5771 13.1711 13.4707 13.8996 13.087C14.7503 12.6387 15.3309 11.8896 15.4993 11.0299C15.6261 10.3686 15.4993 9.70312 15.173 9.12062C15.3959 8.79878 15.5151 8.41646 15.5144 8.025ZM14.5213 8.025C14.5213 8.6675 13.9455 9.19 13.2375 9.19C12.5295 9.19 11.9538 8.6675 11.9538 8.025C11.9538 7.81687 12.0149 7.61825 12.1218 7.44725C12.1624 7.38225 12.2136 7.31787 12.2643 7.26225C12.3179 7.20504 12.3778 7.15394 12.4426 7.10987L12.448 7.105C12.4885 7.07725 12.5344 7.04937 12.5803 7.022C12.5803 7.022 12.5853 7.022 12.5853 7.01712C12.6056 7.00787 12.6261 6.99412 12.6468 6.98487C12.6516 6.98487 12.6565 6.98 12.6618 6.98C12.6824 6.97125 12.7078 6.962 12.733 6.95262C12.7571 6.9442 12.7809 6.93495 12.8044 6.92487C12.8094 6.92487 12.8146 6.91987 12.8195 6.91987C12.84 6.91562 12.8605 6.90625 12.8806 6.90187C12.886 6.90187 12.8963 6.897 12.9011 6.897C12.9265 6.89262 12.947 6.88775 12.9724 6.88325H12.9778L13.054 6.86912C13.0593 6.86912 13.069 6.86912 13.0744 6.86475C13.0949 6.86475 13.115 6.85987 13.1355 6.85987H13.1609C13.1863 6.85987 13.2121 6.8555 13.2424 6.8555H13.3088C13.3288 6.8555 13.3445 6.8555 13.3645 6.85987H13.3748C13.4158 6.86487 13.4563 6.86912 13.4973 6.8785C14.0779 6.98925 14.5213 7.461 14.5213 8.025ZM6.56414 1.086H14.5769L12.738 6.00937C12.6618 6.0235 12.5851 6.04637 12.509 6.06937L10.5735 2.48687L8.63252 6.04625C8.55589 6.02337 8.47439 6.00925 8.39327 5.9955L6.56414 1.086ZM10.2063 7.6225C10.1096 7.18787 9.86502 6.79975 9.51877 6.51312L10.5735 4.581L11.6379 6.55462C11.322 6.84125 11.0929 7.2065 11.0011 7.6225H10.2063ZM7.65452 6.8925C7.67989 6.8875 7.70039 6.88325 7.72577 6.87837H7.74089C7.76139 6.874 7.78202 6.874 7.80202 6.869H7.82252C7.84302 6.869 7.85814 6.86462 7.87864 6.86462H8.07739C8.09739 6.86462 8.11302 6.869 8.12814 6.869C8.13839 6.869 8.14327 6.869 8.15352 6.874C8.17402 6.87837 8.18914 6.87837 8.20977 6.88325C8.21452 6.88325 8.21989 6.88325 8.23014 6.88762C8.25564 6.8925 8.28102 6.89687 8.30139 6.90175H8.30639C8.32689 6.90612 8.34739 6.9105 8.36739 6.91987C8.37277 6.91987 8.37764 6.92475 8.38789 6.92475C8.40302 6.92912 8.42352 6.934 8.43864 6.94325C8.44402 6.94325 8.44889 6.94762 8.45427 6.94762C8.47427 6.957 8.49489 6.96187 8.51539 6.97112H8.52027C8.54564 6.97987 8.56614 6.98912 8.58664 7.00337H8.59164C8.61202 7.01262 8.63252 7.02625 8.65302 7.0355C8.65802 7.0355 8.65802 7.0405 8.66277 7.0405C8.68327 7.04925 8.69852 7.06337 8.71902 7.07262L8.72439 7.077C8.78539 7.11862 8.84152 7.165 8.89714 7.21137L8.90252 7.21575C8.95339 7.2665 9.00414 7.32212 9.04514 7.38225C9.17752 7.56725 9.25414 7.78462 9.25414 8.02037C9.25414 8.663 8.67839 9.185 7.97039 9.185C7.26239 9.185 6.68664 8.663 6.68664 8.02037C6.68139 7.47937 7.09402 7.02187 7.65452 6.8925ZM2.64177 6.85975C3.34989 6.85975 3.92552 7.38225 3.92552 8.02475C3.92552 8.66737 3.34989 9.18975 2.64177 9.18975C1.93377 9.18975 1.35802 8.66737 1.35802 8.02475C1.35802 7.38225 1.93377 6.85975 2.64177 6.85975ZM14.4905 10.8681C14.3786 11.4594 13.9758 11.9775 13.385 12.287C12.8298 12.5785 12.1471 12.6707 11.4289 12.7631C11.0369 12.8139 10.6243 12.8695 10.2268 12.9574C9.16727 13.1932 8.14864 13.6556 7.16039 14.099C5.89714 14.6679 4.70477 15.204 3.59989 15.204C3.02414 15.204 2.50952 15.0561 2.02077 14.7465C0.900141 14.0439 0.955766 12.7265 1.08864 12.0052C1.21064 11.33 1.55202 10.6967 1.87814 10.0912C1.89814 10.0541 1.91377 10.0219 1.93377 9.98475C2.04614 10.0219 2.16327 10.0497 2.28539 10.0682C2.09202 11.0482 2.64177 12.0605 3.71164 12.56L3.90539 12.6522L4.11402 12.5829C5.00564 12.2962 5.83077 11.8295 6.55927 11.2054C6.97189 10.8539 7.32352 10.475 7.61889 10.0634C7.73602 10.082 7.85327 10.0869 7.97039 10.0869C9.03002 10.0869 9.92114 9.42562 10.176 8.538H11.0315C11.2864 9.43012 12.1779 10.0867 13.2375 10.0867C13.6604 10.0867 14.0525 9.9805 14.3884 9.80025C14.5213 10.1469 14.5618 10.5072 14.4905 10.8681Z" fill="#99425B"/>
</g>
<defs>
<clipPath id="clip0_816_110">
<rect width="16" height="16" fill="white" transform="translate(0 0.147461)"/>
</clipPath>
</defs>
</svg>
