<svg width="16" height="16" viewBox="0 0 16 16" fill="none" xmlns="http://www.w3.org/2000/svg">
<g clip-path="url(#clip0_483_275)">
<path d="M0 16V0H16V16H0Z" fill="#FFD600"/>
<path d="M10.4618 11.9764C10.7693 12.476 11.1036 12.9546 11.8116 12.9546C12.4062 12.9546 12.7182 12.6591 12.7182 12.2502C12.7182 11.7609 12.3956 11.5871 11.7413 11.3022L11.3827 11.1493C10.3476 10.7102 9.65911 10.16 9.65911 8.99773C9.65911 7.92663 10.4791 7.11151 11.7604 7.11151C12.6729 7.11151 13.3284 7.42751 13.8013 8.25508L12.684 8.96928C12.4382 8.53018 12.1724 8.35728 11.7604 8.35728C11.34 8.35728 11.0738 8.62263 11.0738 8.96928C11.0738 9.39773 11.3404 9.57108 11.956 9.83641L12.3147 9.98928C13.5347 10.5089 14.2227 11.0395 14.2227 12.2324C14.2227 13.5177 13.2076 14.2222 11.8449 14.2222C10.512 14.2222 9.75511 13.5533 9.33379 12.7253L10.4618 11.9764ZM5.31244 12.0129C5.53734 12.4155 5.87911 12.7253 6.37066 12.7253C6.84089 12.7253 7.11156 12.5395 7.11156 11.8173V7.11108H8.59289V12.0449C8.59289 13.5413 7.72489 14.2222 6.45734 14.2222C5.31201 14.2222 4.48534 13.4462 4.14844 12.7253L5.31244 12.0129Z" fill="#000001"/>
</g>
<defs>
<clipPath id="clip0_483_275">
<rect width="16" height="16" fill="white"/>
</clipPath>
</defs>
</svg>
