<svg width="24" height="25" viewBox="0 0 24 25" fill="none" xmlns="http://www.w3.org/2000/svg">
<path d="M12 12.6665C14.2091 12.6665 16 10.8756 16 8.6665C16 6.45736 14.2091 4.6665 12 4.6665C9.79086 4.6665 8 6.45736 8 8.6665C8 10.8756 9.79086 12.6665 12 12.6665Z" stroke="#111827" stroke-width="1.5" stroke-linecap="round" stroke-linejoin="round"/>
<path d="M22 17.9463C22 18.5477 21.7625 19.1253 21.3383 19.5526C20.3619 20.5366 19.415 21.5626 18.4021 22.5108C18.17 22.725 17.8017 22.7172 17.5795 22.4933L14.6615 19.5526C13.7795 18.6637 13.7795 17.2288 14.6615 16.3399C15.5522 15.4423 17.0032 15.4423 17.8938 16.3399L17.9999 16.4468L18.1059 16.34C18.533 15.9094 19.1146 15.6665 19.7221 15.6665C20.3297 15.6665 20.9113 15.9093 21.3383 16.3399C21.7625 16.7672 22 17.3449 22 17.9463Z" stroke="#e6a6a7" stroke-width="1.5" stroke-linejoin="round"/>
<path d="M5 20.6665V19.6665C5 15.8005 8.13401 12.6665 12 12.6665C13.0736 12.6665 14.0907 12.9082 15 13.3401" stroke="#111827" stroke-width="1.5" stroke-linecap="round" stroke-linejoin="round"/>
</svg>
