<svg width="16" height="17" viewBox="0 0 16 17" fill="none" xmlns="http://www.w3.org/2000/svg">
<g clip-path="url(#clip0_554_401)">
<mask id="mask0_554_401" style="mask-type:luminance" maskUnits="userSpaceOnUse" x="0" y="0" width="16" height="17">
<path d="M15.8398 0.666626H0.0859375V16.6666H15.8398V0.666626Z" fill="white"/>
</mask>
<g mask="url(#mask0_554_401)">
<path d="M0.366231 10.7863C0.180499 10.0993 0.0859375 9.38576 0.0859375 8.66711C0.0859375 5.38641 2.11466 2.38666 5.13453 1.20374L5.53047 2.24448C2.93104 3.26296 1.18515 5.84381 1.18515 8.66711C1.18515 9.28641 1.26619 9.8997 1.42575 10.4907L0.366231 10.7863Z" fill="#58D09E"/>
<path d="M5.08203 1.22928C5.7353 0.969866 6.42414 0.799769 7.12787 0.724647C10.3404 0.381721 13.4899 2.1173 14.9639 5.0439L13.9862 5.5526C12.7171 3.03349 10.0074 1.5398 7.24277 1.83492C6.63632 1.89965 6.04425 2.04562 5.48218 2.26857L5.08203 1.22928Z" fill="#58D09E"/>
<path d="M11.5664 14.4838C13.7115 13.0951 14.9063 10.6306 14.6843 8.05354C14.6056 7.14042 14.3561 6.26832 13.9439 5.46319L14.9179 4.94714C15.3973 5.88317 15.6877 6.89537 15.7791 7.95627C16.037 10.9501 14.6495 13.8122 12.1572 15.4254L11.5664 14.4838Z" fill="#27272A"/>
<path d="M5.62588 7.01646C6.26324 7.01646 6.78248 7.36166 7.04926 7.96384L7.07038 8.01096L8.14085 7.64176L8.11806 7.58611C7.70354 6.56076 6.74871 5.92346 5.62588 5.92346C4.83648 5.92346 4.19486 6.18046 3.66469 6.70811C3.13785 7.23234 2.87109 7.89191 2.87109 8.66881C2.87109 9.43886 3.13785 10.095 3.66469 10.6192C4.19486 11.1469 4.83648 11.4039 5.62588 11.4039C6.74871 11.4039 7.70354 10.7666 8.11806 9.74211L8.14085 9.68644L7.06866 9.31636L7.04842 9.36521C6.80948 9.95711 6.27762 10.3109 5.62588 10.3109C5.18179 10.3109 4.80695 10.1533 4.50974 9.84316C4.20921 9.52881 4.05726 9.13394 4.05726 8.66966C4.05726 8.20196 4.20584 7.81481 4.50974 7.48586C4.80608 7.17411 5.18179 7.01646 5.62588 7.01646Z" fill="#27272A"/>
<path d="M12.3292 6.02454L10.8036 9.94509L9.26796 6.02454H8.01172L10.1654 11.3756L8.63308 15.1496L9.73145 15.3715L13.5162 6.02454H12.3292Z" fill="#27272A"/>
<path d="M8.82953 14.6631L8.56191 15.321C8.50872 15.4512 8.38714 15.5394 8.25038 15.5454C8.16007 15.5488 8.06889 15.5514 7.97685 15.5514C4.82697 15.5497 2.04013 13.2943 1.34954 10.1866L0.277344 10.4325C0.664851 12.1756 1.63743 13.7577 3.01607 14.8884C4.41077 16.0319 6.16762 16.6632 7.96504 16.6666C7.96757 16.6666 7.98106 16.6666 7.98106 16.6666C8.08661 16.6666 8.19128 16.6641 8.29597 16.6598C8.85993 16.6358 9.36396 16.2769 9.57922 15.745L9.92873 14.885L8.82953 14.6631Z" fill="#27272A"/>
</g>
</g>
<defs>
<clipPath id="clip0_554_401">
<rect width="16" height="16" fill="white" transform="translate(0 0.666626)"/>
</clipPath>
</defs>
</svg>
