<svg width="102" height="31" viewBox="0 0 102 31" fill="none" xmlns="http://www.w3.org/2000/svg">
<g clip-path="url(#clip0_389_313)">
<path d="M6.49651 22.2468C6.00379 21.9681 5.60734 21.5464 5.35969 21.0373C5.11203 20.5283 5.02484 19.9561 5.10968 19.3964C5.88459 14.1913 8.50254 9.43748 12.4871 5.99999C16.4717 2.5625 21.558 0.669862 26.8204 0.666504C26.9719 0.666504 27.123 0.668019 27.2737 0.671049C27.5682 0.676047 27.8534 0.775363 28.0873 0.95441C28.3213 1.13346 28.4917 1.3828 28.5734 1.66582C28.6552 1.94884 28.6441 2.25062 28.5417 2.52684C28.4392 2.80307 28.251 3.03918 28.0045 3.2005C25.7698 4.61122 24.0117 6.66215 22.9591 9.08619C22.6078 8.88754 22.2176 8.7673 21.8154 8.73374C21.7536 8.72861 21.573 8.72415 21.5675 8.72415C18.3896 8.73019 15.3004 9.77289 12.769 11.694C10.2375 13.615 8.40188 16.3096 7.54081 19.3686C7.26769 20.3536 6.91852 21.3159 6.49647 22.2468H6.49651Z" fill="white"/>
<path d="M22.9555 9.08618C23.4482 9.36487 23.8446 9.78665 24.0923 10.2957C24.3399 10.8047 24.4271 11.3769 24.3423 11.9366C23.5674 17.1417 20.9494 21.8956 16.9648 25.3331C12.9802 28.7706 7.89381 30.6632 2.63136 30.6665C2.47985 30.6665 2.32876 30.665 2.1781 30.662C1.88354 30.657 1.59835 30.5576 1.36441 30.3786C1.13047 30.1995 0.960105 29.9502 0.878335 29.6672C0.796566 29.3842 0.807702 29.0824 0.910107 28.8062C1.01251 28.5299 1.20079 28.2938 1.44729 28.1325C3.68197 26.7218 5.44007 24.6709 6.49264 22.2468C6.84399 22.4455 7.23417 22.5657 7.63639 22.5993C7.69812 22.6044 7.87879 22.6088 7.88429 22.6088C11.0622 22.6029 14.1514 21.5602 16.6829 19.6391C19.2145 17.718 21.0501 15.0235 21.9112 11.9644C22.1843 10.9795 22.5335 10.0172 22.9555 9.08623L22.9555 9.08618Z" fill="white"/>
<path d="M35.75 26.6763V6.64087H48.7443V9.61762H38.8413V15.1702H47.4566V18.147H38.8413V26.6763H35.75Z" fill="white"/>
<path d="M55.7281 26.6765H52.7802V11.6499H55.7281V26.6765ZM54.2113 8.38702C53.9411 8.40895 53.6692 8.37448 53.413 8.28579C53.1568 8.19709 52.9219 8.05612 52.723 7.8718C52.3896 7.50513 52.2146 7.02152 52.2362 6.52637C52.2351 6.05188 52.4084 5.59352 52.723 5.23836C52.9125 5.03782 53.1446 4.88233 53.4022 4.78333C53.6597 4.68433 53.9362 4.64435 54.2112 4.66632C54.4815 4.64439 54.7533 4.67887 55.0095 4.76756C55.2657 4.85625 55.5007 4.99723 55.6995 5.18154C56.0327 5.54836 56.2075 6.03191 56.1859 6.52696C56.1869 7.00137 56.0139 7.45968 55.6995 7.81498C55.51 8.01553 55.2779 8.17103 55.0203 8.27003C54.7628 8.36902 54.4863 8.409 54.2112 8.38702H54.2113Z" fill="white"/>
<path d="M68.8657 15.5999C68.3337 15.0672 67.7202 14.6228 67.0483 14.2833C66.4724 13.9669 65.8302 13.7904 65.1736 13.7681C64.7733 13.768 64.3744 13.816 63.9856 13.9112C63.6148 13.9956 63.2737 14.1785 62.9982 14.4407C62.8572 14.5914 62.7488 14.7696 62.6799 14.9642C62.6109 15.1587 62.5828 15.3654 62.5974 15.5713C62.5893 15.8796 62.6736 16.1833 62.8394 16.4434C63.0052 16.7035 63.2449 16.9081 63.5279 17.031C64.2504 17.3595 65.0028 17.6183 65.7746 17.8037C66.5551 18.013 67.3202 18.276 68.0644 18.5908C68.7846 18.8879 69.4192 19.3601 69.9107 19.9646C70.4384 20.6997 70.6961 21.5945 70.6402 22.4977C70.6624 23.3658 70.3845 24.2151 69.8534 24.9022C69.318 25.578 68.6183 26.1052 67.821 26.4334C66.9931 26.786 66.1019 26.9662 65.202 26.9629C64.1024 26.9608 63.0121 26.762 61.9824 26.3762C60.9077 25.9735 59.9696 25.2737 59.2773 24.3583L61.2809 22.641C61.7721 23.2135 62.3699 23.685 63.0411 24.0291C63.7967 24.3841 64.6255 24.5557 65.4599 24.53C65.8302 24.5287 66.1977 24.4658 66.5474 24.344C66.9029 24.2246 67.2227 24.018 67.4776 23.743C67.7482 23.4305 67.8867 23.0251 67.8639 22.6124C67.8751 22.4143 67.8439 22.216 67.7724 22.0309C67.7009 21.8458 67.5906 21.6781 67.4491 21.5391C67.1287 21.256 66.7537 21.0417 66.3472 20.9094C65.8494 20.7355 65.3431 20.5875 64.8301 20.4658C64.0069 20.2358 63.1991 19.9538 62.4116 19.6214C61.6487 19.3085 60.9715 18.8179 60.4365 18.1903C59.8783 17.468 59.5989 16.5687 59.6497 15.6573C59.6283 14.8246 59.8963 14.0104 60.408 13.3532C60.9354 12.6977 61.6195 12.1857 62.3972 11.8648C63.2294 11.5095 64.1258 11.3292 65.0306 11.3354C66.0296 11.3549 67.0176 11.5486 67.95 11.9078C68.9695 12.2684 69.8704 12.902 70.5545 13.7396L68.8657 15.5999Z" fill="white"/>
<path d="M73.9609 26.6763V5.49634H76.9091V18.3761L83.6925 11.6498H87.6706L80.6299 18.2615L87.8716 26.6763H84.093L78.5404 20.2078L76.9091 21.7537V26.6763H73.9609Z" fill="white"/>
<path d="M93.7085 26.6765H90.7604V11.6499H93.7085V26.6765ZM92.1918 8.38702C91.9215 8.40895 91.6497 8.37448 91.3935 8.28579C91.1373 8.19709 90.9023 8.05612 90.7035 7.8718C90.37 7.50513 90.195 7.02152 90.2166 6.52637C90.2156 6.05188 90.3888 5.59352 90.7035 5.23836C90.893 5.03781 91.1251 4.88231 91.3827 4.78331C91.6402 4.68432 91.9167 4.64434 92.1918 4.66632C92.462 4.64439 92.7338 4.67887 92.99 4.76756C93.2463 4.85625 93.4812 4.99723 93.6801 5.18154C94.0132 5.54836 94.188 6.03191 94.1664 6.52697C94.1675 7.00137 93.9944 7.45968 93.6801 7.81498C93.4905 8.01553 93.2584 8.17103 93.0009 8.27003C92.7433 8.36902 92.4668 8.409 92.1918 8.38702Z" fill="white"/>
<path d="M101.179 5.49634H98.2305V26.6767H101.179V5.49634Z" fill="white"/>
</g>
<defs>
<clipPath id="clip0_389_313">
<rect width="100.355" height="30" fill="white" transform="translate(0.824219 0.666504)"/>
</clipPath>
</defs>
</svg>
