<svg width="150" height="28" viewBox="0 0 150 28" fill="none" xmlns="http://www.w3.org/2000/svg">
<path d="M57.328 0.711067C48.659 0.810337 38.9453 1.36986 29.0982 2.32646C26.8532 2.55207 20.3403 3.39135 17.295 3.8516C11.7158 4.70893 7.02564 5.89114 3.51359 7.32604C1.09072 8.31874 0.179364 9.10387 0.0237668 10.3132C-0.0429177 10.9449 0.0237668 11.3871 0.312733 11.8924C1.13517 13.4086 2.35772 14.2478 4.64722 14.8615C5.98091 15.2225 11.2934 16.3506 11.6491 16.3506C11.738 16.3506 12.3382 16.5311 12.9606 16.7567C14.7166 17.3613 15.9836 17.2891 15.9836 16.5942C15.9836 16.3145 13.3829 15.421 11.9603 15.2225C10.8489 15.0601 6.44771 14.0764 5.3363 13.7425C3.11348 13.0656 1.84648 10.3583 3.26908 9.25729C4.40271 8.36386 6.64776 7.48848 10.5821 6.41456C16.0058 4.92552 25.8751 3.58989 38.434 2.64231C47.5476 1.94743 52.1044 1.79401 63.663 1.78498C72.5987 1.77596 74.3325 1.83913 77.7779 2.29938C80.0007 2.60622 81.5567 3.05744 81.5567 3.4094C81.5567 4.05014 79.0004 5.2865 75.355 6.40554C70.9538 7.77727 66.5749 8.79704 53.8826 11.4322C39.3232 14.4554 31.9656 16.2332 27.8312 17.7223C27.1199 17.984 26.3197 18.2638 26.0752 18.363L25.6084 18.5255L26.1196 17.6501C26.8532 16.4318 27.3644 14.4374 27.2755 13.1108C27.2088 12.0188 27.1866 11.9917 26.6309 11.8203C26.1196 11.6668 25.964 11.6578 25.5195 11.7481C25.2305 11.8112 24.9193 11.9105 24.8304 11.9646C24.7415 12.0188 24.6526 12.5964 24.6526 13.2371C24.6526 15.2857 23.8968 17.0454 21.5184 20.5921C19.7401 23.2363 18.7399 24.3824 17.9619 24.6892C17.2284 24.978 17.1617 25.1585 17.6729 25.4473C18.2064 25.7631 19.14 25.709 20.1625 25.3029C20.8738 25.0231 21.1405 24.7975 21.8518 23.8951C22.5409 23.0287 22.7632 22.8572 22.941 22.9836C23.9857 23.7416 27.7645 24.599 32.0768 25.0502C36.2112 25.4924 38.3229 25.5556 52.3489 25.6458C63.0184 25.718 65.6858 25.7631 66.4415 25.8714C67.5085 26.0248 68.5976 26.0429 69.8202 25.9256C70.6204 25.8534 73.0655 25.8985 86.2246 26.2775C96.5829 26.5753 106.608 27.0085 111.187 27.3695C113.098 27.5139 114.165 27.4778 114.543 27.2522C114.988 26.9905 114.988 26.8822 114.499 26.6385C114.165 26.4761 113.587 26.4129 110.564 26.2234C108.608 26.1061 106.652 26.0068 106.23 26.0068C105.585 25.9978 105.763 25.9617 107.164 25.7902C110.387 25.4022 113.098 24.7163 117.566 23.1641C118.722 22.758 120.434 22.0992 121.345 21.7021L123.012 20.9801L123.879 21.4314C126.413 22.7399 130.659 23.4799 135.549 23.4799C139.95 23.4799 148.975 23.0016 149.619 22.7399C150.131 22.5324 150.131 22.2887 149.597 22.027L149.175 21.8194L144.551 22.0721C138.55 22.406 134.215 22.4782 132.237 22.2706C128.925 21.9277 126.724 21.287 124.835 20.1228C123.479 19.2835 122.768 19.3106 120.812 20.3033C118.478 21.4855 112.898 23.4619 110.053 24.1207C105.474 25.1856 101.206 25.1585 99.7393 24.0485C98.8279 23.3536 98.739 22.9294 99.4503 22.4241C100.339 21.7743 103.007 19.0128 104.185 17.5237C104.985 16.504 105.808 14.1666 105.741 13.1017C105.674 12.1812 105.652 12.1542 105.074 12.0188C104.518 11.9015 104.385 11.9015 103.852 12.0188C103.029 12.2083 102.496 12.6144 100.917 14.2298C98.1611 17.0454 96.6496 19.446 96.2717 21.6119C96.1383 22.3158 95.9605 22.7128 95.7382 22.8211C95.5604 22.9114 94.938 23.2994 94.3601 23.6875C92.7597 24.7434 92.3373 24.9239 91.3815 24.9239C90.9592 24.9239 90.4257 24.8607 90.2034 24.7795C89.8255 24.6441 89.87 24.608 90.8925 24.1929C92.4262 23.5702 93.1598 22.9114 93.3376 21.9819C93.5377 20.9801 93.3154 20.4296 92.6485 20.204C92.2262 20.0687 91.8483 20.0416 90.648 20.0687C88.7141 20.1138 87.7583 20.3935 86.847 21.1877C86.269 21.6841 86.1801 21.9006 86.069 22.8031L85.9356 23.8409H84.6908C82.2902 23.8409 80.4675 23.3085 79.1116 22.2165L78.4447 21.675L78.956 21.2419C80.0007 20.3935 82.4458 17.8306 82.7792 17.2079C82.9793 16.8559 83.2016 15.9625 83.2682 15.2225C83.3794 13.9681 83.3572 13.8508 82.957 13.6522C82.1791 13.2732 80.8231 13.3905 79.7562 13.95C79.0227 14.3291 77.2444 15.6196 76.7109 16.1701C75.3995 17.5147 74.7326 19.9152 75.3106 21.1336C75.5995 21.7111 75.6217 21.6841 74.4881 22.3789C74.3325 22.4692 74.1325 22.4602 73.4878 22.3519C71.9541 22.0902 69.0644 22.2165 67.1306 22.6136C66.3082 22.7941 64.7077 23.5882 64.5299 23.9131C64.2854 24.3914 64.2854 24.3914 62.9517 24.3643L61.6625 24.3373L61.5958 24.0034C61.5513 23.8138 61.6847 23.4077 61.907 23.1009C62.5738 22.0992 62.5738 21.8916 61.8847 21.7111C61.329 21.5667 61.2179 21.5667 60.6844 21.6841C59.6397 21.9277 58.9506 23.0016 58.8839 24.5087C58.8839 24.6531 39.5454 24.4997 36.8781 24.3373C31.8323 24.0395 27.7201 23.4168 25.8307 22.6767C24.1413 22.0089 24.0746 21.2419 25.6751 20.2672C29.076 18.1825 37.6116 15.9445 57.7725 11.8383C75.2439 8.27361 83.3572 5.75577 84.1351 3.64404C84.6686 2.18206 80.0229 1.054 72.1986 0.747166C69.9091 0.656919 63.2407 0.638872 57.328 0.711067ZM80.4453 16.3235C80.1785 17.0545 79.2672 18.2367 78.3558 19.0669L77.8001 19.5543V19.2204C77.7779 18.7511 78.3558 17.5959 79.0004 16.8018C79.5784 16.1069 80.3786 15.4842 80.5786 15.5654C80.6453 15.5925 80.5786 15.9354 80.4453 16.3235ZM102.029 16.6123C101.495 17.4967 100.162 19.0128 100.05 18.8865C99.8727 18.6699 102.118 15.7369 102.384 15.8452C102.451 15.8632 102.296 16.2152 102.029 16.6123ZM90.7591 21.2779C90.9592 21.4855 90.9147 21.9458 90.6702 22.3067C90.4035 22.6948 89.2254 23.4799 88.892 23.4799C88.603 23.4799 88.603 22.6226 88.9142 22.045C89.2698 21.3501 90.3812 20.8899 90.7591 21.2779ZM78.0002 23.507C79.7562 24.4817 81.8012 24.8878 85.291 24.96C87.047 24.987 87.5583 25.0412 87.2693 25.1585C87.2026 25.1856 84.6242 25.1404 81.5122 25.0682C78.4225 24.987 75.4217 24.9148 74.8438 24.8968C73.8213 24.8787 73.5323 24.8156 73.9769 24.6982C74.088 24.6712 74.7771 24.2651 75.4662 23.7958C76.1775 23.3265 76.8221 22.9385 76.8888 22.9475C76.9554 22.9475 77.4445 23.2002 78.0002 23.507ZM72.1764 23.4529C72.0875 23.6333 70.3092 24.0665 69.1089 24.1929C67.2862 24.4004 67.1084 24.4095 67.1084 24.2741C67.1084 24.0485 68.3087 23.5702 69.22 23.4438C69.7091 23.3716 70.5982 23.3085 71.1761 23.3085C72.0875 23.2994 72.2431 23.3265 72.1764 23.4529ZM97.6721 24.7434C98.1611 25.0502 98.8502 25.3751 99.2281 25.4744L99.8949 25.6548L98.4501 25.6097C97.6499 25.5736 96.4718 25.5285 95.8494 25.5014L94.6713 25.4473L95.3159 25.0682C95.6493 24.8697 96.1161 24.5899 96.3162 24.4456C96.5162 24.3102 96.7163 24.2019 96.7385 24.2019C96.783 24.2019 97.2053 24.4456 97.6721 24.7434Z" fill="white"/>
<path d="M117.611 12.7046C116.855 12.9121 116.967 13.3543 117.856 13.7875C118.278 13.977 118.856 14.32 119.167 14.5456C119.612 14.8885 119.834 14.9607 120.456 14.9787C121.123 15.0058 121.345 14.9517 122.501 14.4463C123.213 14.1395 123.835 13.8056 123.924 13.7153C124.457 13.0114 122.235 12.6955 121.212 13.3273L120.834 13.5619L120.101 13.1197C119.501 12.7497 118.878 12.5692 118.234 12.5602C118.167 12.5602 117.878 12.6233 117.611 12.7046Z" fill="white"/>
<path d="M56.3707 16.0615C55.7705 16.3232 55.9039 16.6661 56.6819 16.9368C57.8155 17.3159 59.0159 17.5234 60.0828 17.5234C61.172 17.5234 61.5499 17.379 61.5499 16.9549C61.5499 16.6932 61.2387 16.5668 60.3273 16.4766C59.9494 16.4405 59.1937 16.2961 58.638 16.1517C57.4377 15.8539 56.8819 15.8359 56.3707 16.0615Z" fill="white"/>
</svg>
