<svg width="120" height="31" viewBox="0 0 120 31" fill="none" xmlns="http://www.w3.org/2000/svg">
<g clip-path="url(#clip0_389_336)">
<path d="M49.2168 28.854C47.8843 28.8594 46.5645 28.5698 45.3365 28.0028C44.1268 27.4501 43.0288 26.6406 42.1056 25.6209C41.1937 24.6021 40.4668 23.4026 39.9636 22.0862C39.4493 20.7374 39.1921 19.3379 39.1921 17.8891C39.1797 15.9729 39.6471 14.0898 40.5434 12.4447C41.4388 10.7873 42.7169 9.41791 44.2488 8.47445C45.7938 7.50735 47.5445 7.00509 49.3235 7.01856C50.7043 7.01856 52.0029 7.30889 53.2205 7.88815C55.6187 8.97773 57.5253 11.0647 58.5227 13.692C59.0499 15.028 59.3134 16.4149 59.3134 17.851C59.3134 19.8298 58.8634 21.6704 57.9622 23.3716C57.0813 25.0381 55.8152 26.4206 54.2915 27.3798C52.7519 28.3608 51.0001 28.87 49.2194 28.854H49.2168ZM49.2168 24.2031C50.2711 24.2031 51.2366 23.9268 52.1148 23.3716C52.9838 22.8268 53.7096 22.0452 54.222 21.1025C54.7492 20.1441 55.0115 19.0997 55.0115 17.9652C55.0115 16.8687 54.7543 15.8356 54.24 14.8646C53.7531 13.9004 53.0449 13.0925 52.1855 12.5208C51.3243 11.9424 50.3321 11.6411 49.3222 11.6512C48.2937 11.6512 47.3268 11.9274 46.4255 12.4827C45.5416 13.019 44.8027 13.8018 44.2835 14.7518C43.7599 15.6836 43.4859 16.7581 43.4928 17.8524C43.4928 18.9856 43.7448 20.044 44.2488 21.0278C44.7425 21.9876 45.4565 22.7893 46.3201 23.3532C47.1976 23.9201 48.1983 24.2139 49.2168 24.2031ZM23.1941 0.666504V10.7238C23.8035 9.5639 24.5994 8.68163 25.583 8.077C26.5781 7.47097 27.7018 7.16936 28.9541 7.16936C29.6578 7.16954 30.3572 7.29081 31.0266 7.52876C31.7171 7.76835 32.3432 8.12069 32.9038 8.5872C33.4653 9.04008 33.9627 9.5815 34.3798 10.1939C35.0483 11.1664 35.4739 12.1416 35.6616 13.1254C35.8609 14.095 35.9599 15.3113 35.9599 16.7729V23.9001H38.4362V28.3058H29.0942V23.9001H31.5705V18.0399C31.5705 16.7926 31.5409 15.9047 31.4831 15.3748C31.4355 14.8321 31.2491 14.2783 30.9212 13.7117C30.1716 12.4503 29.0132 11.8203 27.4447 11.8203C26.7645 11.8203 26.1448 11.9584 25.583 12.2361C25.0135 12.5197 24.5138 12.9477 24.125 13.4848C23.8458 13.85 23.6262 14.2653 23.4757 14.7123C23.3343 15.1422 23.2533 15.5707 23.2301 15.9991C23.207 16.4149 23.1954 16.9575 23.1954 17.6241V23.9001H25.6704V28.3058H16.3297V23.9001H18.8047V5.0708H16.3297V0.666504H23.1941ZM0.0707138 22.3131H4.56425C4.63368 23.2447 4.94482 23.9945 5.4951 24.5625C6.04539 25.1164 6.76538 25.394 7.65509 25.394C8.09866 25.394 8.52037 25.2869 8.91894 25.0727C9.31107 24.8745 9.64987 24.5686 9.9025 24.1848C10.1596 23.793 10.2882 23.3462 10.2882 22.8416C10.2882 21.9467 10.0182 21.3364 9.48079 21.0094C8.95365 20.6684 8.12823 20.34 7.00452 20.0257C5.6121 19.6466 4.41768 19.2364 3.42255 18.7967C2.47055 18.3681 1.62717 17.6936 0.964279 16.8306C0.322712 15.9723 0 14.8448 0 13.4467C0 12.1726 0.298284 11.0705 0.896136 10.1375C1.49717 9.18885 2.32256 8.43755 3.28369 7.96425C4.29709 7.45552 5.4001 7.19715 6.51467 7.20742C8.50494 7.20742 9.9565 7.82472 10.8694 9.06075V7.62318H14.1003V13.2381H9.85107C9.81507 12.5067 9.56436 11.9218 9.09508 11.4806C8.63865 11.0268 8.06651 10.7999 7.3748 10.7999C6.95309 10.7999 6.55581 10.8873 6.18038 11.0649C5.8282 11.2201 5.51955 11.4744 5.28553 11.802C5.05154 12.129 4.93454 12.5208 4.93454 12.9732C4.93454 13.5651 5.08625 14.0443 5.39096 14.4107C5.69439 14.7631 6.08139 15.028 6.54938 15.2042C7.01738 15.3804 7.53295 15.5382 8.0948 15.6764C9.54636 16.0428 10.7639 16.4459 11.7462 16.887C12.7413 17.3155 13.5719 17.9708 14.2405 18.8531C14.9078 19.7354 15.2407 20.9009 15.2407 22.3512C15.2407 23.6619 14.9257 24.8204 14.2932 25.8295C13.6582 26.8281 12.7827 27.6136 11.7642 28.0986C10.6947 28.6061 9.54042 28.8634 8.37508 28.854C6.25624 28.854 4.60668 28.1042 3.42512 26.6047V28.3058H0.0681424V22.3131H0.0707138ZM109.902 28.854C108.57 28.8592 107.251 28.5697 106.023 28.0028C104.813 27.4501 103.715 26.6406 102.792 25.6209C101.88 24.6021 101.153 23.4025 100.65 22.0862C100.135 20.7374 99.8774 19.3379 99.8774 17.8891C99.8774 15.923 100.327 14.1077 101.229 12.4447C102.124 10.7873 103.402 9.41796 104.934 8.47445C106.479 7.50735 108.23 7.00509 110.009 7.01856C111.39 7.01856 112.689 7.30889 113.907 7.88815C116.305 8.97773 118.212 11.0647 119.209 13.692C119.736 15.028 120 16.4149 120 17.851C120 19.8298 119.549 21.6704 118.647 23.3716C117.767 25.0379 116.501 26.4204 114.978 27.3798C113.437 28.3616 111.684 28.8708 109.902 28.854ZM109.902 24.2031C110.956 24.2031 111.922 23.9254 112.8 23.3716C113.669 22.8267 114.395 22.0451 114.907 21.1025C115.434 20.1441 115.698 19.0997 115.698 17.9652C115.698 16.8687 115.441 15.8342 114.925 14.8646C114.439 13.8999 113.73 13.0915 112.871 12.5194C112.01 11.9413 111.018 11.64 110.009 11.6498C108.978 11.6498 108.012 11.9274 107.111 12.4813C106.227 13.0176 105.488 13.8004 104.969 14.7504C104.446 15.6823 104.172 16.7568 104.179 17.851C104.179 18.9856 104.43 20.044 104.934 21.0278C105.428 21.9876 106.142 22.7892 107.005 23.3532C107.883 23.9201 108.884 24.2139 109.902 24.2031ZM83.8794 0.666504V10.7238C84.4888 9.5639 85.2847 8.68163 86.2682 8.077C87.2634 7.47097 88.3871 7.16936 89.6394 7.16936C90.3431 7.16954 91.0425 7.29081 91.7119 7.52876C92.4023 7.76835 93.0285 8.12069 93.5903 8.5872C94.1514 9.04018 94.6484 9.5816 95.065 10.1939C95.7336 11.1664 96.1605 12.1416 96.3469 13.1254C96.5462 14.095 96.6452 15.3113 96.6452 16.7729V23.9001H99.1214V28.3058H89.7808V23.9001H92.257V18.0399C92.257 16.7926 92.2275 15.9047 92.1696 15.3748C92.1221 14.8321 91.9356 14.2783 91.6078 13.7117C90.8582 12.4503 89.6998 11.8203 88.1312 11.8203C87.4524 11.8203 86.8327 11.9584 86.2695 12.2361C85.7006 12.5199 85.2013 12.9479 84.8128 13.4848C84.5332 13.8499 84.3131 14.2652 84.1623 14.7123C84.0221 15.1422 83.9398 15.5707 83.918 15.9991C83.8923 16.4149 83.882 16.9575 83.882 17.6241V23.9001H86.357V28.3058H77.0163V23.9001H79.4913V5.0708H77.0163V0.666504H83.882H83.8794ZM60.7547 22.3131H65.2508C65.3202 23.2447 65.6301 23.9945 66.1804 24.5625C66.7307 25.1164 67.4507 25.394 68.3404 25.394C68.7852 25.394 69.2069 25.2869 69.6042 25.0727C69.9964 24.8745 70.3352 24.5686 70.5878 24.1848C70.8449 23.793 70.9735 23.3462 70.9735 22.8416C70.9735 21.9467 70.7048 21.3364 70.1674 21.0094C69.6402 20.6684 68.8148 20.34 67.6911 20.0257C66.2974 19.6466 65.1042 19.2364 64.1091 18.7967C63.1571 18.3681 62.3137 17.6936 61.6508 16.8306C61.008 15.9737 60.6853 14.8448 60.6853 13.4467C60.6853 12.1726 60.9836 11.0705 61.5801 10.1375C62.1816 9.1887 63.0074 8.43739 63.969 7.96425C64.9824 7.45552 66.0854 7.19715 67.1999 7.20742C69.1889 7.20742 70.6405 7.82472 71.5533 9.06075V7.62318H74.7843V13.2381H70.5351C70.5004 12.5067 70.2484 11.9218 69.7804 11.4806C69.3239 11.0268 68.7505 10.7999 68.0601 10.7999C67.6384 10.7999 67.2398 10.8873 66.8657 11.0649C66.513 11.2199 66.2039 11.4742 65.9695 11.802C65.7355 12.129 65.6185 12.5208 65.6185 12.9732C65.6185 13.5651 65.7715 14.0443 66.075 14.4107C66.3797 14.7631 66.7667 15.028 67.2347 15.2042C67.7027 15.3804 68.2182 15.5382 68.7801 15.6764C70.2316 16.0428 71.4479 16.4459 72.4315 16.887C73.4266 17.3155 74.2572 17.9708 74.9258 18.8531C75.5917 19.7354 75.926 20.9009 75.926 22.3512C75.926 23.6619 75.6097 24.8204 74.9772 25.8295C74.3425 26.8278 73.4675 27.6134 72.4495 28.0986C71.38 28.6061 70.2257 28.8634 69.0604 28.854C66.9415 28.854 65.2907 28.1042 64.1091 26.6047V28.3058H60.7547V22.3131Z" fill="white"/>
</g>
<defs>
<clipPath id="clip0_389_336">
<rect width="120" height="30" fill="white" transform="translate(0 0.666504)"/>
</clipPath>
</defs>
</svg>
