<svg width="140" height="26" viewBox="0 0 140 26" fill="none" xmlns="http://www.w3.org/2000/svg">
<g clip-path="url(#clip0_389_356)">
<path d="M0.136719 -2.5249H5.50969V25.1651H0.136719V-2.5249ZM16.2569 20.5511C16.2569 23.1011 14.4533 25.1666 12.2272 25.1666C10.001 25.1666 8.19617 23.0996 8.19617 20.5511C8.19617 18.0011 9.99978 15.9356 12.2259 15.9356C14.4508 15.9356 16.2556 18.0011 16.2556 20.5511H16.2569Z" fill="white"/>
<path fill-rule="evenodd" clip-rule="evenodd" d="M21.2578 -2.5249V24.8651H36.4623V20.9051H24.9773V-2.5249H21.2578ZM45.0351 4.5446C41.1504 4.5446 37.8724 7.3961 37.5495 11.3846L37.5028 11.9651H40.9398L40.97 11.4716C41.0785 9.77359 42.6955 8.1671 44.9682 8.1671C46.2989 8.1671 47.2852 8.5826 47.9335 9.2411C48.5767 9.8936 48.9336 10.8311 48.9336 11.9966C48.9336 12.1841 48.8857 12.2816 48.8327 12.3356C48.7735 12.3971 48.6373 12.4796 48.3497 12.4796H44.6088C42.534 12.4796 40.7746 13.0736 39.5234 14.1896C38.2596 15.3176 37.5482 16.9496 37.5482 18.9176C37.5482 20.7896 38.165 22.3691 39.2749 23.4746C40.3785 24.5741 41.9311 25.1666 43.7549 25.1666C45.8284 25.1666 47.7241 24.2966 48.9336 22.7936V24.8651H52.4904V12.1106C52.4904 9.8666 51.769 7.9586 50.4509 6.6161C49.1367 5.2796 47.2713 4.5446 45.0351 4.5446ZM44.1484 21.5441C43.1747 21.5441 42.4255 21.2561 41.9311 20.7971C41.4468 20.3486 41.1681 19.7051 41.1681 18.8801C41.1681 17.9351 41.5036 17.2001 42.0964 16.6856C42.7018 16.1606 43.6099 15.8396 44.7727 15.8396H48.9349C48.9273 17.6756 48.4682 19.0856 47.68 20.0351C46.8879 20.9891 45.7073 21.5441 44.1484 21.5441Z" fill="white"/>
<path d="M57.4883 25.1666H61.0438V14.404C61.0438 10.9525 62.9193 8.65605 65.4355 8.65605C66.5555 8.65605 67.4585 9.14205 68.0867 9.96855C68.7198 10.8025 69.1045 12.0235 69.1045 13.5385V25.1666H72.66V13.051C72.66 10.6315 72.023 8.57655 70.8551 7.12005C69.6821 5.65904 68.011 4.84604 66.0245 4.84604C63.9976 4.84604 62.2029 5.65604 61.0425 7.30605V5.14604H57.4883V25.1666ZM77.2699 -0.907959V5.14754H73.8241V8.88255H77.2699V18.6925C77.2699 20.6486 77.8122 22.2806 78.8187 23.4236C79.8239 24.5651 81.2466 25.1666 82.9191 25.1666H85.9108V21.3566H83.0175C82.3225 21.3566 81.789 21.0911 81.4283 20.644C81.0625 20.191 80.8254 19.4951 80.8254 18.541V8.88105H85.9108V5.14604H80.8254V-0.906459H77.2699V-0.907959Z" fill="white"/>
<path fill-rule="evenodd" clip-rule="evenodd" d="M107.674 17.7072H104.105L104.017 18.1092C103.78 19.1772 103.286 19.9917 102.56 20.5482C101.828 21.1092 100.825 21.4317 99.546 21.4317C96.8671 21.4317 94.8365 19.1772 94.4757 15.8022H107.299L107.356 15.3447C107.394 15.0477 107.426 14.3817 107.426 13.9527C107.426 11.3172 106.67 8.95918 105.251 7.25668C103.829 5.55118 101.775 4.54468 99.2496 4.54468C96.7006 4.54468 94.6031 5.62468 93.1464 7.46518C91.6959 9.29968 90.9102 11.8512 90.9102 14.7432C90.9102 20.4057 94.3597 25.1667 99.5447 25.1667C103.819 25.1667 106.981 22.5162 107.584 18.3267L107.674 17.7072ZM99.2496 8.16718C100.632 8.16718 101.719 8.64118 102.478 9.44218C103.139 10.1367 103.585 11.1117 103.751 12.3297H94.67C94.9424 11.0547 95.4456 10.0767 96.1204 9.39268C96.8999 8.60368 97.9492 8.16718 99.2496 8.16718Z" fill="white"/>
<path d="M120.064 8.88269H122.826V5.14769H120.261C118.978 5.14769 117.918 5.47619 117.081 6.19919C116.759 6.47848 116.472 6.81196 116.23 7.18919V5.14919H112.676V25.1667H116.23V16.2867C116.23 14.0712 116.47 12.1947 117.071 10.8867C117.368 10.2432 117.747 9.74969 118.224 9.41369C118.7 9.07919 119.3 8.88269 120.064 8.88269ZM124.693 25.1667H128.247V14.4042C128.247 10.9527 130.123 8.65619 132.638 8.65619C133.759 8.65619 134.662 9.14219 135.29 9.96869C135.923 10.8027 136.308 12.0237 136.308 13.5387V25.1667H139.862V13.0512C139.862 10.6317 139.227 8.57669 138.059 7.12019C136.887 5.65919 135.215 4.84619 133.229 4.84619C131.201 4.84619 129.405 5.65619 128.247 7.30619V5.14619H124.692L124.693 25.1667Z" fill="white"/>
</g>
<defs>
<clipPath id="clip0_389_356">
<rect width="139.725" height="25" fill="white" transform="translate(0.136719 0.166504)"/>
</clipPath>
</defs>
</svg>
