<svg width="120" height="31" viewBox="0 0 120 31" fill="none" xmlns="http://www.w3.org/2000/svg">
<path fill-rule="evenodd" clip-rule="evenodd" d="M12.0225 29.1665H5.82345C5.03574 29.1665 4.39717 28.5199 4.39717 27.7222C4.39717 26.9245 5.03574 26.278 5.82345 26.278H12.0225C15.3948 26.278 18.1384 23.8996 18.1384 20.9757V10.3571C18.1384 7.43341 15.3948 5.05505 12.0225 5.05505H8.96845C5.59612 5.05505 2.85256 7.43341 2.85256 10.3571V16.9012C2.85256 18.7684 4.63534 20.2874 6.82672 20.2874H11.1981C12.2972 20.2874 13.1916 19.5631 13.1916 18.6729V11.5724C13.1916 10.6821 12.2972 9.9576 11.1981 9.9576H9.6751C8.88732 9.9576 8.24882 9.31131 8.24882 8.51359C8.24882 7.71592 8.88732 7.06932 9.6751 7.06932H11.1981C13.8701 7.06932 16.044 9.08937 16.044 11.5724V18.6729C16.044 21.1559 13.8701 23.1759 11.1981 23.1759H6.82672C3.06244 23.1759 0 20.3611 0 16.9012V10.3571C0 5.84066 4.02324 2.1665 8.96845 2.1665H12.0225C16.9678 2.1665 20.991 5.84066 20.991 10.3571V20.9757C20.991 25.4923 16.9678 29.1665 12.0225 29.1665Z" fill="white"/>
<path fill-rule="evenodd" clip-rule="evenodd" d="M9.7328 15.8765H8.99268C8.58359 15.8765 8.251 15.5397 8.251 15.1255V11.7161C8.251 10.9184 7.61248 10.2717 6.82472 10.2717C6.03704 10.2717 5.39844 10.9184 5.39844 11.7161V15.6651C5.39844 15.9814 5.50012 16.2731 5.67063 16.511C6.21006 17.8323 7.49534 18.765 8.99268 18.765H9.7328C10.5205 18.765 11.159 18.1185 11.159 17.3208C11.159 16.5232 10.5205 15.8765 9.7328 15.8765Z" fill="white"/>
<path d="M32.5275 14.6012V16.5735H35.7513V19.2259C35.4528 19.3922 35.1468 19.513 34.8334 19.5886C34.5349 19.6641 34.1469 19.702 33.6692 19.702C32.7886 19.702 31.9976 19.513 31.2961 19.1352C30.6095 18.7423 30.0648 18.2058 29.6618 17.5256C29.2737 16.8456 29.0797 16.0823 29.0797 15.236C29.0797 14.3896 29.2811 13.649 29.6841 13.0143C30.0872 12.3644 30.617 11.8733 31.2737 11.5407C31.9305 11.1932 32.6319 11.0193 33.3782 11.0193C33.9453 11.0193 34.4976 11.1024 35.0349 11.2688C35.5871 11.4199 36.0722 11.6088 36.4901 11.8355L36.8036 11.9715L37.7215 10.2713L37.408 10.0899C36.1394 9.34931 34.7737 8.979 33.311 8.979C31.9827 8.979 30.8259 9.27372 29.8408 9.86316C28.8707 10.4526 28.1319 11.2309 27.6245 12.1981C27.117 13.1655 26.8633 14.2082 26.8633 15.3267C26.8633 16.3997 27.1021 17.4274 27.5797 18.4098C28.0573 19.3922 28.7812 20.2007 29.7513 20.8354C30.7215 21.4551 31.9081 21.765 33.311 21.765C35.2811 21.7196 36.811 21.2208 37.9005 20.2687V14.6012H32.5275Z" fill="white"/>
<path d="M39.9648 12.8563V21.5615H42.0917V14.8512C42.5394 14.685 43.0096 14.6019 43.5021 14.6019C44.2185 14.6019 44.8305 14.753 45.338 15.0552L45.4275 15.0325L45.8529 13.0602C45.3604 12.8336 44.8379 12.7202 44.2857 12.7202C43.3902 12.7202 42.5469 12.9771 41.7559 13.491L41.4872 12.8563H39.9648Z" fill="white"/>
<path d="M50.6843 12.7202C49.9828 12.7202 49.3261 12.9092 48.7142 13.287C48.1172 13.6497 47.6321 14.1787 47.2589 14.8739C46.8858 15.554 46.6992 16.3475 46.6992 17.2542C46.6992 18.6145 47.0872 19.7102 47.8635 20.5414C48.6395 21.3726 49.7664 21.7882 51.244 21.7882C52.3037 21.7882 53.3187 21.6144 54.2888 21.2669L53.9082 19.7933C53.1918 19.9746 52.4007 20.0653 51.535 20.0653C50.7141 20.0653 50.0798 19.9217 49.6321 19.6346C49.1843 19.3475 48.9305 18.8335 48.8709 18.093H54.7142V17.2542C54.7142 15.8487 54.3633 14.7454 53.662 13.9445C52.9753 13.1283 51.9828 12.7202 50.6843 12.7202ZM50.7291 14.4205C51.2813 14.4205 51.7291 14.6094 52.0724 14.9872C52.4156 15.3499 52.5873 15.8789 52.5873 16.5741H48.9157C48.9455 15.8941 49.1396 15.365 49.4977 14.9872C49.8709 14.6094 50.2813 14.4205 50.7291 14.4205Z" fill="white"/>
<path d="M59.9889 12.7202C59.2874 12.7202 58.6307 12.9092 58.0188 13.287C57.4218 13.6497 56.9367 14.1787 56.5635 14.8739C56.1904 15.554 56.0039 16.3475 56.0039 17.2542C56.0039 18.6145 56.3919 19.7102 57.1681 20.5414C57.9441 21.3726 59.071 21.7882 60.5486 21.7882C61.6083 21.7882 62.6233 21.6144 63.5934 21.2669L63.2128 19.7933C62.4964 19.9746 61.7053 20.0653 60.8396 20.0653C60.0187 20.0653 59.3844 19.9217 58.9367 19.6346C58.489 19.3475 58.2352 18.8335 58.1755 18.093H64.0188V17.2542C64.0188 15.8487 63.668 14.7454 62.9665 13.9445C62.28 13.1283 61.2875 12.7202 59.9889 12.7202ZM60.0338 14.4205C60.5859 14.4205 61.0337 14.6094 61.377 14.9872C61.7203 15.3499 61.8919 15.8789 61.8919 16.5741H58.2203C58.2501 15.8941 58.4442 15.365 58.8024 14.9872C59.1755 14.6094 59.5859 14.4205 60.0338 14.4205Z" fill="white"/>
<path d="M65.7109 12.8565V21.5618H67.8376V15.0555C68.7034 14.7382 69.3976 14.5795 69.92 14.5795C70.5022 14.5795 70.9052 14.7608 71.1287 15.1235C71.3528 15.4863 71.4648 15.8943 71.4648 16.3478V21.5618H73.5917V16.6198C73.5917 15.9396 73.5246 15.3276 73.3901 14.7835C73.2707 14.2394 72.9797 13.7633 72.5169 13.3552C72.0695 12.9473 71.3899 12.7432 70.4796 12.7432C69.5097 12.7432 68.5172 12.9926 67.5022 13.4913L67.2337 12.8565H65.7109Z" fill="white"/>
<path d="M74.918 21.5608H77.0674L78.2985 18.2737H82.8433L84.097 21.5608H86.3131L82.0537 10.1001C81.8283 9.49374 81.2554 9.09229 80.6157 9.09229C79.9759 9.09229 79.403 9.49374 79.1777 10.1001L74.918 21.5608ZM78.9927 16.2786L80.56 11.6087L82.1266 16.2786H78.9927Z" fill="white"/>
<path d="M87.75 12.8563V26.2316H89.8982V21.3121C90.2414 21.4633 90.5481 21.5767 90.8165 21.6522C91.1002 21.7278 91.4137 21.7656 91.7568 21.7656C93.1448 21.7656 94.2194 21.3651 94.9805 20.5641C95.7569 19.748 96.1451 18.6371 96.1451 17.2315C96.1451 16.1433 95.9285 15.2669 95.4952 14.6019C95.0773 13.9218 94.5549 13.4381 93.9289 13.151C93.3011 12.8638 92.6751 12.7202 92.0473 12.7202C91.1818 12.7202 90.3315 12.9544 89.4956 13.423L89.2493 12.8563H87.75ZM91.4655 14.4432C93.1227 14.4432 93.9501 15.4104 93.9501 17.345C93.9501 18.2971 93.7123 18.9922 93.2349 19.4306C92.7719 19.8537 92.1595 20.0653 91.3984 20.0653C90.8462 20.0653 90.3535 19.9217 89.9212 19.6346V14.7605C90.3986 14.549 90.9133 14.4432 91.4655 14.4432Z" fill="white"/>
<path d="M101.46 12.7202C100.76 12.7202 100.103 12.9092 99.4914 13.287C98.8934 13.6497 98.4093 14.1787 98.0355 14.8739C97.6626 15.554 97.4766 16.3475 97.4766 17.2542C97.4766 18.6145 97.8639 19.7102 98.6403 20.5414C99.4158 21.3726 100.543 21.7882 102.021 21.7882C103.08 21.7882 104.095 21.6144 105.066 21.2669L104.685 19.7933C103.968 19.9746 103.177 20.0653 102.312 20.0653C101.49 20.0653 100.857 19.9217 100.409 19.6346C99.9612 19.3475 99.7072 18.8335 99.6477 18.093H105.491V17.2542C105.491 15.8487 105.14 14.7454 104.439 13.9445C103.752 13.1283 102.759 12.7202 101.46 12.7202ZM101.505 14.4205C102.058 14.4205 102.505 14.6094 102.849 14.9872C103.192 15.3499 103.364 15.8789 103.364 16.5741H99.6928C99.7225 15.8941 99.9162 15.365 100.275 14.9872C100.648 14.6094 101.059 14.4205 101.505 14.4205Z" fill="white"/>
<path d="M119.728 7.61563L114.301 14.4464C116.106 16.7189 117.913 18.9933 119.722 21.2699C119.674 21.2731 119.641 21.2774 119.61 21.2774C118.776 21.2774 117.941 21.2778 117.107 21.2788C117.077 21.2807 117.048 21.2748 117.021 21.2618C116.994 21.2489 116.971 21.2291 116.954 21.2047C115.184 18.9743 113.414 16.7451 111.641 14.517C111.592 14.4569 111.604 14.4231 111.646 14.3704C113.354 12.2217 115.062 10.0728 116.769 7.92393C116.851 7.82305 116.914 7.68445 117.02 7.63496C117.147 7.6029 117.28 7.59691 117.409 7.61733C118.136 7.6167 118.862 7.6167 119.587 7.61733L119.728 7.61563Z" fill="white"/>
<path d="M117.012 21.5517C116.957 21.5532 116.901 21.5413 116.851 21.5171C116.8 21.4928 116.757 21.4567 116.723 21.4121C114.812 19.0182 113.074 16.8429 111.41 14.7637C111.364 14.7137 111.339 14.6478 111.34 14.5797C111.341 14.5116 111.368 14.4467 111.415 14.3981C112.707 12.7833 113.998 11.1687 115.289 9.55371L116.539 7.98927C116.559 7.96344 116.579 7.93499 116.598 7.90671C116.658 7.80037 116.746 7.71242 116.851 7.65243C116.967 7.60856 117.092 7.59512 117.214 7.6134C117.248 7.61693 117.282 7.61857 117.317 7.61831C117.851 7.61831 118.384 7.61831 118.918 7.61831H119.999L114.432 14.5848L119.975 21.5214L119.597 21.5469C119.567 21.5493 119.541 21.551 119.517 21.551H118.812C118.214 21.551 117.614 21.5515 117.014 21.5526L117.012 21.5517ZM117.006 21.2H117.012C117.612 21.1985 118.213 21.198 118.812 21.1985H119.268L113.982 14.5837L119.269 7.96872H117.317C117.278 7.97004 117.232 7.96607 117.19 7.96306C117.127 7.95337 117.063 7.95567 117.001 7.96985C116.956 8.00704 116.918 8.05235 116.888 8.10349C116.864 8.1395 116.839 8.17529 116.813 8.20771L115.562 9.77223C114.281 11.3761 112.999 12.98 111.717 14.5837C113.373 16.6539 115.1 18.8149 116.997 21.192C117 21.1945 117.001 21.1969 117.004 21.1993L117.006 21.2Z" fill="white"/>
<path d="M107.621 13.3525L110.696 17.1779L107.624 20.9992C107.652 21.001 107.67 21.003 107.687 21.003C108.16 21.003 108.633 21.003 109.105 21.003C109.123 21.0041 109.14 21.0008 109.154 20.9936C109.17 20.9863 109.183 20.9753 109.193 20.9616C110.195 19.7125 111.199 18.4643 112.204 17.217C112.231 17.1834 112.225 17.1644 112.2 17.1349C111.232 15.9318 110.265 14.7282 109.297 13.5243C109.251 13.4675 109.215 13.3901 109.155 13.3624C109.083 13.3445 109.008 13.3412 108.934 13.3525C108.523 13.3525 108.111 13.3525 107.7 13.3525H107.621Z" fill="white"/>
<path d="M108.766 21.5515H108.765C108.41 21.5507 108.055 21.5507 107.701 21.5515H107.275C107.251 21.5515 107.227 21.5501 107.199 21.5479L107.18 21.5464L106.315 21.4919L109.857 17.1799L106.266 12.8081H108.585C108.597 12.8081 108.61 12.8068 108.622 12.8061C108.754 12.7906 108.887 12.8091 109.008 12.8598C109.128 12.9194 109.229 13.0106 109.299 13.1229C109.306 13.1324 109.312 13.1419 109.319 13.1503L110.121 14.1267C110.87 15.038 111.62 15.9494 112.369 16.8609C112.446 16.9493 112.489 17.0616 112.49 17.1777C112.49 17.2938 112.448 17.4064 112.371 17.4955C111.316 18.7774 110.262 20.0604 109.209 21.3443C109.156 21.4097 109.089 21.4624 109.012 21.4984C108.935 21.5343 108.851 21.5524 108.766 21.5515ZM108.145 20.671H108.605C109.561 19.5062 110.517 18.3421 111.474 17.1788C110.787 16.3443 110.102 15.5098 109.416 14.6751L108.613 13.6984C108.61 13.6946 108.607 13.6905 108.604 13.6865C108.598 13.6869 108.592 13.6869 108.585 13.6865H108.146L111.016 17.1786L108.145 20.671Z" fill="white"/>
</svg>
