<svg width="128" height="33" viewBox="0 0 128 33" fill="none" xmlns="http://www.w3.org/2000/svg">
<g clip-path="url(#clip0_389_323)">
<path d="M75.0396 2.45213C75.1964 4.23768 75.3532 4.33688 78.4891 5.52725C80.2661 6.17203 81.625 6.86641 81.4159 7.0152C81.2591 7.164 79.7957 7.75918 78.1755 8.35437C75.3532 9.34634 75.1964 9.49513 75.0396 11.1815C74.9351 12.2231 75.0396 13.0166 75.3009 12.967C75.51 12.967 78.3323 11.9255 81.4682 10.6359C86.8515 8.40396 87.2173 8.20557 87.2173 6.86641C87.2173 5.52725 86.9037 5.32885 81.0501 3.04732L74.8828 0.666584L75.0396 2.45213Z" fill="white"/>
<path d="M80.8388 14.8516C79.5844 15.4467 79.114 16.0419 79.114 16.8851C79.114 17.6291 78.7482 18.1747 78.0687 18.3235C77.3893 18.5219 77.0234 19.0178 77.0234 19.8114C77.0234 20.605 77.3893 21.1506 78.0687 21.2994C79.0095 21.5474 79.114 21.9938 79.114 25.9616C79.114 31.3679 79.8457 32.3599 83.5565 32.3599C85.8039 32.3599 85.9084 32.3103 85.9084 30.9215C85.9084 29.7807 85.6471 29.4335 84.7586 29.2848C83.6611 29.136 83.5565 28.8384 83.3997 25.2673C83.2429 21.4482 83.2429 21.4482 84.6018 21.4482C85.6994 21.4482 85.9084 21.2002 85.9084 19.9602C85.9084 18.7203 85.6994 18.4723 84.6018 18.4723C83.3997 18.4723 83.2952 18.2739 83.2952 16.2403C83.2952 13.7604 83.2429 13.7108 80.8388 14.8516Z" fill="white"/>
<path d="M3.48823 18.6707C1.92029 19.3651 0.718197 20.7539 0.718197 21.8946C0.718197 22.7378 4.16767 22.5394 4.89938 21.6962C5.84015 20.6051 7.87847 20.7539 8.55791 21.9442C9.39415 23.4322 8.76697 23.9282 5.94467 23.9282C0.874991 23.9282 -1.79051 28.2433 1.39764 31.2688C3.12238 32.9055 6.31053 33.1039 7.983 31.6656C8.97603 30.8224 9.08056 30.8224 9.08056 31.5168C9.08056 32.1615 9.60321 32.3599 11.2234 32.3599H13.3663L13.1572 26.6561C13.0004 21.2498 12.9482 20.9027 11.5893 19.6627C9.9168 18.0259 6.0492 17.5796 3.48823 18.6707ZM9.08056 27.3009C9.08056 29.7312 4.79485 30.7728 4.48126 28.4416C4.2722 27.0033 5.10844 26.4081 7.40809 26.4081C8.66244 26.4081 9.08056 26.6065 9.08056 27.3009Z" fill="white"/>
<path d="M19.0098 18.8692C15.6648 20.4563 14.3059 25.4162 16.2397 29.2353C17.3895 31.5168 20.7345 33.0544 23.5045 32.5584C25.6474 32.1616 28.1561 30.2273 28.6787 28.4913C28.9923 27.4993 28.8355 27.4001 27.2153 27.4001C26.0132 27.4001 25.177 27.7473 24.7066 28.3425C23.9749 29.2849 23.2432 29.5825 21.5707 29.4337C19.5324 29.2849 18.7484 23.6802 20.5777 21.9443C21.9889 20.6051 22.9819 20.7043 24.4453 22.1923C25.2293 22.9859 26.2223 23.4323 27.3199 23.4323C29.1491 23.4323 29.3059 23.0355 28.1038 20.9027C26.6404 18.1748 22.407 17.2324 19.0098 18.8692Z" fill="white"/>
<path d="M35.2132 18.3236C33.5407 18.9188 31.5024 21.2499 30.9797 23.0851C29.255 29.2353 34.377 34.2448 40.2829 32.112C42.4257 31.3185 44.0982 29.4337 44.0982 27.797C44.0982 26.6562 41.2759 27.1522 39.8125 28.5409C38.14 30.1281 37.7742 30.1777 36.2062 28.9873C35.2655 28.2434 35.0041 27.4994 35.0041 25.565C34.9519 21.4979 37.8264 19.4644 39.708 22.1923C40.3351 23.1347 41.0146 23.4323 42.3212 23.4323C44.6209 23.4323 44.7254 22.0931 42.6348 19.9108C41.4327 18.6212 40.701 18.3236 38.5581 18.1748C37.147 18.0756 35.6313 18.1252 35.2132 18.3236Z" fill="white"/>
<path d="M49.4802 18.9684C47.2328 20.258 46.1875 22.3411 46.1875 25.4162C46.1875 28.8881 47.3373 30.7233 50.2119 31.9632C52.5638 32.9552 53.7659 32.9056 56.7973 31.7648C57.9993 31.3184 59.7764 29.1857 59.7764 28.1441C59.7764 27.4497 56.4314 28.0449 55.0203 28.9873C53.5568 30.0289 53.3478 30.0289 52.0412 29.3345C51.2572 28.9377 50.5777 28.0945 50.4732 27.4993C50.3164 26.4578 50.4209 26.4082 55.0203 26.4082H59.7764V24.6226C59.7764 19.3156 54.184 16.2405 49.4802 18.9684ZM54.968 21.5475C56.3269 22.8371 55.6474 23.4323 52.9819 23.4323C50.1596 23.4323 50.1074 23.3827 50.8913 21.8947C51.5185 20.8035 53.975 20.6051 54.968 21.5475Z" fill="white"/>
<path d="M67.9307 19.0178C66.8331 19.861 66.5718 19.9106 66.5718 19.2658C66.5718 18.6707 66.0492 18.4723 64.4812 18.4723H62.3906V25.4161V32.3599H64.4812H66.5195L66.6763 27.3504C66.8331 22.9361 66.9899 22.2418 67.8784 21.6962C68.5579 21.2498 69.3418 21.2002 70.1258 21.4978C71.2234 21.8946 71.2756 22.1922 71.2756 27.152V32.3599H73.3662H75.4568V26.904C75.4568 23.9281 75.1955 20.9522 74.8819 20.3074C73.7321 17.9267 70.2303 17.2819 67.9307 19.0178Z" fill="white"/>
<path d="M110.005 19.2658C108.437 20.5058 108.384 20.5058 108.384 19.5138C108.384 18.6211 108.071 18.4723 106.294 18.4723H104.203V25.4161V32.3599H106.241H108.28L108.489 27.896C108.646 23.0849 108.907 22.6881 111.677 22.093C112.931 21.845 113.088 21.597 113.088 19.9106C113.088 17.5795 112.304 17.4307 110.005 19.2658Z" fill="white"/>
<path d="M117.949 18.7701C114.97 20.1589 113.35 24.8708 114.709 28.2435C116.486 32.7569 122.758 34.1457 126.468 30.8226C128.35 29.1362 128.141 27.8963 125.893 27.8963C124.9 27.8963 124.064 28.0947 124.064 28.3923C124.064 29.1858 121.974 29.9794 120.719 29.6818C119.778 29.4834 118.315 27.5987 118.315 26.6563C118.315 26.5571 120.51 26.3587 123.176 26.3091L127.984 26.1603L127.88 24.0772C127.775 21.4484 127.043 20.1589 124.953 18.9685C122.914 17.7782 120.197 17.7286 117.949 18.7701ZM123.542 21.994C124.326 23.3828 124.116 23.5316 120.981 23.3332C118.315 23.1844 118.315 23.1844 119.099 22.0436C120.197 20.6053 122.758 20.5557 123.542 21.994Z" fill="white"/>
<path d="M88.5234 24.077C88.5234 30.1777 88.9938 31.5168 91.5025 32.4096C92.9659 32.9056 96.3632 32.1616 96.3632 31.3184C96.3632 31.0705 96.6245 30.8721 96.8858 30.8721C97.1994 30.8721 97.4085 31.2192 97.4085 31.616C97.4085 32.1616 97.9834 32.36 99.499 32.36H101.59V25.4162V18.4724H99.499H97.4085V23.0851C97.4085 28.3921 96.8858 29.5825 94.5339 29.2849L92.9659 29.1361L92.8092 23.7795L92.6524 18.4724H90.614H88.5234V24.077Z" fill="white"/>
</g>
<defs>
<clipPath id="clip0_389_323">
<rect width="127.968" height="31.9999" fill="white" transform="translate(0.015625 0.666504)"/>
</clipPath>
</defs>
</svg>
